<ttFont>
<head>
    <!-- Most of this table will be recalculated by the compiler -->
    <tableVersion value="1.0"/>
    <fontRevision value="1.002"/>
    <checkSumAdjustment value="0x82add6f0"/>
    <magicNumber value="0x5f0f3cf5"/>
    <flags value="00000000 00001111"/>
    <unitsPerEm value="1000"/>
    <created value="Sat Jan  4 16:14:24 2020"/>
    <modified value="Wed Feb  3 17:27:59 2021"/>
    <xMin value="-138"/>
    <yMin value="-231"/>
    <xMax value="1360"/>
    <yMax value="1103"/>
    <macStyle value="00000000 00000000"/>
    <lowestRecPPEM value="6"/>
    <fontDirectionHint value="2"/>
    <indexToLocFormat value="1"/>
    <glyphDataFormat value="0"/>
  </head>
    <TTGlyph name=".notdef" xMin="40" yMin="0" xMax="544" yMax="700">
      <contour>
        <pt x="40" y="35" on="1"/>
        <pt x="40" y="665" on="1"/>
        <pt x="40" y="682" on="0"/>
        <pt x="58" y="700" on="0"/>
        <pt x="75" y="700" on="1"/>
        <pt x="509" y="700" on="1"/>
        <pt x="526" y="700" on="0"/>
        <pt x="544" y="682" on="0"/>
        <pt x="544" y="665" on="1"/>
        <pt x="544" y="35" on="1"/>
        <pt x="544" y="18" on="0"/>
        <pt x="526" y="0" on="0"/>
        <pt x="509" y="0" on="1"/>
        <pt x="75" y="0" on="1"/>
        <pt x="58" y="0" on="0"/>
        <pt x="40" y="18" on="0"/>
      </contour>
      <contour>
        <pt x="509" y="670" on="1"/>
        <pt x="95" y="670" on="1"/>
        <pt x="92" y="670" on="0"/>
        <pt x="90" y="666" on="0"/>
        <pt x="92" y="664" on="1"/>
        <pt x="508" y="65" on="1"/>
        <pt x="510" y="62" on="0"/>
        <pt x="514" y="63" on="0"/>
        <pt x="514" y="67" on="1"/>
        <pt x="514" y="665" on="1"/>
        <pt x="514" y="667" on="0"/>
        <pt x="511" y="670" on="0"/>
      </contour>
      <contour>
        <pt x="70" y="633" on="1"/>
        <pt x="70" y="35" on="1"/>
        <pt x="70" y="33" on="0"/>
        <pt x="73" y="30" on="0"/>
        <pt x="75" y="30" on="1"/>
        <pt x="488" y="30" on="1"/>
        <pt x="491" y="30" on="0"/>
        <pt x="493" y="34" on="0"/>
        <pt x="491" y="36" on="1"/>
        <pt x="76" y="635" on="1"/>
        <pt x="74" y="638" on="0"/>
        <pt x="70" y="637" on="0"/>
      </contour>
    </TTGlyph>
    <TTGlyph name="A" xMin="25" yMin="0" xMax="622" yMax="700">
      <contour>
        <pt x="314" y="687" on="1"/>
        <pt x="331" y="687" on="1"/>
        <pt x="310" y="622" on="0"/>
        <pt x="281" y="542" on="0"/>
        <pt x="257" y="478" on="1"/>
        <pt x="77" y="0" on="1"/>
        <pt x="25" y="0" on="1"/>
        <pt x="291" y="700" on="1"/>
        <pt x="359" y="700" on="1"/>
        <pt x="622" y="0" on="1"/>
        <pt x="566" y="0" on="1"/>
        <pt x="385" y="484" on="1"/>
        <pt x="362" y="546" on="0"/>
        <pt x="334" y="624" on="0"/>
      </contour>
      <contour>
        <pt x="321" y="211" on="1"/>
        <pt x="134" y="211" on="1"/>
        <pt x="153" y="261" on="1"/>
        <pt x="321" y="261" on="1"/>
      </contour>
      <contour>
        <pt x="515" y="211" on="1"/>
        <pt x="321" y="211" on="1"/>
        <pt x="321" y="261" on="1"/>
        <pt x="496" y="261" on="1"/>
      </contour>
    </TTGlyph>
    <TTGlyph name="AE" xMin="0" yMin="0" xMax="872" yMax="700">
      <contour>
        <pt x="166" y="191" on="1"/>
        <pt x="202" y="241" on="1"/>
        <pt x="495" y="241" on="1"/>
        <pt x="465" y="221" on="1"/>
        <pt x="465" y="626" on="1"/>
        <pt x="477" y="600" on="1"/>
        <pt x="60" y="0" on="1"/>
        <pt x="0" y="0" on="1"/>
        <pt x="486" y="700" on="1"/>
        <pt x="872" y="700" on="1"/>
        <pt x="872" y="650" on="1"/>
        <pt x="485" y="650" on="1"/>
        <pt x="515" y="680" on="1"/>
        <pt x="515" y="366" on="1"/>
        <pt x="485" y="386" on="1"/>
        <pt x="815" y="386" on="1"/>
        <pt x="815" y="336" on="1"/>
        <pt x="485" y="336" on="1"/>
        <pt x="515" y="356" on="1"/>
        <pt x="515" y="20" on="1"/>
        <pt x="485" y="50" on="1"/>
        <pt x="868" y="50" on="1"/>
        <pt x="868" y="0" on="1"/>
        <pt x="465" y="0" on="1"/>
        <pt x="465" y="211" on="1"/>
        <pt x="495" y="191" on="1"/>
      </contour>
    </TTGlyph>
    <TTGlyph name="AEacute" xMin="0" yMin="0" xMax="872" yMax="912">
      <contour>
        <pt x="166" y="191" on="1"/>
        <pt x="202" y="241" on="1"/>
        <pt x="495" y="241" on="1"/>
        <pt x="465" y="221" on="1"/>
        <pt x="465" y="626" on="1"/>
        <pt x="477" y="600" on="1"/>
        <pt x="60" y="0" on="1"/>
        <pt x="0" y="0" on="1"/>
        <pt x="486" y="700" on="1"/>
        <pt x="872" y="700" on="1"/>
        <pt x="872" y="650" on="1"/>
        <pt x="485" y="650" on="1"/>
        <pt x="515" y="680" on="1"/>
        <pt x="515" y="366" on="1"/>
        <pt x="485" y="386" on="1"/>
        <pt x="815" y="386" on="1"/>
        <pt x="815" y="336" on="1"/>
        <pt x="485" y="336" on="1"/>
        <pt x="515" y="356" on="1"/>
        <pt x="515" y="20" on="1"/>
        <pt x="485" y="50" on="1"/>
        <pt x="868" y="50" on="1"/>
        <pt x="868" y="0" on="1"/>
        <pt x="465" y="0" on="1"/>
        <pt x="465" y="211" on="1"/>
        <pt x="495" y="191" on="1"/>
      </contour>
      <contour>
        <pt x="776" y="863" on="1"/>
        <pt x="616" y="770" on="1"/>
        <pt x="596" y="801" on="1"/>
        <pt x="738" y="912" on="1"/>
      </contour>
    </TTGlyph>
    <TTGlyph name="Aacute" xMin="25" yMin="0" xMax="622" yMax="912">
      <contour>
        <pt x="314" y="687" on="1"/>
        <pt x="331" y="687" on="1"/>
        <pt x="310" y="622" on="0"/>
        <pt x="281" y="542" on="0"/>
        <pt x="257" y="478" on="1"/>
        <pt x="77" y="0" on="1"/>
        <pt x="25" y="0" on="1"/>
        <pt x="291" y="700" on="1"/>
        <pt x="359" y="700" on="1"/>
        <pt x="622" y="0" on="1"/>
        <pt x="566" y="0" on="1"/>
        <pt x="385" y="484" on="1"/>
        <pt x="362" y="546" on="0"/>
        <pt x="334" y="624" on="0"/>
      </contour>
      <contour>
        <pt x="321" y="211" on="1"/>
        <pt x="134" y="211" on="1"/>
        <pt x="153" y="261" on="1"/>
        <pt x="321" y="261" on="1"/>
      </contour>
      <contour>
        <pt x="515" y="211" on="1"/>
        <pt x="321" y="211" on="1"/>
        <pt x="321" y="261" on="1"/>
        <pt x="496" y="261" on="1"/>
      </contour>
      <contour>
        <pt x="445" y="863" on="1"/>
        <pt x="285" y="770" on="1"/>
        <pt x="264" y="801" on="1"/>
        <pt x="407" y="912" on="1"/>
      </contour>
    </TTGlyph>
    <TTGlyph name="Abreve" xMin="25" yMin="0" xMax="622" yMax="907">
      <contour>
        <pt x="314" y="687" on="1"/>
        <pt x="331" y="687" on="1"/>
        <pt x="310" y="622" on="0"/>
        <pt x="281" y="542" on="0"/>
        <pt x="257" y="478" on="1"/>
        <pt x="77" y="0" on="1"/>
        <pt x="25" y="0" on="1"/>
        <pt x="291" y="700" on="1"/>
        <pt x="359" y="700" on="1"/>
        <pt x="622" y="0" on="1"/>
        <pt x="566" y="0" on="1"/>
        <pt x="385" y="484" on="1"/>
        <pt x="362" y="546" on="0"/>
        <pt x="334" y="624" on="0"/>
      </contour>
      <contour>
        <pt x="321" y="211" on="1"/>
        <pt x="134" y="211" on="1"/>
        <pt x="153" y="261" on="1"/>
        <pt x="321" y="261" on="1"/>
      </contour>
      <contour>
        <pt x="515" y="211" on="1"/>
        <pt x="321" y="211" on="1"/>
        <pt x="321" y="261" on="1"/>
        <pt x="496" y="261" on="1"/>
      </contour>
      <contour>
        <pt x="324" y="770" on="1"/>
        <pt x="270" y="770" on="0"/>
        <pt x="194" y="841" on="0"/>
        <pt x="182" y="902" on="1"/>
        <pt x="224" y="907" on="1"/>
        <pt x="234" y="862" on="0"/>
        <pt x="290" y="811" on="0"/>
        <pt x="324" y="811" on="1"/>
        <pt x="358" y="811" on="0"/>
        <pt x="412" y="862" on="0"/>
        <pt x="422" y="907" on="1"/>
        <pt x="466" y="902" on="1"/>
        <pt x="454" y="841" on="0"/>
        <pt x="378" y="770" on="0"/>
      </contour>
    </TTGlyph>
    <TTGlyph name="Acircumflex" xMin="25" yMin="0" xMax="622" yMax="896">
      <contour>
        <pt x="314" y="687" on="1"/>
        <pt x="331" y="687" on="1"/>
        <pt x="310" y="622" on="0"/>
        <pt x="281" y="542" on="0"/>
        <pt x="257" y="478" on="1"/>
        <pt x="77" y="0" on="1"/>
        <pt x="25" y="0" on="1"/>
        <pt x="291" y="700" on="1"/>
        <pt x="359" y="700" on="1"/>
        <pt x="622" y="0" on="1"/>
        <pt x="566" y="0" on="1"/>
        <pt x="385" y="484" on="1"/>
        <pt x="362" y="546" on="0"/>
        <pt x="334" y="624" on="0"/>
      </contour>
      <contour>
        <pt x="321" y="211" on="1"/>
        <pt x="134" y="211" on="1"/>
        <pt x="153" y="261" on="1"/>
        <pt x="321" y="261" on="1"/>
      </contour>
      <contour>
        <pt x="515" y="211" on="1"/>
        <pt x="321" y="211" on="1"/>
        <pt x="321" y="261" on="1"/>
        <pt x="496" y="261" on="1"/>
      </contour>
      <contour>
        <pt x="446" y="770" on="1"/>
        <pt x="308" y="865" on="1"/>
        <pt x="338" y="865" on="1"/>
        <pt x="202" y="770" on="1"/>
        <pt x="174" y="795" on="1"/>
        <pt x="292" y="896" on="1"/>
        <pt x="354" y="896" on="1"/>
        <pt x="474" y="795" on="1"/>
      </contour>
    </TTGlyph>
    <TTGlyph name="Adieresis" xMin="25" yMin="0" xMax="622" yMax="860">
      <contour>
        <pt x="314" y="687" on="1"/>
        <pt x="331" y="687" on="1"/>
        <pt x="310" y="622" on="0"/>
        <pt x="281" y="542" on="0"/>
        <pt x="257" y="478" on="1"/>
        <pt x="77" y="0" on="1"/>
        <pt x="25" y="0" on="1"/>
        <pt x="291" y="700" on="1"/>
        <pt x="359" y="700" on="1"/>
        <pt x="622" y="0" on="1"/>
        <pt x="566" y="0" on="1"/>
        <pt x="385" y="484" on="1"/>
        <pt x="362" y="546" on="0"/>
        <pt x="334" y="624" on="0"/>
      </contour>
      <contour>
        <pt x="321" y="211" on="1"/>
        <pt x="134" y="211" on="1"/>
        <pt x="153" y="261" on="1"/>
        <pt x="321" y="261" on="1"/>
      </contour>
      <contour>
        <pt x="515" y="211" on="1"/>
        <pt x="321" y="211" on="1"/>
        <pt x="321" y="261" on="1"/>
        <pt x="496" y="261" on="1"/>
      </contour>
      <contour>
        <pt x="270" y="815" on="1"/>
        <pt x="270" y="795" on="0"/>
        <pt x="246" y="770" on="0"/>
        <pt x="224" y="770" on="1"/>
        <pt x="202" y="770" on="0"/>
        <pt x="178" y="794" on="0"/>
        <pt x="178" y="815" on="1"/>
        <pt x="178" y="835" on="0"/>
        <pt x="202" y="860" on="0"/>
        <pt x="224" y="860" on="1"/>
        <pt x="246" y="860" on="0"/>
        <pt x="270" y="836" on="0"/>
      </contour>
      <contour>
        <pt x="470" y="815" on="1"/>
        <pt x="470" y="795" on="0"/>
        <pt x="446" y="770" on="0"/>
        <pt x="424" y="770" on="1"/>
        <pt x="402" y="770" on="0"/>
        <pt x="378" y="794" on="0"/>
        <pt x="378" y="815" on="1"/>
        <pt x="378" y="835" on="0"/>
        <pt x="402" y="860" on="0"/>
        <pt x="424" y="860" on="1"/>
        <pt x="446" y="860" on="0"/>
        <pt x="470" y="836" on="0"/>
      </contour>
    </TTGlyph>
    <TTGlyph name="Agrave" xMin="25" yMin="0" xMax="622" yMax="912">
      <contour>
        <pt x="314" y="687" on="1"/>
        <pt x="331" y="687" on="1"/>
        <pt x="310" y="622" on="0"/>
        <pt x="281" y="542" on="0"/>
        <pt x="257" y="478" on="1"/>
        <pt x="77" y="0" on="1"/>
        <pt x="25" y="0" on="1"/>
        <pt x="291" y="700" on="1"/>
        <pt x="359" y="700" on="1"/>
        <pt x="622" y="0" on="1"/>
        <pt x="566" y="0" on="1"/>
        <pt x="385" y="484" on="1"/>
        <pt x="362" y="546" on="0"/>
        <pt x="334" y="624" on="0"/>
      </contour>
      <contour>
        <pt x="321" y="211" on="1"/>
        <pt x="134" y="211" on="1"/>
        <pt x="153" y="261" on="1"/>
        <pt x="321" y="261" on="1"/>
      </contour>
      <contour>
        <pt x="515" y="211" on="1"/>
        <pt x="321" y="211" on="1"/>
        <pt x="321" y="261" on="1"/>
        <pt x="496" y="261" on="1"/>
      </contour>
      <contour>
        <pt x="383" y="801" on="1"/>
        <pt x="362" y="770" on="1"/>
        <pt x="202" y="863" on="1"/>
        <pt x="240" y="912" on="1"/>
      </contour>
    </TTGlyph>
    <TTGlyph name="Amacron" xMin="25" yMin="0" xMax="622" yMax="816">
      <contour>
        <pt x="314" y="687" on="1"/>
        <pt x="331" y="687" on="1"/>
        <pt x="310" y="622" on="0"/>
        <pt x="281" y="542" on="0"/>
        <pt x="257" y="478" on="1"/>
        <pt x="77" y="0" on="1"/>
        <pt x="25" y="0" on="1"/>
        <pt x="291" y="700" on="1"/>
        <pt x="359" y="700" on="1"/>
        <pt x="622" y="0" on="1"/>
        <pt x="566" y="0" on="1"/>
        <pt x="385" y="484" on="1"/>
        <pt x="362" y="546" on="0"/>
        <pt x="334" y="624" on="0"/>
      </contour>
      <contour>
        <pt x="321" y="211" on="1"/>
        <pt x="134" y="211" on="1"/>
        <pt x="153" y="261" on="1"/>
        <pt x="321" y="261" on="1"/>
      </contour>
      <contour>
        <pt x="515" y="211" on="1"/>
        <pt x="321" y="211" on="1"/>
        <pt x="321" y="261" on="1"/>
        <pt x="496" y="261" on="1"/>
      </contour>
      <contour>
        <pt x="466" y="770" on="1"/>
        <pt x="182" y="770" on="1"/>
        <pt x="182" y="816" on="1"/>
        <pt x="466" y="816" on="1"/>
      </contour>
    </TTGlyph>
    <TTGlyph name="Aogonek" xMin="25" yMin="-221" xMax="660" yMax="700">
      <contour>
        <pt x="590" y="5" on="1"/>
        <pt x="565" y="5" on="1"/>
        <pt x="387" y="478" on="1"/>
        <pt x="372" y="518" on="0"/>
        <pt x="353" y="572" on="0"/>
        <pt x="340" y="609" on="1"/>
        <pt x="334" y="625" on="0"/>
        <pt x="321" y="664" on="0"/>
        <pt x="312" y="689" on="1"/>
        <pt x="331" y="690" on="1"/>
        <pt x="323" y="665" on="0"/>
        <pt x="310" y="625" on="0"/>
        <pt x="304" y="609" on="1"/>
        <pt x="292" y="572" on="0"/>
        <pt x="272" y="517" on="0"/>
        <pt x="257" y="478" on="1"/>
        <pt x="77" y="0" on="1"/>
        <pt x="25" y="0" on="1"/>
        <pt x="291" y="700" on="1"/>
        <pt x="359" y="700" on="1"/>
        <pt x="621" y="3" on="1"/>
        <pt x="617" y="0" on="1"/>
        <pt x="565" y="-23" on="0"/>
        <pt x="489" y="-84" on="0"/>
        <pt x="489" y="-119" on="1"/>
        <pt x="489" y="-144" on="0"/>
        <pt x="529" y="-178" on="0"/>
        <pt x="558" y="-178" on="1"/>
        <pt x="580" y="-178" on="0"/>
        <pt x="615" y="-160" on="0"/>
        <pt x="627" y="-146" on="1"/>
        <pt x="660" y="-170" on="1"/>
        <pt x="641" y="-195" on="0"/>
        <pt x="590" y="-221" on="0"/>
        <pt x="556" y="-221" on="1"/>
        <pt x="508" y="-221" on="0"/>
        <pt x="441" y="-163" on="0"/>
        <pt x="441" y="-121" on="1"/>
        <pt x="441" y="-68" on="0"/>
        <pt x="525" y="5" on="0"/>
        <pt x="589" y="30" on="1"/>
      </contour>
      <contour>
        <pt x="321" y="211" on="1"/>
        <pt x="134" y="211" on="1"/>
        <pt x="153" y="261" on="1"/>
        <pt x="321" y="261" on="1"/>
      </contour>
      <contour>
        <pt x="515" y="211" on="1"/>
        <pt x="321" y="211" on="1"/>
        <pt x="321" y="261" on="1"/>
        <pt x="496" y="261" on="1"/>
      </contour>
    </TTGlyph>
    <TTGlyph name="Aring" xMin="25" yMin="0" xMax="622" yMax="872">
      <contour>
        <pt x="314" y="687" on="1"/>
        <pt x="331" y="687" on="1"/>
        <pt x="310" y="622" on="0"/>
        <pt x="281" y="542" on="0"/>
        <pt x="257" y="478" on="1"/>
        <pt x="77" y="0" on="1"/>
        <pt x="25" y="0" on="1"/>
        <pt x="291" y="700" on="1"/>
        <pt x="359" y="700" on="1"/>
        <pt x="622" y="0" on="1"/>
        <pt x="566" y="0" on="1"/>
        <pt x="385" y="484" on="1"/>
        <pt x="362" y="546" on="0"/>
        <pt x="334" y="624" on="0"/>
      </contour>
      <contour>
        <pt x="321" y="211" on="1"/>
        <pt x="134" y="211" on="1"/>
        <pt x="153" y="261" on="1"/>
        <pt x="321" y="261" on="1"/>
      </contour>
      <contour>
        <pt x="515" y="211" on="1"/>
        <pt x="321" y="211" on="1"/>
        <pt x="321" y="261" on="1"/>
        <pt x="496" y="261" on="1"/>
      </contour>
      <contour>
        <pt x="433" y="766" on="1"/>
        <pt x="433" y="724" on="0"/>
        <pt x="367" y="661" on="0"/>
        <pt x="323" y="661" on="1"/>
        <pt x="280" y="661" on="0"/>
        <pt x="214" y="724" on="0"/>
        <pt x="214" y="766" on="1"/>
        <pt x="214" y="809" on="0"/>
        <pt x="279" y="872" on="0"/>
        <pt x="323" y="872" on="1"/>
        <pt x="367" y="872" on="0"/>
        <pt x="433" y="809" on="0"/>
      </contour>
      <contour>
        <pt x="254" y="766" on="1"/>
        <pt x="254" y="739" on="0"/>
        <pt x="295" y="700" on="0"/>
        <pt x="323" y="700" on="1"/>
        <pt x="352" y="700" on="0"/>
        <pt x="393" y="739" on="0"/>
        <pt x="393" y="766" on="1"/>
        <pt x="393" y="796" on="0"/>
        <pt x="352" y="833" on="0"/>
        <pt x="323" y="833" on="1"/>
        <pt x="293" y="833" on="0"/>
        <pt x="254" y="795" on="0"/>
      </contour>
    </TTGlyph>
    <TTGlyph name="Aringacute" xMin="25" yMin="0" xMax="622" yMax="1054">
      <contour>
        <pt x="314" y="687" on="1"/>
        <pt x="331" y="687" on="1"/>
        <pt x="310" y="622" on="0"/>
        <pt x="281" y="542" on="0"/>
        <pt x="257" y="478" on="1"/>
        <pt x="77" y="0" on="1"/>
        <pt x="25" y="0" on="1"/>
        <pt x="291" y="700" on="1"/>
        <pt x="359" y="700" on="1"/>
        <pt x="622" y="0" on="1"/>
        <pt x="566" y="0" on="1"/>
        <pt x="385" y="484" on="1"/>
        <pt x="362" y="546" on="0"/>
        <pt x="334" y="624" on="0"/>
      </contour>
      <contour>
        <pt x="321" y="211" on="1"/>
        <pt x="134" y="211" on="1"/>
        <pt x="153" y="261" on="1"/>
        <pt x="321" y="261" on="1"/>
      </contour>
      <contour>
        <pt x="515" y="211" on="1"/>
        <pt x="321" y="211" on="1"/>
        <pt x="321" y="261" on="1"/>
        <pt x="496" y="261" on="1"/>
      </contour>
      <contour>
        <pt x="433" y="766" on="1"/>
        <pt x="433" y="724" on="0"/>
        <pt x="367" y="661" on="0"/>
        <pt x="323" y="661" on="1"/>
        <pt x="280" y="661" on="0"/>
        <pt x="214" y="724" on="0"/>
        <pt x="214" y="766" on="1"/>
        <pt x="214" y="809" on="0"/>
        <pt x="279" y="872" on="0"/>
        <pt x="323" y="872" on="1"/>
        <pt x="367" y="872" on="0"/>
        <pt x="433" y="809" on="0"/>
      </contour>
      <contour>
        <pt x="254" y="766" on="1"/>
        <pt x="254" y="739" on="0"/>
        <pt x="295" y="700" on="0"/>
        <pt x="323" y="700" on="1"/>
        <pt x="352" y="700" on="0"/>
        <pt x="393" y="739" on="0"/>
        <pt x="393" y="766" on="1"/>
        <pt x="393" y="796" on="0"/>
        <pt x="352" y="833" on="0"/>
        <pt x="323" y="833" on="1"/>
        <pt x="293" y="833" on="0"/>
        <pt x="254" y="795" on="0"/>
      </contour>
      <contour>
        <pt x="430" y="1005" on="1"/>
        <pt x="270" y="912" on="1"/>
        <pt x="249" y="943" on="1"/>
        <pt x="392" y="1054" on="1"/>
      </contour>
    </TTGlyph>
    <TTGlyph name="Atilde" xMin="25" yMin="0" xMax="622" yMax="860">
      <contour>
        <pt x="314" y="687" on="1"/>
        <pt x="331" y="687" on="1"/>
        <pt x="310" y="622" on="0"/>
        <pt x="281" y="542" on="0"/>
        <pt x="257" y="478" on="1"/>
        <pt x="77" y="0" on="1"/>
        <pt x="25" y="0" on="1"/>
        <pt x="291" y="700" on="1"/>
        <pt x="359" y="700" on="1"/>
        <pt x="622" y="0" on="1"/>
        <pt x="566" y="0" on="1"/>
        <pt x="385" y="484" on="1"/>
        <pt x="362" y="546" on="0"/>
        <pt x="334" y="624" on="0"/>
      </contour>
      <contour>
        <pt x="321" y="211" on="1"/>
        <pt x="134" y="211" on="1"/>
        <pt x="153" y="261" on="1"/>
        <pt x="321" y="261" on="1"/>
      </contour>
      <contour>
        <pt x="515" y="211" on="1"/>
        <pt x="321" y="211" on="1"/>
        <pt x="321" y="261" on="1"/>
        <pt x="496" y="261" on="1"/>
      </contour>
      <contour>
        <pt x="221" y="771" on="1"/>
        <pt x="175" y="771" on="1"/>
        <pt x="175" y="812" on="0"/>
        <pt x="221" y="860" on="0"/>
        <pt x="254" y="860" on="1"/>
        <pt x="276" y="860" on="0"/>
        <pt x="317" y="844" on="0"/>
        <pt x="341" y="833" on="1"/>
        <pt x="353" y="827" on="0"/>
        <pt x="378" y="816" on="0"/>
        <pt x="389" y="816" on="1"/>
        <pt x="404" y="816" on="0"/>
        <pt x="426" y="837" on="0"/>
        <pt x="426" y="859" on="1"/>
        <pt x="472" y="859" on="1"/>
        <pt x="472" y="818" on="0"/>
        <pt x="426" y="770" on="0"/>
        <pt x="393" y="770" on="1"/>
        <pt x="371" y="770" on="0"/>
        <pt x="330" y="786" on="0"/>
        <pt x="306" y="797" on="1"/>
        <pt x="294" y="803" on="0"/>
        <pt x="269" y="814" on="0"/>
        <pt x="258" y="814" on="1"/>
        <pt x="243" y="814" on="0"/>
        <pt x="221" y="792" on="0"/>
      </contour>
    </TTGlyph>
    <TTGlyph name="B" xMin="108" yMin="0" xMax="611" yMax="700">
      <contour>
        <pt x="108" y="700" on="1"/>
        <pt x="384" y="700" on="1"/>
        <pt x="467" y="700" on="0"/>
        <pt x="574" y="601" on="0"/>
        <pt x="574" y="524" on="1"/>
        <pt x="574" y="450" on="0"/>
        <pt x="466" y="352" on="0"/>
        <pt x="383" y="351" on="1"/>
        <pt x="384" y="387" on="1"/>
        <pt x="483" y="387" on="0"/>
        <pt x="611" y="285" on="0"/>
        <pt x="611" y="206" on="1"/>
        <pt x="611" y="116" on="0"/>
        <pt x="489" y="0" on="0"/>
        <pt x="394" y="0" on="1"/>
        <pt x="108" y="0" on="1"/>
      </contour>
      <contour>
        <pt x="521" y="519" on="1"/>
        <pt x="521" y="576" on="0"/>
        <pt x="444" y="650" on="0"/>
        <pt x="376" y="650" on="1"/>
        <pt x="150" y="650" on="1"/>
        <pt x="158" y="681" on="1"/>
        <pt x="158" y="369" on="1"/>
        <pt x="151" y="389" on="1"/>
        <pt x="378" y="389" on="1"/>
        <pt x="440" y="391" on="0"/>
        <pt x="521" y="464" on="0"/>
      </contour>
      <contour>
        <pt x="556" y="198" on="1"/>
        <pt x="556" y="260" on="0"/>
        <pt x="458" y="339" on="0"/>
        <pt x="383" y="339" on="1"/>
        <pt x="155" y="339" on="1"/>
        <pt x="158" y="354" on="1"/>
        <pt x="158" y="24" on="1"/>
        <pt x="154" y="50" on="1"/>
        <pt x="388" y="50" on="1"/>
        <pt x="461" y="50" on="0"/>
        <pt x="556" y="133" on="0"/>
      </contour>
    </TTGlyph>
    <TTGlyph name="C" xMin="50" yMin="-10" xMax="645" yMax="705">
      <contour>
        <pt x="605" y="130" on="1"/>
        <pt x="632" y="86" on="1"/>
        <pt x="596" y="44" on="0"/>
        <pt x="467" y="-10" on="0"/>
        <pt x="403" y="-10" on="1"/>
        <pt x="249" y="-10" on="0"/>
        <pt x="50" y="193" on="0"/>
        <pt x="50" y="350" on="1"/>
        <pt x="50" y="505" on="0"/>
        <pt x="243" y="705" on="0"/>
        <pt x="393" y="705" on="1"/>
        <pt x="463" y="705" on="0"/>
        <pt x="605" y="637" on="0"/>
        <pt x="645" y="585" on="1"/>
        <pt x="608" y="546" on="1"/>
        <pt x="575" y="594" on="0"/>
        <pt x="454" y="655" on="0"/>
        <pt x="393" y="655" on="1"/>
        <pt x="266" y="655" on="0"/>
        <pt x="103" y="483" on="0"/>
        <pt x="103" y="350" on="1"/>
        <pt x="103" y="215" on="0"/>
        <pt x="272" y="40" on="0"/>
        <pt x="403" y="40" on="1"/>
        <pt x="463" y="40" on="0"/>
        <pt x="577" y="91" on="0"/>
      </contour>
    </TTGlyph>
    <TTGlyph name="Cacute" xMin="50" yMin="-10" xMax="645" yMax="912">
      <contour>
        <pt x="605" y="130" on="1"/>
        <pt x="632" y="86" on="1"/>
        <pt x="596" y="44" on="0"/>
        <pt x="467" y="-10" on="0"/>
        <pt x="403" y="-10" on="1"/>
        <pt x="249" y="-10" on="0"/>
        <pt x="50" y="193" on="0"/>
        <pt x="50" y="350" on="1"/>
        <pt x="50" y="505" on="0"/>
        <pt x="243" y="705" on="0"/>
        <pt x="393" y="705" on="1"/>
        <pt x="463" y="705" on="0"/>
        <pt x="605" y="637" on="0"/>
        <pt x="645" y="585" on="1"/>
        <pt x="608" y="546" on="1"/>
        <pt x="575" y="594" on="0"/>
        <pt x="454" y="655" on="0"/>
        <pt x="393" y="655" on="1"/>
        <pt x="266" y="655" on="0"/>
        <pt x="103" y="483" on="0"/>
        <pt x="103" y="350" on="1"/>
        <pt x="103" y="215" on="0"/>
        <pt x="272" y="40" on="0"/>
        <pt x="403" y="40" on="1"/>
        <pt x="463" y="40" on="0"/>
        <pt x="577" y="91" on="0"/>
      </contour>
      <contour>
        <pt x="477" y="863" on="1"/>
        <pt x="317" y="770" on="1"/>
        <pt x="296" y="801" on="1"/>
        <pt x="439" y="912" on="1"/>
      </contour>
    </TTGlyph>
    <TTGlyph name="Ccaron" xMin="50" yMin="-10" xMax="645" yMax="896">
      <contour>
        <pt x="605" y="130" on="1"/>
        <pt x="632" y="86" on="1"/>
        <pt x="596" y="44" on="0"/>
        <pt x="467" y="-10" on="0"/>
        <pt x="403" y="-10" on="1"/>
        <pt x="249" y="-10" on="0"/>
        <pt x="50" y="193" on="0"/>
        <pt x="50" y="350" on="1"/>
        <pt x="50" y="505" on="0"/>
        <pt x="243" y="705" on="0"/>
        <pt x="393" y="705" on="1"/>
        <pt x="463" y="705" on="0"/>
        <pt x="605" y="637" on="0"/>
        <pt x="645" y="585" on="1"/>
        <pt x="608" y="546" on="1"/>
        <pt x="575" y="594" on="0"/>
        <pt x="454" y="655" on="0"/>
        <pt x="393" y="655" on="1"/>
        <pt x="266" y="655" on="0"/>
        <pt x="103" y="483" on="0"/>
        <pt x="103" y="350" on="1"/>
        <pt x="103" y="215" on="0"/>
        <pt x="272" y="40" on="0"/>
        <pt x="403" y="40" on="1"/>
        <pt x="463" y="40" on="0"/>
        <pt x="577" y="91" on="0"/>
      </contour>
      <contour>
        <pt x="486" y="896" on="1"/>
        <pt x="359" y="799" on="1"/>
        <pt x="389" y="799" on="1"/>
        <pt x="262" y="896" on="1"/>
        <pt x="234" y="871" on="1"/>
        <pt x="343" y="770" on="1"/>
        <pt x="405" y="770" on="1"/>
        <pt x="514" y="871" on="1"/>
      </contour>
    </TTGlyph>
    <TTGlyph name="Ccedilla" xMin="50" yMin="-225" xMax="645" yMax="705">
      <contour>
        <pt x="605" y="130" on="1"/>
        <pt x="632" y="86" on="1"/>
        <pt x="596" y="44" on="0"/>
        <pt x="467" y="-10" on="0"/>
        <pt x="403" y="-10" on="1"/>
        <pt x="249" y="-10" on="0"/>
        <pt x="50" y="193" on="0"/>
        <pt x="50" y="350" on="1"/>
        <pt x="50" y="505" on="0"/>
        <pt x="243" y="705" on="0"/>
        <pt x="393" y="705" on="1"/>
        <pt x="463" y="705" on="0"/>
        <pt x="605" y="637" on="0"/>
        <pt x="645" y="585" on="1"/>
        <pt x="608" y="546" on="1"/>
        <pt x="575" y="594" on="0"/>
        <pt x="454" y="655" on="0"/>
        <pt x="393" y="655" on="1"/>
        <pt x="266" y="655" on="0"/>
        <pt x="103" y="483" on="0"/>
        <pt x="103" y="350" on="1"/>
        <pt x="103" y="215" on="0"/>
        <pt x="272" y="40" on="0"/>
        <pt x="403" y="40" on="1"/>
        <pt x="463" y="40" on="0"/>
        <pt x="577" y="91" on="0"/>
      </contour>
      <contour>
        <pt x="351" y="-88" on="1"/>
        <pt x="311" y="-81" on="1"/>
        <pt x="371" y="11" on="1"/>
        <pt x="415" y="11" on="1"/>
      </contour>
      <contour>
        <pt x="465" y="-130" on="1"/>
        <pt x="465" y="-152" on="0"/>
        <pt x="436" y="-195" on="0"/>
        <pt x="411" y="-206" on="1"/>
        <pt x="387" y="-216" on="0"/>
        <pt x="338" y="-225" on="0"/>
        <pt x="305" y="-225" on="1"/>
        <pt x="298" y="-192" on="1"/>
        <pt x="343" y="-190" on="0"/>
        <pt x="417" y="-163" on="0"/>
        <pt x="417" y="-135" on="1"/>
        <pt x="417" y="-117" on="0"/>
        <pt x="372" y="-91" on="0"/>
        <pt x="324" y="-91" on="1"/>
        <pt x="311" y="-83" on="1"/>
        <pt x="311" y="-81" on="1"/>
        <pt x="350" y="-52" on="1"/>
        <pt x="407" y="-58" on="0"/>
        <pt x="465" y="-98" on="0"/>
      </contour>
    </TTGlyph>
    <TTGlyph name="Ccircumflex" xMin="50" yMin="-10" xMax="645" yMax="896">
      <contour>
        <pt x="605" y="130" on="1"/>
        <pt x="632" y="86" on="1"/>
        <pt x="596" y="44" on="0"/>
        <pt x="467" y="-10" on="0"/>
        <pt x="403" y="-10" on="1"/>
        <pt x="249" y="-10" on="0"/>
        <pt x="50" y="193" on="0"/>
        <pt x="50" y="350" on="1"/>
        <pt x="50" y="505" on="0"/>
        <pt x="243" y="705" on="0"/>
        <pt x="393" y="705" on="1"/>
        <pt x="463" y="705" on="0"/>
        <pt x="605" y="637" on="0"/>
        <pt x="645" y="585" on="1"/>
        <pt x="608" y="546" on="1"/>
        <pt x="575" y="594" on="0"/>
        <pt x="454" y="655" on="0"/>
        <pt x="393" y="655" on="1"/>
        <pt x="266" y="655" on="0"/>
        <pt x="103" y="483" on="0"/>
        <pt x="103" y="350" on="1"/>
        <pt x="103" y="215" on="0"/>
        <pt x="272" y="40" on="0"/>
        <pt x="403" y="40" on="1"/>
        <pt x="463" y="40" on="0"/>
        <pt x="577" y="91" on="0"/>
      </contour>
      <contour>
        <pt x="496" y="770" on="1"/>
        <pt x="359" y="865" on="1"/>
        <pt x="389" y="865" on="1"/>
        <pt x="252" y="770" on="1"/>
        <pt x="224" y="795" on="1"/>
        <pt x="343" y="896" on="1"/>
        <pt x="405" y="896" on="1"/>
        <pt x="524" y="795" on="1"/>
      </contour>
    </TTGlyph>
    <TTGlyph name="Cdotaccent" xMin="50" yMin="-10" xMax="645" yMax="860">
      <contour>
        <pt x="605" y="130" on="1"/>
        <pt x="632" y="86" on="1"/>
        <pt x="596" y="44" on="0"/>
        <pt x="467" y="-10" on="0"/>
        <pt x="403" y="-10" on="1"/>
        <pt x="249" y="-10" on="0"/>
        <pt x="50" y="193" on="0"/>
        <pt x="50" y="350" on="1"/>
        <pt x="50" y="505" on="0"/>
        <pt x="243" y="705" on="0"/>
        <pt x="393" y="705" on="1"/>
        <pt x="463" y="705" on="0"/>
        <pt x="605" y="637" on="0"/>
        <pt x="645" y="585" on="1"/>
        <pt x="608" y="546" on="1"/>
        <pt x="575" y="594" on="0"/>
        <pt x="454" y="655" on="0"/>
        <pt x="393" y="655" on="1"/>
        <pt x="266" y="655" on="0"/>
        <pt x="103" y="483" on="0"/>
        <pt x="103" y="350" on="1"/>
        <pt x="103" y="215" on="0"/>
        <pt x="272" y="40" on="0"/>
        <pt x="403" y="40" on="1"/>
        <pt x="463" y="40" on="0"/>
        <pt x="577" y="91" on="0"/>
      </contour>
      <contour>
        <pt x="421" y="815" on="1"/>
        <pt x="421" y="795" on="0"/>
        <pt x="397" y="770" on="0"/>
        <pt x="375" y="770" on="1"/>
        <pt x="353" y="770" on="0"/>
        <pt x="329" y="794" on="0"/>
        <pt x="329" y="815" on="1"/>
        <pt x="329" y="835" on="0"/>
        <pt x="353" y="860" on="0"/>
        <pt x="375" y="860" on="1"/>
        <pt x="397" y="860" on="0"/>
        <pt x="421" y="836" on="0"/>
      </contour>
    </TTGlyph>
    <TTGlyph name="D" xMin="108" yMin="0" xMax="689" yMax="700">
      <contour>
        <pt x="108" y="700" on="1"/>
        <pt x="363" y="700" on="1"/>
        <pt x="498" y="700" on="0"/>
        <pt x="689" y="503" on="0"/>
        <pt x="689" y="350" on="1"/>
        <pt x="689" y="197" on="0"/>
        <pt x="498" y="0" on="0"/>
        <pt x="363" y="0" on="1"/>
        <pt x="108" y="0" on="1"/>
      </contour>
      <contour>
        <pt x="144" y="50" on="1"/>
        <pt x="358" y="50" on="1"/>
        <pt x="472" y="50" on="0"/>
        <pt x="636" y="219" on="0"/>
        <pt x="636" y="350" on="1"/>
        <pt x="636" y="481" on="0"/>
        <pt x="472" y="650" on="0"/>
        <pt x="358" y="650" on="1"/>
        <pt x="141" y="650" on="1"/>
        <pt x="158" y="665" on="1"/>
        <pt x="158" y="33" on="1"/>
      </contour>
    </TTGlyph>
    <TTGlyph name="Dcaron" xMin="108" yMin="0" xMax="689" yMax="896">
      <contour>
        <pt x="108" y="700" on="1"/>
        <pt x="363" y="700" on="1"/>
        <pt x="498" y="700" on="0"/>
        <pt x="689" y="503" on="0"/>
        <pt x="689" y="350" on="1"/>
        <pt x="689" y="197" on="0"/>
        <pt x="498" y="0" on="0"/>
        <pt x="363" y="0" on="1"/>
        <pt x="108" y="0" on="1"/>
      </contour>
      <contour>
        <pt x="144" y="50" on="1"/>
        <pt x="358" y="50" on="1"/>
        <pt x="472" y="50" on="0"/>
        <pt x="636" y="219" on="0"/>
        <pt x="636" y="350" on="1"/>
        <pt x="636" y="481" on="0"/>
        <pt x="472" y="650" on="0"/>
        <pt x="358" y="650" on="1"/>
        <pt x="141" y="650" on="1"/>
        <pt x="158" y="665" on="1"/>
        <pt x="158" y="33" on="1"/>
      </contour>
      <contour>
        <pt x="467" y="896" on="1"/>
        <pt x="340" y="799" on="1"/>
        <pt x="370" y="799" on="1"/>
        <pt x="243" y="896" on="1"/>
        <pt x="215" y="871" on="1"/>
        <pt x="324" y="770" on="1"/>
        <pt x="386" y="770" on="1"/>
        <pt x="495" y="871" on="1"/>
      </contour>
    </TTGlyph>
    <TTGlyph name="Dcroat" xMin="11" yMin="0" xMax="689" yMax="700">
      <contour>
        <pt x="108" y="700" on="1"/>
        <pt x="363" y="700" on="1"/>
        <pt x="498" y="700" on="0"/>
        <pt x="689" y="503" on="0"/>
        <pt x="689" y="350" on="1"/>
        <pt x="689" y="197" on="0"/>
        <pt x="498" y="0" on="0"/>
        <pt x="363" y="0" on="1"/>
        <pt x="108" y="0" on="1"/>
      </contour>
      <contour>
        <pt x="144" y="50" on="1"/>
        <pt x="358" y="50" on="1"/>
        <pt x="472" y="50" on="0"/>
        <pt x="636" y="219" on="0"/>
        <pt x="636" y="350" on="1"/>
        <pt x="636" y="481" on="0"/>
        <pt x="472" y="650" on="0"/>
        <pt x="358" y="650" on="1"/>
        <pt x="141" y="650" on="1"/>
        <pt x="158" y="665" on="1"/>
        <pt x="158" y="33" on="1"/>
      </contour>
      <contour>
        <pt x="279" y="331" on="1"/>
        <pt x="11" y="331" on="1"/>
        <pt x="11" y="376" on="1"/>
        <pt x="279" y="376" on="1"/>
      </contour>
    </TTGlyph>
    <TTGlyph name="E" xMin="108" yMin="0" xMax="515" yMax="700">
      <contour>
        <pt x="158" y="0" on="1"/>
        <pt x="108" y="0" on="1"/>
        <pt x="108" y="700" on="1"/>
        <pt x="158" y="700" on="1"/>
      </contour>
      <contour>
        <pt x="511" y="0" on="1"/>
        <pt x="133" y="0" on="1"/>
        <pt x="133" y="50" on="1"/>
        <pt x="511" y="50" on="1"/>
      </contour>
      <contour>
        <pt x="458" y="336" on="1"/>
        <pt x="132" y="336" on="1"/>
        <pt x="132" y="386" on="1"/>
        <pt x="458" y="386" on="1"/>
      </contour>
      <contour>
        <pt x="515" y="650" on="1"/>
        <pt x="132" y="650" on="1"/>
        <pt x="132" y="700" on="1"/>
        <pt x="515" y="700" on="1"/>
      </contour>
    </TTGlyph>
    <TTGlyph name="Eacute" xMin="108" yMin="0" xMax="515" yMax="912">
      <contour>
        <pt x="158" y="0" on="1"/>
        <pt x="108" y="0" on="1"/>
        <pt x="108" y="700" on="1"/>
        <pt x="158" y="700" on="1"/>
      </contour>
      <contour>
        <pt x="511" y="0" on="1"/>
        <pt x="133" y="0" on="1"/>
        <pt x="133" y="50" on="1"/>
        <pt x="511" y="50" on="1"/>
      </contour>
      <contour>
        <pt x="458" y="336" on="1"/>
        <pt x="132" y="336" on="1"/>
        <pt x="132" y="386" on="1"/>
        <pt x="458" y="386" on="1"/>
      </contour>
      <contour>
        <pt x="515" y="650" on="1"/>
        <pt x="132" y="650" on="1"/>
        <pt x="132" y="700" on="1"/>
        <pt x="515" y="700" on="1"/>
      </contour>
      <contour>
        <pt x="420" y="863" on="1"/>
        <pt x="260" y="770" on="1"/>
        <pt x="239" y="801" on="1"/>
        <pt x="382" y="912" on="1"/>
      </contour>
    </TTGlyph>
    <TTGlyph name="Ebreve" xMin="108" yMin="0" xMax="515" yMax="907">
      <contour>
        <pt x="158" y="0" on="1"/>
        <pt x="108" y="0" on="1"/>
        <pt x="108" y="700" on="1"/>
        <pt x="158" y="700" on="1"/>
      </contour>
      <contour>
        <pt x="511" y="0" on="1"/>
        <pt x="133" y="0" on="1"/>
        <pt x="133" y="50" on="1"/>
        <pt x="511" y="50" on="1"/>
      </contour>
      <contour>
        <pt x="458" y="336" on="1"/>
        <pt x="132" y="336" on="1"/>
        <pt x="132" y="386" on="1"/>
        <pt x="458" y="386" on="1"/>
      </contour>
      <contour>
        <pt x="515" y="650" on="1"/>
        <pt x="132" y="650" on="1"/>
        <pt x="132" y="700" on="1"/>
        <pt x="515" y="700" on="1"/>
      </contour>
      <contour>
        <pt x="315" y="770" on="1"/>
        <pt x="261" y="770" on="0"/>
        <pt x="185" y="841" on="0"/>
        <pt x="173" y="902" on="1"/>
        <pt x="216" y="907" on="1"/>
        <pt x="226" y="862" on="0"/>
        <pt x="281" y="811" on="0"/>
        <pt x="315" y="811" on="1"/>
        <pt x="349" y="811" on="0"/>
        <pt x="404" y="862" on="0"/>
        <pt x="414" y="907" on="1"/>
        <pt x="457" y="902" on="1"/>
        <pt x="445" y="841" on="0"/>
        <pt x="369" y="770" on="0"/>
      </contour>
    </TTGlyph>
    <TTGlyph name="Ecaron" xMin="108" yMin="0" xMax="515" yMax="896">
      <contour>
        <pt x="158" y="0" on="1"/>
        <pt x="108" y="0" on="1"/>
        <pt x="108" y="700" on="1"/>
        <pt x="158" y="700" on="1"/>
      </contour>
      <contour>
        <pt x="511" y="0" on="1"/>
        <pt x="133" y="0" on="1"/>
        <pt x="133" y="50" on="1"/>
        <pt x="511" y="50" on="1"/>
      </contour>
      <contour>
        <pt x="458" y="336" on="1"/>
        <pt x="132" y="336" on="1"/>
        <pt x="132" y="386" on="1"/>
        <pt x="458" y="386" on="1"/>
      </contour>
      <contour>
        <pt x="515" y="650" on="1"/>
        <pt x="132" y="650" on="1"/>
        <pt x="132" y="700" on="1"/>
        <pt x="515" y="700" on="1"/>
      </contour>
      <contour>
        <pt x="427" y="896" on="1"/>
        <pt x="300" y="799" on="1"/>
        <pt x="330" y="799" on="1"/>
        <pt x="203" y="896" on="1"/>
        <pt x="175" y="871" on="1"/>
        <pt x="284" y="770" on="1"/>
        <pt x="346" y="770" on="1"/>
        <pt x="455" y="871" on="1"/>
      </contour>
    </TTGlyph>
    <TTGlyph name="Ecircumflex" xMin="108" yMin="0" xMax="515" yMax="896">
      <contour>
        <pt x="158" y="0" on="1"/>
        <pt x="108" y="0" on="1"/>
        <pt x="108" y="700" on="1"/>
        <pt x="158" y="700" on="1"/>
      </contour>
      <contour>
        <pt x="511" y="0" on="1"/>
        <pt x="133" y="0" on="1"/>
        <pt x="133" y="50" on="1"/>
        <pt x="511" y="50" on="1"/>
      </contour>
      <contour>
        <pt x="458" y="336" on="1"/>
        <pt x="132" y="336" on="1"/>
        <pt x="132" y="386" on="1"/>
        <pt x="458" y="386" on="1"/>
      </contour>
      <contour>
        <pt x="515" y="650" on="1"/>
        <pt x="132" y="650" on="1"/>
        <pt x="132" y="700" on="1"/>
        <pt x="515" y="700" on="1"/>
      </contour>
      <contour>
        <pt x="437" y="770" on="1"/>
        <pt x="300" y="865" on="1"/>
        <pt x="330" y="865" on="1"/>
        <pt x="193" y="770" on="1"/>
        <pt x="165" y="795" on="1"/>
        <pt x="284" y="896" on="1"/>
        <pt x="346" y="896" on="1"/>
        <pt x="465" y="795" on="1"/>
      </contour>
    </TTGlyph>
    <TTGlyph name="Edieresis" xMin="108" yMin="0" xMax="515" yMax="860">
      <contour>
        <pt x="158" y="0" on="1"/>
        <pt x="108" y="0" on="1"/>
        <pt x="108" y="700" on="1"/>
        <pt x="158" y="700" on="1"/>
      </contour>
      <contour>
        <pt x="511" y="0" on="1"/>
        <pt x="133" y="0" on="1"/>
        <pt x="133" y="50" on="1"/>
        <pt x="511" y="50" on="1"/>
      </contour>
      <contour>
        <pt x="458" y="336" on="1"/>
        <pt x="132" y="336" on="1"/>
        <pt x="132" y="386" on="1"/>
        <pt x="458" y="386" on="1"/>
      </contour>
      <contour>
        <pt x="515" y="650" on="1"/>
        <pt x="132" y="650" on="1"/>
        <pt x="132" y="700" on="1"/>
        <pt x="515" y="700" on="1"/>
      </contour>
      <contour>
        <pt x="261" y="815" on="1"/>
        <pt x="261" y="795" on="0"/>
        <pt x="237" y="770" on="0"/>
        <pt x="215" y="770" on="1"/>
        <pt x="193" y="770" on="0"/>
        <pt x="169" y="794" on="0"/>
        <pt x="169" y="815" on="1"/>
        <pt x="169" y="835" on="0"/>
        <pt x="193" y="860" on="0"/>
        <pt x="215" y="860" on="1"/>
        <pt x="237" y="860" on="0"/>
        <pt x="261" y="836" on="0"/>
      </contour>
      <contour>
        <pt x="461" y="815" on="1"/>
        <pt x="461" y="795" on="0"/>
        <pt x="437" y="770" on="0"/>
        <pt x="415" y="770" on="1"/>
        <pt x="393" y="770" on="0"/>
        <pt x="369" y="794" on="0"/>
        <pt x="369" y="815" on="1"/>
        <pt x="369" y="835" on="0"/>
        <pt x="393" y="860" on="0"/>
        <pt x="415" y="860" on="1"/>
        <pt x="437" y="860" on="0"/>
        <pt x="461" y="836" on="0"/>
      </contour>
    </TTGlyph>
    <TTGlyph name="Edotaccent" xMin="108" yMin="0" xMax="515" yMax="860">
      <contour>
        <pt x="158" y="0" on="1"/>
        <pt x="108" y="0" on="1"/>
        <pt x="108" y="700" on="1"/>
        <pt x="158" y="700" on="1"/>
      </contour>
      <contour>
        <pt x="511" y="0" on="1"/>
        <pt x="133" y="0" on="1"/>
        <pt x="133" y="50" on="1"/>
        <pt x="511" y="50" on="1"/>
      </contour>
      <contour>
        <pt x="458" y="336" on="1"/>
        <pt x="132" y="336" on="1"/>
        <pt x="132" y="386" on="1"/>
        <pt x="458" y="386" on="1"/>
      </contour>
      <contour>
        <pt x="515" y="650" on="1"/>
        <pt x="132" y="650" on="1"/>
        <pt x="132" y="700" on="1"/>
        <pt x="515" y="700" on="1"/>
      </contour>
      <contour>
        <pt x="361" y="815" on="1"/>
        <pt x="361" y="795" on="0"/>
        <pt x="337" y="770" on="0"/>
        <pt x="315" y="770" on="1"/>
        <pt x="293" y="770" on="0"/>
        <pt x="269" y="794" on="0"/>
        <pt x="269" y="815" on="1"/>
        <pt x="269" y="835" on="0"/>
        <pt x="293" y="860" on="0"/>
        <pt x="315" y="860" on="1"/>
        <pt x="337" y="860" on="0"/>
        <pt x="361" y="836" on="0"/>
      </contour>
    </TTGlyph>
    <TTGlyph name="Egrave" xMin="108" yMin="0" xMax="515" yMax="912">
      <contour>
        <pt x="158" y="0" on="1"/>
        <pt x="108" y="0" on="1"/>
        <pt x="108" y="700" on="1"/>
        <pt x="158" y="700" on="1"/>
      </contour>
      <contour>
        <pt x="511" y="0" on="1"/>
        <pt x="133" y="0" on="1"/>
        <pt x="133" y="50" on="1"/>
        <pt x="511" y="50" on="1"/>
      </contour>
      <contour>
        <pt x="458" y="336" on="1"/>
        <pt x="132" y="336" on="1"/>
        <pt x="132" y="386" on="1"/>
        <pt x="458" y="386" on="1"/>
      </contour>
      <contour>
        <pt x="515" y="650" on="1"/>
        <pt x="132" y="650" on="1"/>
        <pt x="132" y="700" on="1"/>
        <pt x="515" y="700" on="1"/>
      </contour>
      <contour>
        <pt x="384" y="801" on="1"/>
        <pt x="363" y="770" on="1"/>
        <pt x="203" y="863" on="1"/>
        <pt x="241" y="912" on="1"/>
      </contour>
    </TTGlyph>
    <TTGlyph name="Emacron" xMin="108" yMin="0" xMax="515" yMax="816">
      <contour>
        <pt x="158" y="0" on="1"/>
        <pt x="108" y="0" on="1"/>
        <pt x="108" y="700" on="1"/>
        <pt x="158" y="700" on="1"/>
      </contour>
      <contour>
        <pt x="511" y="0" on="1"/>
        <pt x="133" y="0" on="1"/>
        <pt x="133" y="50" on="1"/>
        <pt x="511" y="50" on="1"/>
      </contour>
      <contour>
        <pt x="458" y="336" on="1"/>
        <pt x="132" y="336" on="1"/>
        <pt x="132" y="386" on="1"/>
        <pt x="458" y="386" on="1"/>
      </contour>
      <contour>
        <pt x="515" y="650" on="1"/>
        <pt x="132" y="650" on="1"/>
        <pt x="132" y="700" on="1"/>
        <pt x="515" y="700" on="1"/>
      </contour>
      <contour>
        <pt x="447" y="770" on="1"/>
        <pt x="163" y="770" on="1"/>
        <pt x="163" y="816" on="1"/>
        <pt x="447" y="816" on="1"/>
      </contour>
    </TTGlyph>
    <TTGlyph name="Eng" xMin="108" yMin="-195" xMax="673" yMax="700">
      <contour>
        <pt x="623" y="33" on="1"/>
        <pt x="641" y="-21" on="1"/>
        <pt x="134" y="645" on="1"/>
        <pt x="151" y="651" on="1"/>
        <pt x="153" y="596" on="0"/>
        <pt x="155" y="483" on="0"/>
        <pt x="156" y="439" on="1"/>
        <pt x="157" y="403" on="0"/>
        <pt x="158" y="352" on="0"/>
        <pt x="158" y="344" on="1"/>
        <pt x="158" y="0" on="1"/>
        <pt x="108" y="0" on="1"/>
        <pt x="108" y="700" on="1"/>
        <pt x="154" y="700" on="1"/>
        <pt x="644" y="58" on="1"/>
        <pt x="627" y="52" on="1"/>
        <pt x="624" y="139" on="0"/>
        <pt x="624" y="324" on="0"/>
        <pt x="623" y="417" on="1"/>
        <pt x="623" y="700" on="1"/>
        <pt x="673" y="700" on="1"/>
        <pt x="673" y="3" on="1"/>
        <pt x="673" y="-42" on="1"/>
        <pt x="673" y="-108" on="0"/>
        <pt x="594" y="-195" on="0"/>
        <pt x="529" y="-195" on="1"/>
        <pt x="508" y="-152" on="1"/>
        <pt x="572" y="-152" on="0"/>
        <pt x="623" y="-90" on="0"/>
        <pt x="623" y="-28" on="1"/>
      </contour>
    </TTGlyph>
    <TTGlyph name="Eogonek" xMin="108" yMin="-221" xMax="554" yMax="700">
      <contour>
        <pt x="158" y="0" on="1"/>
        <pt x="108" y="0" on="1"/>
        <pt x="108" y="700" on="1"/>
        <pt x="158" y="700" on="1"/>
      </contour>
      <contour>
        <pt x="511" y="0" on="1"/>
        <pt x="133" y="0" on="1"/>
        <pt x="133" y="50" on="1"/>
        <pt x="511" y="50" on="1"/>
      </contour>
      <contour>
        <pt x="458" y="336" on="1"/>
        <pt x="132" y="336" on="1"/>
        <pt x="132" y="386" on="1"/>
        <pt x="458" y="386" on="1"/>
      </contour>
      <contour>
        <pt x="515" y="650" on="1"/>
        <pt x="132" y="650" on="1"/>
        <pt x="132" y="700" on="1"/>
        <pt x="515" y="700" on="1"/>
      </contour>
      <contour>
        <pt x="450" y="-221" on="1"/>
        <pt x="402" y="-221" on="0"/>
        <pt x="335" y="-163" on="0"/>
        <pt x="335" y="-121" on="1"/>
        <pt x="335" y="-72" on="0"/>
        <pt x="425" y="-2" on="0"/>
        <pt x="483" y="25" on="1"/>
        <pt x="511" y="17" on="1"/>
        <pt x="511" y="0" on="1"/>
        <pt x="459" y="-22" on="0"/>
        <pt x="383" y="-83" on="0"/>
        <pt x="383" y="-119" on="1"/>
        <pt x="383" y="-144" on="0"/>
        <pt x="423" y="-178" on="0"/>
        <pt x="452" y="-178" on="1"/>
        <pt x="474" y="-178" on="0"/>
        <pt x="509" y="-160" on="0"/>
        <pt x="521" y="-146" on="1"/>
        <pt x="554" y="-170" on="1"/>
        <pt x="535" y="-195" on="0"/>
        <pt x="484" y="-221" on="0"/>
      </contour>
    </TTGlyph>
    <TTGlyph name="Eth" xMin="11" yMin="0" xMax="689" yMax="700">
      <contour>
        <pt x="108" y="700" on="1"/>
        <pt x="363" y="700" on="1"/>
        <pt x="498" y="700" on="0"/>
        <pt x="689" y="503" on="0"/>
        <pt x="689" y="350" on="1"/>
        <pt x="689" y="197" on="0"/>
        <pt x="498" y="0" on="0"/>
        <pt x="363" y="0" on="1"/>
        <pt x="108" y="0" on="1"/>
      </contour>
      <contour>
        <pt x="144" y="50" on="1"/>
        <pt x="358" y="50" on="1"/>
        <pt x="472" y="50" on="0"/>
        <pt x="636" y="219" on="0"/>
        <pt x="636" y="350" on="1"/>
        <pt x="636" y="481" on="0"/>
        <pt x="472" y="650" on="0"/>
        <pt x="358" y="650" on="1"/>
        <pt x="141" y="650" on="1"/>
        <pt x="158" y="665" on="1"/>
        <pt x="158" y="33" on="1"/>
      </contour>
      <contour>
        <pt x="279" y="331" on="1"/>
        <pt x="11" y="331" on="1"/>
        <pt x="11" y="376" on="1"/>
        <pt x="279" y="376" on="1"/>
      </contour>
    </TTGlyph>
    <TTGlyph name="Euro" xMin="15" yMin="-10" xMax="594" yMax="705">
      <contour>
        <pt x="417" y="244" on="1"/>
        <pt x="15" y="244" on="1"/>
        <pt x="15" y="292" on="1"/>
        <pt x="417" y="292" on="1"/>
      </contour>
      <contour>
        <pt x="417" y="389" on="1"/>
        <pt x="15" y="389" on="1"/>
        <pt x="15" y="437" on="1"/>
        <pt x="417" y="437" on="1"/>
      </contour>
      <contour>
        <pt x="423" y="-10" on="1"/>
        <pt x="278" y="-10" on="0"/>
        <pt x="91" y="191" on="0"/>
        <pt x="91" y="347" on="1"/>
        <pt x="91" y="503" on="0"/>
        <pt x="281" y="705" on="0"/>
        <pt x="429" y="705" on="1"/>
        <pt x="473" y="705" on="0"/>
        <pt x="554" y="683" on="0"/>
        <pt x="590" y="659" on="1"/>
        <pt x="564" y="615" on="1"/>
        <pt x="534" y="632" on="0"/>
        <pt x="466" y="655" on="0"/>
        <pt x="429" y="655" on="1"/>
        <pt x="304" y="655" on="0"/>
        <pt x="144" y="481" on="0"/>
        <pt x="144" y="347" on="1"/>
        <pt x="144" y="213" on="0"/>
        <pt x="304" y="40" on="0"/>
        <pt x="428" y="40" on="1"/>
        <pt x="467" y="40" on="0"/>
        <pt x="539" y="64" on="0"/>
        <pt x="569" y="83" on="1"/>
        <pt x="594" y="41" on="1"/>
        <pt x="556" y="15" on="0"/>
        <pt x="468" y="-10" on="0"/>
      </contour>
    </TTGlyph>
    <TTGlyph name="F" xMin="108" yMin="0" xMax="535" yMax="700">
      <contour>
        <pt x="108" y="0" on="1"/>
        <pt x="108" y="700" on="1"/>
        <pt x="158" y="700" on="1"/>
        <pt x="158" y="0" on="1"/>
      </contour>
      <contour>
        <pt x="486" y="326" on="1"/>
        <pt x="139" y="326" on="1"/>
        <pt x="139" y="376" on="1"/>
        <pt x="486" y="376" on="1"/>
      </contour>
      <contour>
        <pt x="535" y="650" on="1"/>
        <pt x="138" y="650" on="1"/>
        <pt x="138" y="700" on="1"/>
        <pt x="535" y="700" on="1"/>
      </contour>
    </TTGlyph>
    <TTGlyph name="G" xMin="50" yMin="-10" xMax="724" yMax="705">
      <contour>
        <pt x="50" y="347" on="1"/>
        <pt x="50" y="503" on="0"/>
        <pt x="254" y="705" on="0"/>
        <pt x="405" y="705" on="1"/>
        <pt x="484" y="705" on="0"/>
        <pt x="635" y="638" on="0"/>
        <pt x="673" y="587" on="1"/>
        <pt x="639" y="552" on="1"/>
        <pt x="600" y="597" on="0"/>
        <pt x="469" y="655" on="0"/>
        <pt x="407" y="655" on="1"/>
        <pt x="278" y="655" on="0"/>
        <pt x="103" y="481" on="0"/>
        <pt x="103" y="347" on="1"/>
        <pt x="103" y="213" on="0"/>
        <pt x="283" y="40" on="0"/>
        <pt x="417" y="40" on="1"/>
        <pt x="529" y="40" on="0"/>
        <pt x="674" y="166" on="0"/>
        <pt x="674" y="260" on="1"/>
        <pt x="674" y="308" on="1"/>
        <pt x="692" y="282" on="1"/>
        <pt x="416" y="282" on="1"/>
        <pt x="416" y="332" on="1"/>
        <pt x="721" y="332" on="1"/>
        <pt x="722" y="324" on="0"/>
        <pt x="724" y="287" on="0"/>
        <pt x="724" y="273" on="1"/>
        <pt x="724" y="150" on="0"/>
        <pt x="545" y="-10" on="0"/>
        <pt x="415" y="-10" on="1"/>
        <pt x="259" y="-10" on="0"/>
        <pt x="50" y="191" on="0"/>
      </contour>
    </TTGlyph>
    <TTGlyph name="Gbreve" xMin="50" yMin="-10" xMax="724" yMax="907">
      <contour>
        <pt x="50" y="347" on="1"/>
        <pt x="50" y="503" on="0"/>
        <pt x="254" y="705" on="0"/>
        <pt x="405" y="705" on="1"/>
        <pt x="484" y="705" on="0"/>
        <pt x="635" y="638" on="0"/>
        <pt x="673" y="587" on="1"/>
        <pt x="639" y="552" on="1"/>
        <pt x="600" y="597" on="0"/>
        <pt x="469" y="655" on="0"/>
        <pt x="407" y="655" on="1"/>
        <pt x="278" y="655" on="0"/>
        <pt x="103" y="481" on="0"/>
        <pt x="103" y="347" on="1"/>
        <pt x="103" y="213" on="0"/>
        <pt x="283" y="40" on="0"/>
        <pt x="417" y="40" on="1"/>
        <pt x="529" y="40" on="0"/>
        <pt x="674" y="166" on="0"/>
        <pt x="674" y="260" on="1"/>
        <pt x="674" y="308" on="1"/>
        <pt x="692" y="282" on="1"/>
        <pt x="416" y="282" on="1"/>
        <pt x="416" y="332" on="1"/>
        <pt x="721" y="332" on="1"/>
        <pt x="722" y="324" on="0"/>
        <pt x="724" y="287" on="0"/>
        <pt x="724" y="273" on="1"/>
        <pt x="724" y="150" on="0"/>
        <pt x="545" y="-10" on="0"/>
        <pt x="415" y="-10" on="1"/>
        <pt x="259" y="-10" on="0"/>
        <pt x="50" y="191" on="0"/>
      </contour>
      <contour>
        <pt x="406" y="770" on="1"/>
        <pt x="352" y="770" on="0"/>
        <pt x="276" y="841" on="0"/>
        <pt x="264" y="902" on="1"/>
        <pt x="307" y="907" on="1"/>
        <pt x="317" y="862" on="0"/>
        <pt x="372" y="811" on="0"/>
        <pt x="406" y="811" on="1"/>
        <pt x="440" y="811" on="0"/>
        <pt x="495" y="862" on="0"/>
        <pt x="505" y="907" on="1"/>
        <pt x="548" y="902" on="1"/>
        <pt x="536" y="841" on="0"/>
        <pt x="460" y="770" on="0"/>
      </contour>
    </TTGlyph>
    <TTGlyph name="Gcaron" xMin="50" yMin="-10" xMax="724" yMax="896">
      <contour>
        <pt x="50" y="347" on="1"/>
        <pt x="50" y="503" on="0"/>
        <pt x="254" y="705" on="0"/>
        <pt x="405" y="705" on="1"/>
        <pt x="484" y="705" on="0"/>
        <pt x="635" y="638" on="0"/>
        <pt x="673" y="587" on="1"/>
        <pt x="639" y="552" on="1"/>
        <pt x="600" y="597" on="0"/>
        <pt x="469" y="655" on="0"/>
        <pt x="407" y="655" on="1"/>
        <pt x="278" y="655" on="0"/>
        <pt x="103" y="481" on="0"/>
        <pt x="103" y="347" on="1"/>
        <pt x="103" y="213" on="0"/>
        <pt x="283" y="40" on="0"/>
        <pt x="417" y="40" on="1"/>
        <pt x="529" y="40" on="0"/>
        <pt x="674" y="166" on="0"/>
        <pt x="674" y="260" on="1"/>
        <pt x="674" y="308" on="1"/>
        <pt x="692" y="282" on="1"/>
        <pt x="416" y="282" on="1"/>
        <pt x="416" y="332" on="1"/>
        <pt x="721" y="332" on="1"/>
        <pt x="722" y="324" on="0"/>
        <pt x="724" y="287" on="0"/>
        <pt x="724" y="273" on="1"/>
        <pt x="724" y="150" on="0"/>
        <pt x="545" y="-10" on="0"/>
        <pt x="415" y="-10" on="1"/>
        <pt x="259" y="-10" on="0"/>
        <pt x="50" y="191" on="0"/>
      </contour>
      <contour>
        <pt x="518" y="896" on="1"/>
        <pt x="391" y="799" on="1"/>
        <pt x="421" y="799" on="1"/>
        <pt x="294" y="896" on="1"/>
        <pt x="266" y="871" on="1"/>
        <pt x="375" y="770" on="1"/>
        <pt x="437" y="770" on="1"/>
        <pt x="546" y="871" on="1"/>
      </contour>
    </TTGlyph>
    <TTGlyph name="Gcircumflex" xMin="50" yMin="-10" xMax="724" yMax="896">
      <contour>
        <pt x="50" y="347" on="1"/>
        <pt x="50" y="503" on="0"/>
        <pt x="254" y="705" on="0"/>
        <pt x="405" y="705" on="1"/>
        <pt x="484" y="705" on="0"/>
        <pt x="635" y="638" on="0"/>
        <pt x="673" y="587" on="1"/>
        <pt x="639" y="552" on="1"/>
        <pt x="600" y="597" on="0"/>
        <pt x="469" y="655" on="0"/>
        <pt x="407" y="655" on="1"/>
        <pt x="278" y="655" on="0"/>
        <pt x="103" y="481" on="0"/>
        <pt x="103" y="347" on="1"/>
        <pt x="103" y="213" on="0"/>
        <pt x="283" y="40" on="0"/>
        <pt x="417" y="40" on="1"/>
        <pt x="529" y="40" on="0"/>
        <pt x="674" y="166" on="0"/>
        <pt x="674" y="260" on="1"/>
        <pt x="674" y="308" on="1"/>
        <pt x="692" y="282" on="1"/>
        <pt x="416" y="282" on="1"/>
        <pt x="416" y="332" on="1"/>
        <pt x="721" y="332" on="1"/>
        <pt x="722" y="324" on="0"/>
        <pt x="724" y="287" on="0"/>
        <pt x="724" y="273" on="1"/>
        <pt x="724" y="150" on="0"/>
        <pt x="545" y="-10" on="0"/>
        <pt x="415" y="-10" on="1"/>
        <pt x="259" y="-10" on="0"/>
        <pt x="50" y="191" on="0"/>
      </contour>
      <contour>
        <pt x="528" y="770" on="1"/>
        <pt x="391" y="865" on="1"/>
        <pt x="421" y="865" on="1"/>
        <pt x="284" y="770" on="1"/>
        <pt x="256" y="795" on="1"/>
        <pt x="375" y="896" on="1"/>
        <pt x="437" y="896" on="1"/>
        <pt x="556" y="795" on="1"/>
      </contour>
    </TTGlyph>
    <TTGlyph name="Gdotaccent" xMin="50" yMin="-10" xMax="724" yMax="860">
      <contour>
        <pt x="50" y="347" on="1"/>
        <pt x="50" y="503" on="0"/>
        <pt x="254" y="705" on="0"/>
        <pt x="405" y="705" on="1"/>
        <pt x="484" y="705" on="0"/>
        <pt x="635" y="638" on="0"/>
        <pt x="673" y="587" on="1"/>
        <pt x="639" y="552" on="1"/>
        <pt x="600" y="597" on="0"/>
        <pt x="469" y="655" on="0"/>
        <pt x="407" y="655" on="1"/>
        <pt x="278" y="655" on="0"/>
        <pt x="103" y="481" on="0"/>
        <pt x="103" y="347" on="1"/>
        <pt x="103" y="213" on="0"/>
        <pt x="283" y="40" on="0"/>
        <pt x="417" y="40" on="1"/>
        <pt x="529" y="40" on="0"/>
        <pt x="674" y="166" on="0"/>
        <pt x="674" y="260" on="1"/>
        <pt x="674" y="308" on="1"/>
        <pt x="692" y="282" on="1"/>
        <pt x="416" y="282" on="1"/>
        <pt x="416" y="332" on="1"/>
        <pt x="721" y="332" on="1"/>
        <pt x="722" y="324" on="0"/>
        <pt x="724" y="287" on="0"/>
        <pt x="724" y="273" on="1"/>
        <pt x="724" y="150" on="0"/>
        <pt x="545" y="-10" on="0"/>
        <pt x="415" y="-10" on="1"/>
        <pt x="259" y="-10" on="0"/>
        <pt x="50" y="191" on="0"/>
      </contour>
      <contour>
        <pt x="433" y="815" on="1"/>
        <pt x="433" y="795" on="0"/>
        <pt x="409" y="770" on="0"/>
        <pt x="387" y="770" on="1"/>
        <pt x="365" y="770" on="0"/>
        <pt x="341" y="794" on="0"/>
        <pt x="341" y="815" on="1"/>
        <pt x="341" y="835" on="0"/>
        <pt x="365" y="860" on="0"/>
        <pt x="387" y="860" on="1"/>
        <pt x="409" y="860" on="0"/>
        <pt x="433" y="836" on="0"/>
      </contour>
    </TTGlyph>
    <TTGlyph name="H" xMin="108" yMin="0" xMax="636" yMax="700">
      <contour>
        <pt x="108" y="700" on="1"/>
        <pt x="158" y="700" on="1"/>
        <pt x="158" y="0" on="1"/>
        <pt x="108" y="0" on="1"/>
      </contour>
      <contour>
        <pt x="586" y="700" on="1"/>
        <pt x="636" y="700" on="1"/>
        <pt x="636" y="0" on="1"/>
        <pt x="586" y="0" on="1"/>
      </contour>
      <contour>
        <pt x="137" y="324" on="1"/>
        <pt x="137" y="374" on="1"/>
        <pt x="604" y="374" on="1"/>
        <pt x="604" y="324" on="1"/>
      </contour>
    </TTGlyph>
    <TTGlyph name="Hbar" xMin="28" yMin="0" xMax="716" yMax="700">
      <contour>
        <pt x="108" y="536" on="1"/>
        <pt x="28" y="536" on="1"/>
        <pt x="28" y="582" on="1"/>
        <pt x="108" y="582" on="1"/>
        <pt x="219" y="582" on="1"/>
        <pt x="503" y="582" on="1"/>
        <pt x="636" y="582" on="1"/>
        <pt x="716" y="582" on="1"/>
        <pt x="716" y="536" on="1"/>
        <pt x="636" y="536" on="1"/>
        <pt x="515" y="536" on="1"/>
        <pt x="209" y="536" on="1"/>
      </contour>
      <contour>
        <pt x="108" y="700" on="1"/>
        <pt x="158" y="700" on="1"/>
        <pt x="158" y="0" on="1"/>
        <pt x="108" y="0" on="1"/>
      </contour>
      <contour>
        <pt x="586" y="700" on="1"/>
        <pt x="636" y="700" on="1"/>
        <pt x="636" y="0" on="1"/>
        <pt x="586" y="0" on="1"/>
      </contour>
      <contour>
        <pt x="137" y="324" on="1"/>
        <pt x="137" y="374" on="1"/>
        <pt x="604" y="374" on="1"/>
        <pt x="604" y="324" on="1"/>
      </contour>
    </TTGlyph>
    <TTGlyph name="Hcircumflex" xMin="108" yMin="0" xMax="636" yMax="896">
      <contour>
        <pt x="108" y="700" on="1"/>
        <pt x="158" y="700" on="1"/>
        <pt x="158" y="0" on="1"/>
        <pt x="108" y="0" on="1"/>
      </contour>
      <contour>
        <pt x="586" y="700" on="1"/>
        <pt x="636" y="700" on="1"/>
        <pt x="636" y="0" on="1"/>
        <pt x="586" y="0" on="1"/>
      </contour>
      <contour>
        <pt x="137" y="324" on="1"/>
        <pt x="137" y="374" on="1"/>
        <pt x="604" y="374" on="1"/>
        <pt x="604" y="324" on="1"/>
      </contour>
      <contour>
        <pt x="489" y="770" on="1"/>
        <pt x="352" y="865" on="1"/>
        <pt x="382" y="865" on="1"/>
        <pt x="245" y="770" on="1"/>
        <pt x="217" y="795" on="1"/>
        <pt x="336" y="896" on="1"/>
        <pt x="398" y="896" on="1"/>
        <pt x="517" y="795" on="1"/>
      </contour>
    </TTGlyph>
    <TTGlyph name="I" xMin="68" yMin="0" xMax="344" yMax="700">
      <contour>
        <pt x="231" y="700" on="1"/>
        <pt x="231" y="0" on="1"/>
        <pt x="181" y="0" on="1"/>
        <pt x="181" y="700" on="1"/>
        <pt x="208" y="700" on="0"/>
        <pt x="204" y="700" on="0"/>
      </contour>
      <contour>
        <pt x="344" y="700" on="1"/>
        <pt x="344" y="650" on="1"/>
        <pt x="68" y="650" on="1"/>
        <pt x="68" y="700" on="1"/>
      </contour>
      <contour>
        <pt x="344" y="50" on="1"/>
        <pt x="344" y="0" on="1"/>
        <pt x="68" y="0" on="1"/>
        <pt x="68" y="50" on="1"/>
      </contour>
    </TTGlyph>
    <TTGlyph name="I.ss01" xMin="129" yMin="0" xMax="179" yMax="700">
      <contour>
        <pt x="179" y="700" on="1"/>
        <pt x="179" y="0" on="1"/>
        <pt x="129" y="0" on="1"/>
        <pt x="129" y="700" on="1"/>
        <pt x="142" y="700" on="0"/>
        <pt x="166" y="700" on="0"/>
      </contour>
    </TTGlyph>
    <TTGlyph name="IJ" xMin="68" yMin="-10" xMax="991" yMax="700">
      <contour>
        <pt x="231" y="700" on="1"/>
        <pt x="231" y="0" on="1"/>
        <pt x="181" y="0" on="1"/>
        <pt x="181" y="700" on="1"/>
        <pt x="208" y="700" on="0"/>
        <pt x="204" y="700" on="0"/>
      </contour>
      <contour>
        <pt x="344" y="700" on="1"/>
        <pt x="344" y="650" on="1"/>
        <pt x="68" y="650" on="1"/>
        <pt x="68" y="700" on="1"/>
      </contour>
      <contour>
        <pt x="344" y="50" on="1"/>
        <pt x="344" y="0" on="1"/>
        <pt x="68" y="0" on="1"/>
        <pt x="68" y="50" on="1"/>
      </contour>
      <contour>
        <pt x="681" y="-10" on="1"/>
        <pt x="616" y="-10" on="0"/>
        <pt x="512" y="56" on="0"/>
        <pt x="480" y="117" on="1"/>
        <pt x="516" y="155" on="1"/>
        <pt x="548" y="94" on="0"/>
        <pt x="635" y="40" on="0"/>
        <pt x="682" y="40" on="1"/>
        <pt x="751" y="40" on="0"/>
        <pt x="839" y="139" on="0"/>
        <pt x="839" y="216" on="1"/>
        <pt x="839" y="700" on="1"/>
        <pt x="893" y="700" on="1"/>
        <pt x="893" y="213" on="1"/>
        <pt x="893" y="116" on="0"/>
        <pt x="774" y="-10" on="0"/>
      </contour>
      <contour>
        <pt x="991" y="700" on="1"/>
        <pt x="991" y="650" on="1"/>
        <pt x="712" y="650" on="1"/>
        <pt x="712" y="700" on="1"/>
      </contour>
    </TTGlyph>
    <TTGlyph name="IJ.ss01" xMin="129" yMin="-10" xMax="765" yMax="700">
      <contour>
        <pt x="179" y="700" on="1"/>
        <pt x="179" y="0" on="1"/>
        <pt x="129" y="0" on="1"/>
        <pt x="129" y="700" on="1"/>
        <pt x="142" y="700" on="0"/>
        <pt x="166" y="700" on="0"/>
      </contour>
      <contour>
        <pt x="553" y="-10" on="1"/>
        <pt x="488" y="-10" on="0"/>
        <pt x="384" y="56" on="0"/>
        <pt x="352" y="117" on="1"/>
        <pt x="388" y="155" on="1"/>
        <pt x="420" y="94" on="0"/>
        <pt x="507" y="40" on="0"/>
        <pt x="554" y="40" on="1"/>
        <pt x="623" y="40" on="0"/>
        <pt x="711" y="139" on="0"/>
        <pt x="711" y="216" on="1"/>
        <pt x="711" y="700" on="1"/>
        <pt x="765" y="700" on="1"/>
        <pt x="765" y="213" on="1"/>
        <pt x="765" y="116" on="0"/>
        <pt x="646" y="-10" on="0"/>
      </contour>
    </TTGlyph>
    <TTGlyph name="IJacute" xMin="68" yMin="-10" xMax="991" yMax="912">
      <contour>
        <pt x="231" y="700" on="1"/>
        <pt x="231" y="0" on="1"/>
        <pt x="181" y="0" on="1"/>
        <pt x="181" y="700" on="1"/>
        <pt x="208" y="700" on="0"/>
        <pt x="204" y="700" on="0"/>
      </contour>
      <contour>
        <pt x="344" y="700" on="1"/>
        <pt x="344" y="650" on="1"/>
        <pt x="68" y="650" on="1"/>
        <pt x="68" y="700" on="1"/>
      </contour>
      <contour>
        <pt x="344" y="50" on="1"/>
        <pt x="344" y="0" on="1"/>
        <pt x="68" y="0" on="1"/>
        <pt x="68" y="50" on="1"/>
      </contour>
      <contour>
        <pt x="681" y="-10" on="1"/>
        <pt x="616" y="-10" on="0"/>
        <pt x="512" y="56" on="0"/>
        <pt x="480" y="117" on="1"/>
        <pt x="516" y="155" on="1"/>
        <pt x="548" y="94" on="0"/>
        <pt x="635" y="40" on="0"/>
        <pt x="682" y="40" on="1"/>
        <pt x="751" y="40" on="0"/>
        <pt x="839" y="139" on="0"/>
        <pt x="839" y="216" on="1"/>
        <pt x="839" y="700" on="1"/>
        <pt x="893" y="700" on="1"/>
        <pt x="893" y="213" on="1"/>
        <pt x="893" y="116" on="0"/>
        <pt x="774" y="-10" on="0"/>
      </contour>
      <contour>
        <pt x="991" y="700" on="1"/>
        <pt x="991" y="650" on="1"/>
        <pt x="712" y="650" on="1"/>
        <pt x="712" y="700" on="1"/>
      </contour>
      <contour>
        <pt x="966" y="863" on="1"/>
        <pt x="806" y="770" on="1"/>
        <pt x="785" y="801" on="1"/>
        <pt x="928" y="912" on="1"/>
      </contour>
      <contour>
        <pt x="330" y="863" on="1"/>
        <pt x="170" y="770" on="1"/>
        <pt x="149" y="801" on="1"/>
        <pt x="292" y="912" on="1"/>
      </contour>
    </TTGlyph>
    <TTGlyph name="IJacute.ss01" xMin="106" yMin="-10" xMax="865" yMax="913">
      <contour>
        <pt x="179" y="700" on="1"/>
        <pt x="179" y="0" on="1"/>
        <pt x="129" y="0" on="1"/>
        <pt x="129" y="700" on="1"/>
        <pt x="142" y="700" on="0"/>
        <pt x="166" y="700" on="0"/>
      </contour>
      <contour>
        <pt x="553" y="-10" on="1"/>
        <pt x="488" y="-10" on="0"/>
        <pt x="384" y="56" on="0"/>
        <pt x="352" y="117" on="1"/>
        <pt x="388" y="155" on="1"/>
        <pt x="420" y="94" on="0"/>
        <pt x="507" y="40" on="0"/>
        <pt x="554" y="40" on="1"/>
        <pt x="623" y="40" on="0"/>
        <pt x="711" y="139" on="0"/>
        <pt x="711" y="216" on="1"/>
        <pt x="711" y="700" on="1"/>
        <pt x="765" y="700" on="1"/>
        <pt x="765" y="213" on="1"/>
        <pt x="765" y="116" on="0"/>
        <pt x="646" y="-10" on="0"/>
      </contour>
      <contour>
        <pt x="287" y="864" on="1"/>
        <pt x="127" y="771" on="1"/>
        <pt x="106" y="802" on="1"/>
        <pt x="249" y="913" on="1"/>
      </contour>
      <contour>
        <pt x="865" y="864" on="1"/>
        <pt x="705" y="771" on="1"/>
        <pt x="684" y="802" on="1"/>
        <pt x="827" y="913" on="1"/>
      </contour>
    </TTGlyph>
    <TTGlyph name="Iacute" xMin="68" yMin="0" xMax="344" yMax="912">
      <contour>
        <pt x="231" y="700" on="1"/>
        <pt x="231" y="0" on="1"/>
        <pt x="181" y="0" on="1"/>
        <pt x="181" y="700" on="1"/>
        <pt x="208" y="700" on="0"/>
        <pt x="204" y="700" on="0"/>
      </contour>
      <contour>
        <pt x="344" y="700" on="1"/>
        <pt x="344" y="650" on="1"/>
        <pt x="68" y="650" on="1"/>
        <pt x="68" y="700" on="1"/>
      </contour>
      <contour>
        <pt x="344" y="50" on="1"/>
        <pt x="344" y="0" on="1"/>
        <pt x="68" y="0" on="1"/>
        <pt x="68" y="50" on="1"/>
      </contour>
      <contour>
        <pt x="310" y="863" on="1"/>
        <pt x="150" y="770" on="1"/>
        <pt x="129" y="801" on="1"/>
        <pt x="272" y="912" on="1"/>
      </contour>
    </TTGlyph>
    <TTGlyph name="Iacute.ss01" xMin="87" yMin="0" xMax="268" yMax="912">
      <contour>
        <pt x="179" y="700" on="1"/>
        <pt x="179" y="0" on="1"/>
        <pt x="129" y="0" on="1"/>
        <pt x="129" y="700" on="1"/>
        <pt x="142" y="700" on="0"/>
        <pt x="166" y="700" on="0"/>
      </contour>
      <contour>
        <pt x="268" y="863" on="1"/>
        <pt x="108" y="770" on="1"/>
        <pt x="87" y="801" on="1"/>
        <pt x="230" y="912" on="1"/>
      </contour>
    </TTGlyph>
    <TTGlyph name="Iacute_J.loclNLD" xMin="68" yMin="-10" xMax="869" yMax="912">
      <contour>
        <pt x="231" y="700" on="1"/>
        <pt x="231" y="0" on="1"/>
        <pt x="181" y="0" on="1"/>
        <pt x="181" y="700" on="1"/>
        <pt x="208" y="700" on="0"/>
        <pt x="204" y="700" on="0"/>
      </contour>
      <contour>
        <pt x="344" y="700" on="1"/>
        <pt x="344" y="650" on="1"/>
        <pt x="68" y="650" on="1"/>
        <pt x="68" y="700" on="1"/>
      </contour>
      <contour>
        <pt x="344" y="50" on="1"/>
        <pt x="344" y="0" on="1"/>
        <pt x="68" y="0" on="1"/>
        <pt x="68" y="50" on="1"/>
      </contour>
      <contour>
        <pt x="310" y="863" on="1"/>
        <pt x="150" y="770" on="1"/>
        <pt x="129" y="801" on="1"/>
        <pt x="272" y="912" on="1"/>
      </contour>
      <contour>
        <pt x="559" y="-10" on="1"/>
        <pt x="494" y="-10" on="0"/>
        <pt x="390" y="56" on="0"/>
        <pt x="358" y="117" on="1"/>
        <pt x="394" y="155" on="1"/>
        <pt x="426" y="94" on="0"/>
        <pt x="513" y="40" on="0"/>
        <pt x="560" y="40" on="1"/>
        <pt x="629" y="40" on="0"/>
        <pt x="717" y="139" on="0"/>
        <pt x="717" y="216" on="1"/>
        <pt x="717" y="700" on="1"/>
        <pt x="771" y="700" on="1"/>
        <pt x="771" y="213" on="1"/>
        <pt x="771" y="116" on="0"/>
        <pt x="652" y="-10" on="0"/>
      </contour>
      <contour>
        <pt x="869" y="700" on="1"/>
        <pt x="869" y="650" on="1"/>
        <pt x="590" y="650" on="1"/>
        <pt x="590" y="700" on="1"/>
      </contour>
      <contour>
        <pt x="853" y="863" on="1"/>
        <pt x="693" y="770" on="1"/>
        <pt x="672" y="801" on="1"/>
        <pt x="815" y="912" on="1"/>
      </contour>
    </TTGlyph>
    <TTGlyph name="Ibreve" xMin="64" yMin="0" xMax="348" yMax="907">
      <contour>
        <pt x="231" y="700" on="1"/>
        <pt x="231" y="0" on="1"/>
        <pt x="181" y="0" on="1"/>
        <pt x="181" y="700" on="1"/>
        <pt x="208" y="700" on="0"/>
        <pt x="204" y="700" on="0"/>
      </contour>
      <contour>
        <pt x="344" y="700" on="1"/>
        <pt x="344" y="650" on="1"/>
        <pt x="68" y="650" on="1"/>
        <pt x="68" y="700" on="1"/>
      </contour>
      <contour>
        <pt x="344" y="50" on="1"/>
        <pt x="344" y="0" on="1"/>
        <pt x="68" y="0" on="1"/>
        <pt x="68" y="50" on="1"/>
      </contour>
      <contour>
        <pt x="206" y="770" on="1"/>
        <pt x="152" y="770" on="0"/>
        <pt x="76" y="841" on="0"/>
        <pt x="64" y="902" on="1"/>
        <pt x="107" y="907" on="1"/>
        <pt x="117" y="862" on="0"/>
        <pt x="172" y="811" on="0"/>
        <pt x="206" y="811" on="1"/>
        <pt x="240" y="811" on="0"/>
        <pt x="295" y="862" on="0"/>
        <pt x="305" y="907" on="1"/>
        <pt x="348" y="902" on="1"/>
        <pt x="336" y="841" on="0"/>
        <pt x="260" y="770" on="0"/>
      </contour>
    </TTGlyph>
    <TTGlyph name="Ibreve.ss01" xMin="12" yMin="0" xMax="296" yMax="907">
      <contour>
        <pt x="179" y="700" on="1"/>
        <pt x="179" y="0" on="1"/>
        <pt x="129" y="0" on="1"/>
        <pt x="129" y="700" on="1"/>
        <pt x="142" y="700" on="0"/>
        <pt x="166" y="700" on="0"/>
      </contour>
      <contour>
        <pt x="154" y="770" on="1"/>
        <pt x="100" y="770" on="0"/>
        <pt x="24" y="841" on="0"/>
        <pt x="12" y="902" on="1"/>
        <pt x="55" y="907" on="1"/>
        <pt x="65" y="862" on="0"/>
        <pt x="120" y="811" on="0"/>
        <pt x="154" y="811" on="1"/>
        <pt x="188" y="811" on="0"/>
        <pt x="243" y="862" on="0"/>
        <pt x="253" y="907" on="1"/>
        <pt x="296" y="902" on="1"/>
        <pt x="284" y="841" on="0"/>
        <pt x="208" y="770" on="0"/>
      </contour>
    </TTGlyph>
    <TTGlyph name="Icircumflex" xMin="56" yMin="0" xMax="356" yMax="896">
      <contour>
        <pt x="231" y="700" on="1"/>
        <pt x="231" y="0" on="1"/>
        <pt x="181" y="0" on="1"/>
        <pt x="181" y="700" on="1"/>
        <pt x="208" y="700" on="0"/>
        <pt x="204" y="700" on="0"/>
      </contour>
      <contour>
        <pt x="344" y="700" on="1"/>
        <pt x="344" y="650" on="1"/>
        <pt x="68" y="650" on="1"/>
        <pt x="68" y="700" on="1"/>
      </contour>
      <contour>
        <pt x="344" y="50" on="1"/>
        <pt x="344" y="0" on="1"/>
        <pt x="68" y="0" on="1"/>
        <pt x="68" y="50" on="1"/>
      </contour>
      <contour>
        <pt x="328" y="770" on="1"/>
        <pt x="191" y="865" on="1"/>
        <pt x="221" y="865" on="1"/>
        <pt x="84" y="770" on="1"/>
        <pt x="56" y="795" on="1"/>
        <pt x="175" y="896" on="1"/>
        <pt x="237" y="896" on="1"/>
        <pt x="356" y="795" on="1"/>
      </contour>
    </TTGlyph>
    <TTGlyph name="Icircumflex.ss01" xMin="4" yMin="0" xMax="304" yMax="896">
      <contour>
        <pt x="179" y="700" on="1"/>
        <pt x="179" y="0" on="1"/>
        <pt x="129" y="0" on="1"/>
        <pt x="129" y="700" on="1"/>
        <pt x="142" y="700" on="0"/>
        <pt x="166" y="700" on="0"/>
      </contour>
      <contour>
        <pt x="276" y="770" on="1"/>
        <pt x="139" y="865" on="1"/>
        <pt x="169" y="865" on="1"/>
        <pt x="32" y="770" on="1"/>
        <pt x="4" y="795" on="1"/>
        <pt x="123" y="896" on="1"/>
        <pt x="185" y="896" on="1"/>
        <pt x="304" y="795" on="1"/>
      </contour>
    </TTGlyph>
    <TTGlyph name="Idieresis" xMin="60" yMin="0" xMax="352" yMax="860">
      <contour>
        <pt x="231" y="700" on="1"/>
        <pt x="231" y="0" on="1"/>
        <pt x="181" y="0" on="1"/>
        <pt x="181" y="700" on="1"/>
        <pt x="208" y="700" on="0"/>
        <pt x="204" y="700" on="0"/>
      </contour>
      <contour>
        <pt x="344" y="700" on="1"/>
        <pt x="344" y="650" on="1"/>
        <pt x="68" y="650" on="1"/>
        <pt x="68" y="700" on="1"/>
      </contour>
      <contour>
        <pt x="344" y="50" on="1"/>
        <pt x="344" y="0" on="1"/>
        <pt x="68" y="0" on="1"/>
        <pt x="68" y="50" on="1"/>
      </contour>
      <contour>
        <pt x="152" y="815" on="1"/>
        <pt x="152" y="795" on="0"/>
        <pt x="128" y="770" on="0"/>
        <pt x="106" y="770" on="1"/>
        <pt x="84" y="770" on="0"/>
        <pt x="60" y="794" on="0"/>
        <pt x="60" y="815" on="1"/>
        <pt x="60" y="835" on="0"/>
        <pt x="84" y="860" on="0"/>
        <pt x="106" y="860" on="1"/>
        <pt x="128" y="860" on="0"/>
        <pt x="152" y="836" on="0"/>
      </contour>
      <contour>
        <pt x="352" y="815" on="1"/>
        <pt x="352" y="795" on="0"/>
        <pt x="328" y="770" on="0"/>
        <pt x="306" y="770" on="1"/>
        <pt x="284" y="770" on="0"/>
        <pt x="260" y="794" on="0"/>
        <pt x="260" y="815" on="1"/>
        <pt x="260" y="835" on="0"/>
        <pt x="284" y="860" on="0"/>
        <pt x="306" y="860" on="1"/>
        <pt x="328" y="860" on="0"/>
        <pt x="352" y="836" on="0"/>
      </contour>
    </TTGlyph>
    <TTGlyph name="Idieresis.ss01" xMin="8" yMin="0" xMax="300" yMax="860">
      <contour>
        <pt x="179" y="700" on="1"/>
        <pt x="179" y="0" on="1"/>
        <pt x="129" y="0" on="1"/>
        <pt x="129" y="700" on="1"/>
        <pt x="142" y="700" on="0"/>
        <pt x="166" y="700" on="0"/>
      </contour>
      <contour>
        <pt x="100" y="815" on="1"/>
        <pt x="100" y="795" on="0"/>
        <pt x="76" y="770" on="0"/>
        <pt x="54" y="770" on="1"/>
        <pt x="32" y="770" on="0"/>
        <pt x="8" y="794" on="0"/>
        <pt x="8" y="815" on="1"/>
        <pt x="8" y="835" on="0"/>
        <pt x="32" y="860" on="0"/>
        <pt x="54" y="860" on="1"/>
        <pt x="76" y="860" on="0"/>
        <pt x="100" y="836" on="0"/>
      </contour>
      <contour>
        <pt x="300" y="815" on="1"/>
        <pt x="300" y="795" on="0"/>
        <pt x="276" y="770" on="0"/>
        <pt x="254" y="770" on="1"/>
        <pt x="232" y="770" on="0"/>
        <pt x="208" y="794" on="0"/>
        <pt x="208" y="815" on="1"/>
        <pt x="208" y="835" on="0"/>
        <pt x="232" y="860" on="0"/>
        <pt x="254" y="860" on="1"/>
        <pt x="276" y="860" on="0"/>
        <pt x="300" y="836" on="0"/>
      </contour>
    </TTGlyph>
    <TTGlyph name="Idotaccent" xMin="68" yMin="0" xMax="344" yMax="860">
      <contour>
        <pt x="231" y="700" on="1"/>
        <pt x="231" y="0" on="1"/>
        <pt x="181" y="0" on="1"/>
        <pt x="181" y="700" on="1"/>
        <pt x="208" y="700" on="0"/>
        <pt x="204" y="700" on="0"/>
      </contour>
      <contour>
        <pt x="344" y="700" on="1"/>
        <pt x="344" y="650" on="1"/>
        <pt x="68" y="650" on="1"/>
        <pt x="68" y="700" on="1"/>
      </contour>
      <contour>
        <pt x="344" y="50" on="1"/>
        <pt x="344" y="0" on="1"/>
        <pt x="68" y="0" on="1"/>
        <pt x="68" y="50" on="1"/>
      </contour>
      <contour>
        <pt x="252" y="815" on="1"/>
        <pt x="252" y="795" on="0"/>
        <pt x="228" y="770" on="0"/>
        <pt x="206" y="770" on="1"/>
        <pt x="184" y="770" on="0"/>
        <pt x="160" y="794" on="0"/>
        <pt x="160" y="815" on="1"/>
        <pt x="160" y="835" on="0"/>
        <pt x="184" y="860" on="0"/>
        <pt x="206" y="860" on="1"/>
        <pt x="228" y="860" on="0"/>
        <pt x="252" y="836" on="0"/>
      </contour>
    </TTGlyph>
    <TTGlyph name="Idotaccent.ss01" xMin="108" yMin="0" xMax="200" yMax="860">
      <contour>
        <pt x="179" y="700" on="1"/>
        <pt x="179" y="0" on="1"/>
        <pt x="129" y="0" on="1"/>
        <pt x="129" y="700" on="1"/>
        <pt x="142" y="700" on="0"/>
        <pt x="166" y="700" on="0"/>
      </contour>
      <contour>
        <pt x="200" y="815" on="1"/>
        <pt x="200" y="795" on="0"/>
        <pt x="176" y="770" on="0"/>
        <pt x="154" y="770" on="1"/>
        <pt x="132" y="770" on="0"/>
        <pt x="108" y="794" on="0"/>
        <pt x="108" y="815" on="1"/>
        <pt x="108" y="835" on="0"/>
        <pt x="132" y="860" on="0"/>
        <pt x="154" y="860" on="1"/>
        <pt x="176" y="860" on="0"/>
        <pt x="200" y="836" on="0"/>
      </contour>
    </TTGlyph>
    <TTGlyph name="Igrave" xMin="68" yMin="0" xMax="344" yMax="912">
      <contour>
        <pt x="231" y="700" on="1"/>
        <pt x="231" y="0" on="1"/>
        <pt x="181" y="0" on="1"/>
        <pt x="181" y="700" on="1"/>
        <pt x="208" y="700" on="0"/>
        <pt x="204" y="700" on="0"/>
      </contour>
      <contour>
        <pt x="344" y="700" on="1"/>
        <pt x="344" y="650" on="1"/>
        <pt x="68" y="650" on="1"/>
        <pt x="68" y="700" on="1"/>
      </contour>
      <contour>
        <pt x="344" y="50" on="1"/>
        <pt x="344" y="0" on="1"/>
        <pt x="68" y="0" on="1"/>
        <pt x="68" y="50" on="1"/>
      </contour>
      <contour>
        <pt x="283" y="801" on="1"/>
        <pt x="262" y="770" on="1"/>
        <pt x="102" y="863" on="1"/>
        <pt x="140" y="912" on="1"/>
      </contour>
    </TTGlyph>
    <TTGlyph name="Igrave.ss01" xMin="64" yMin="0" xMax="244" yMax="912">
      <contour>
        <pt x="179" y="700" on="1"/>
        <pt x="179" y="0" on="1"/>
        <pt x="129" y="0" on="1"/>
        <pt x="129" y="700" on="1"/>
        <pt x="142" y="700" on="0"/>
        <pt x="166" y="700" on="0"/>
      </contour>
      <contour>
        <pt x="244" y="801" on="1"/>
        <pt x="224" y="770" on="1"/>
        <pt x="64" y="863" on="1"/>
        <pt x="102" y="912" on="1"/>
      </contour>
    </TTGlyph>
    <TTGlyph name="Imacron" xMin="64" yMin="0" xMax="348" yMax="816">
      <contour>
        <pt x="231" y="700" on="1"/>
        <pt x="231" y="0" on="1"/>
        <pt x="181" y="0" on="1"/>
        <pt x="181" y="700" on="1"/>
        <pt x="208" y="700" on="0"/>
        <pt x="204" y="700" on="0"/>
      </contour>
      <contour>
        <pt x="344" y="700" on="1"/>
        <pt x="344" y="650" on="1"/>
        <pt x="68" y="650" on="1"/>
        <pt x="68" y="700" on="1"/>
      </contour>
      <contour>
        <pt x="344" y="50" on="1"/>
        <pt x="344" y="0" on="1"/>
        <pt x="68" y="0" on="1"/>
        <pt x="68" y="50" on="1"/>
      </contour>
      <contour>
        <pt x="348" y="770" on="1"/>
        <pt x="64" y="770" on="1"/>
        <pt x="64" y="816" on="1"/>
        <pt x="348" y="816" on="1"/>
      </contour>
    </TTGlyph>
    <TTGlyph name="Imacron.ss01" xMin="12" yMin="0" xMax="296" yMax="843">
      <contour>
        <pt x="179" y="700" on="1"/>
        <pt x="179" y="0" on="1"/>
        <pt x="129" y="0" on="1"/>
        <pt x="129" y="700" on="1"/>
        <pt x="142" y="700" on="0"/>
        <pt x="166" y="700" on="0"/>
      </contour>
      <contour>
        <pt x="296" y="797" on="1"/>
        <pt x="12" y="797" on="1"/>
        <pt x="12" y="843" on="1"/>
        <pt x="296" y="843" on="1"/>
      </contour>
    </TTGlyph>
    <TTGlyph name="Iogonek" xMin="68" yMin="-221" xMax="366" yMax="700">
      <contour>
        <pt x="231" y="700" on="1"/>
        <pt x="231" y="0" on="1"/>
        <pt x="181" y="0" on="1"/>
        <pt x="181" y="700" on="1"/>
        <pt x="208" y="700" on="0"/>
        <pt x="204" y="700" on="0"/>
      </contour>
      <contour>
        <pt x="344" y="700" on="1"/>
        <pt x="344" y="650" on="1"/>
        <pt x="68" y="650" on="1"/>
        <pt x="68" y="700" on="1"/>
      </contour>
      <contour>
        <pt x="344" y="50" on="1"/>
        <pt x="344" y="0" on="1"/>
        <pt x="68" y="0" on="1"/>
        <pt x="68" y="50" on="1"/>
      </contour>
      <contour>
        <pt x="262" y="-221" on="1"/>
        <pt x="214" y="-221" on="0"/>
        <pt x="147" y="-163" on="0"/>
        <pt x="147" y="-121" on="1"/>
        <pt x="147" y="-72" on="0"/>
        <pt x="237" y="-2" on="0"/>
        <pt x="295" y="25" on="1"/>
        <pt x="323" y="17" on="1"/>
        <pt x="323" y="0" on="1"/>
        <pt x="271" y="-22" on="0"/>
        <pt x="195" y="-83" on="0"/>
        <pt x="195" y="-119" on="1"/>
        <pt x="195" y="-144" on="0"/>
        <pt x="235" y="-178" on="0"/>
        <pt x="264" y="-178" on="1"/>
        <pt x="286" y="-178" on="0"/>
        <pt x="321" y="-160" on="0"/>
        <pt x="333" y="-146" on="1"/>
        <pt x="366" y="-170" on="1"/>
        <pt x="347" y="-195" on="0"/>
        <pt x="296" y="-221" on="0"/>
      </contour>
    </TTGlyph>
    <TTGlyph name="Iogonek.ss01" xMin="42" yMin="-220" xMax="247" yMax="700">
      <contour>
        <pt x="179" y="700" on="1"/>
        <pt x="179" y="0" on="1"/>
        <pt x="129" y="0" on="1"/>
        <pt x="129" y="700" on="1"/>
        <pt x="142" y="700" on="0"/>
        <pt x="166" y="700" on="0"/>
      </contour>
      <contour>
        <pt x="144" y="-220" on="1"/>
        <pt x="100" y="-220" on="0"/>
        <pt x="42" y="-166" on="0"/>
        <pt x="42" y="-123" on="1"/>
        <pt x="42" y="-83" on="0"/>
        <pt x="86" y="-15" on="0"/>
        <pt x="146" y="24" on="1"/>
        <pt x="161" y="13" on="1"/>
        <pt x="179" y="0" on="1"/>
        <pt x="128" y="-29" on="0"/>
        <pt x="88" y="-88" on="0"/>
        <pt x="88" y="-116" on="1"/>
        <pt x="88" y="-142" on="0"/>
        <pt x="119" y="-177" on="0"/>
        <pt x="149" y="-177" on="1"/>
        <pt x="167" y="-177" on="0"/>
        <pt x="196" y="-162" on="0"/>
        <pt x="214" y="-142" on="1"/>
        <pt x="247" y="-166" on="1"/>
        <pt x="228" y="-191" on="0"/>
        <pt x="180" y="-220" on="0"/>
      </contour>
    </TTGlyph>
    <TTGlyph name="Itilde" xMin="58" yMin="0" xMax="354" yMax="860">
      <contour>
        <pt x="231" y="700" on="1"/>
        <pt x="231" y="0" on="1"/>
        <pt x="181" y="0" on="1"/>
        <pt x="181" y="700" on="1"/>
        <pt x="208" y="700" on="0"/>
        <pt x="204" y="700" on="0"/>
      </contour>
      <contour>
        <pt x="344" y="700" on="1"/>
        <pt x="344" y="650" on="1"/>
        <pt x="68" y="650" on="1"/>
        <pt x="68" y="700" on="1"/>
      </contour>
      <contour>
        <pt x="344" y="50" on="1"/>
        <pt x="344" y="0" on="1"/>
        <pt x="68" y="0" on="1"/>
        <pt x="68" y="50" on="1"/>
      </contour>
      <contour>
        <pt x="104" y="771" on="1"/>
        <pt x="58" y="771" on="1"/>
        <pt x="58" y="812" on="0"/>
        <pt x="104" y="860" on="0"/>
        <pt x="136" y="860" on="1"/>
        <pt x="158" y="860" on="0"/>
        <pt x="200" y="844" on="0"/>
        <pt x="224" y="833" on="1"/>
        <pt x="235" y="827" on="0"/>
        <pt x="261" y="816" on="0"/>
        <pt x="272" y="816" on="1"/>
        <pt x="286" y="816" on="0"/>
        <pt x="308" y="837" on="0"/>
        <pt x="308" y="859" on="1"/>
        <pt x="354" y="859" on="1"/>
        <pt x="354" y="818" on="0"/>
        <pt x="308" y="770" on="0"/>
        <pt x="276" y="770" on="1"/>
        <pt x="254" y="770" on="0"/>
        <pt x="212" y="786" on="0"/>
        <pt x="188" y="797" on="1"/>
        <pt x="177" y="803" on="0"/>
        <pt x="151" y="814" on="0"/>
        <pt x="140" y="814" on="1"/>
        <pt x="126" y="814" on="0"/>
        <pt x="104" y="792" on="0"/>
      </contour>
    </TTGlyph>
    <TTGlyph name="Itilde.ss01" xMin="6" yMin="0" xMax="302" yMax="860">
      <contour>
        <pt x="179" y="700" on="1"/>
        <pt x="179" y="0" on="1"/>
        <pt x="129" y="0" on="1"/>
        <pt x="129" y="700" on="1"/>
        <pt x="142" y="700" on="0"/>
        <pt x="166" y="700" on="0"/>
      </contour>
      <contour>
        <pt x="52" y="771" on="1"/>
        <pt x="6" y="771" on="1"/>
        <pt x="6" y="812" on="0"/>
        <pt x="52" y="860" on="0"/>
        <pt x="84" y="860" on="1"/>
        <pt x="106" y="860" on="0"/>
        <pt x="148" y="844" on="0"/>
        <pt x="172" y="833" on="1"/>
        <pt x="183" y="827" on="0"/>
        <pt x="209" y="816" on="0"/>
        <pt x="220" y="816" on="1"/>
        <pt x="234" y="816" on="0"/>
        <pt x="256" y="837" on="0"/>
        <pt x="256" y="859" on="1"/>
        <pt x="302" y="859" on="1"/>
        <pt x="302" y="818" on="0"/>
        <pt x="256" y="770" on="0"/>
        <pt x="224" y="770" on="1"/>
        <pt x="202" y="770" on="0"/>
        <pt x="160" y="786" on="0"/>
        <pt x="136" y="797" on="1"/>
        <pt x="125" y="803" on="0"/>
        <pt x="99" y="814" on="0"/>
        <pt x="88" y="814" on="1"/>
        <pt x="74" y="814" on="0"/>
        <pt x="52" y="792" on="0"/>
      </contour>
    </TTGlyph>
    <TTGlyph name="J" xMin="68" yMin="-10" xMax="579" yMax="700">
      <contour>
        <pt x="269" y="-10" on="1"/>
        <pt x="204" y="-10" on="0"/>
        <pt x="100" y="56" on="0"/>
        <pt x="68" y="117" on="1"/>
        <pt x="104" y="155" on="1"/>
        <pt x="136" y="94" on="0"/>
        <pt x="223" y="40" on="0"/>
        <pt x="270" y="40" on="1"/>
        <pt x="339" y="40" on="0"/>
        <pt x="427" y="139" on="0"/>
        <pt x="427" y="216" on="1"/>
        <pt x="427" y="700" on="1"/>
        <pt x="481" y="700" on="1"/>
        <pt x="481" y="213" on="1"/>
        <pt x="481" y="116" on="0"/>
        <pt x="362" y="-10" on="0"/>
      </contour>
      <contour>
        <pt x="579" y="700" on="1"/>
        <pt x="579" y="650" on="1"/>
        <pt x="300" y="650" on="1"/>
        <pt x="300" y="700" on="1"/>
      </contour>
    </TTGlyph>
    <TTGlyph name="J.ss01" xMin="44" yMin="-10" xMax="457" yMax="700">
      <contour>
        <pt x="245" y="-10" on="1"/>
        <pt x="180" y="-10" on="0"/>
        <pt x="76" y="56" on="0"/>
        <pt x="44" y="117" on="1"/>
        <pt x="80" y="155" on="1"/>
        <pt x="112" y="94" on="0"/>
        <pt x="199" y="40" on="0"/>
        <pt x="246" y="40" on="1"/>
        <pt x="315" y="40" on="0"/>
        <pt x="403" y="139" on="0"/>
        <pt x="403" y="216" on="1"/>
        <pt x="403" y="700" on="1"/>
        <pt x="457" y="700" on="1"/>
        <pt x="457" y="213" on="1"/>
        <pt x="457" y="116" on="0"/>
        <pt x="338" y="-10" on="0"/>
      </contour>
    </TTGlyph>
    <TTGlyph name="Jacute.loclNLD" xMin="68" yMin="-10" xMax="579" yMax="912">
      <contour>
        <pt x="269" y="-10" on="1"/>
        <pt x="204" y="-10" on="0"/>
        <pt x="100" y="56" on="0"/>
        <pt x="68" y="117" on="1"/>
        <pt x="104" y="155" on="1"/>
        <pt x="136" y="94" on="0"/>
        <pt x="223" y="40" on="0"/>
        <pt x="270" y="40" on="1"/>
        <pt x="339" y="40" on="0"/>
        <pt x="427" y="139" on="0"/>
        <pt x="427" y="216" on="1"/>
        <pt x="427" y="700" on="1"/>
        <pt x="481" y="700" on="1"/>
        <pt x="481" y="213" on="1"/>
        <pt x="481" y="116" on="0"/>
        <pt x="362" y="-10" on="0"/>
      </contour>
      <contour>
        <pt x="579" y="700" on="1"/>
        <pt x="579" y="650" on="1"/>
        <pt x="300" y="650" on="1"/>
        <pt x="300" y="700" on="1"/>
      </contour>
      <contour>
        <pt x="563" y="863" on="1"/>
        <pt x="403" y="770" on="1"/>
        <pt x="382" y="801" on="1"/>
        <pt x="525" y="912" on="1"/>
      </contour>
    </TTGlyph>
    <TTGlyph name="Jcircumflex" xMin="68" yMin="-10" xMax="599" yMax="896">
      <contour>
        <pt x="269" y="-10" on="1"/>
        <pt x="204" y="-10" on="0"/>
        <pt x="100" y="56" on="0"/>
        <pt x="68" y="117" on="1"/>
        <pt x="104" y="155" on="1"/>
        <pt x="136" y="94" on="0"/>
        <pt x="223" y="40" on="0"/>
        <pt x="270" y="40" on="1"/>
        <pt x="339" y="40" on="0"/>
        <pt x="427" y="139" on="0"/>
        <pt x="427" y="216" on="1"/>
        <pt x="427" y="700" on="1"/>
        <pt x="481" y="700" on="1"/>
        <pt x="481" y="213" on="1"/>
        <pt x="481" y="116" on="0"/>
        <pt x="362" y="-10" on="0"/>
      </contour>
      <contour>
        <pt x="579" y="700" on="1"/>
        <pt x="579" y="650" on="1"/>
        <pt x="300" y="650" on="1"/>
        <pt x="300" y="700" on="1"/>
      </contour>
      <contour>
        <pt x="571" y="770" on="1"/>
        <pt x="434" y="865" on="1"/>
        <pt x="464" y="865" on="1"/>
        <pt x="327" y="770" on="1"/>
        <pt x="299" y="795" on="1"/>
        <pt x="418" y="896" on="1"/>
        <pt x="480" y="896" on="1"/>
        <pt x="599" y="795" on="1"/>
      </contour>
    </TTGlyph>
    <TTGlyph name="Jcircumflex.ss01" xMin="44" yMin="-10" xMax="576" yMax="900">
      <contour>
        <pt x="245" y="-10" on="1"/>
        <pt x="180" y="-10" on="0"/>
        <pt x="76" y="56" on="0"/>
        <pt x="44" y="117" on="1"/>
        <pt x="80" y="155" on="1"/>
        <pt x="112" y="94" on="0"/>
        <pt x="199" y="40" on="0"/>
        <pt x="246" y="40" on="1"/>
        <pt x="315" y="40" on="0"/>
        <pt x="403" y="139" on="0"/>
        <pt x="403" y="216" on="1"/>
        <pt x="403" y="700" on="1"/>
        <pt x="457" y="700" on="1"/>
        <pt x="457" y="213" on="1"/>
        <pt x="457" y="116" on="0"/>
        <pt x="338" y="-10" on="0"/>
      </contour>
      <contour>
        <pt x="548" y="774" on="1"/>
        <pt x="411" y="869" on="1"/>
        <pt x="441" y="869" on="1"/>
        <pt x="304" y="774" on="1"/>
        <pt x="276" y="799" on="1"/>
        <pt x="395" y="900" on="1"/>
        <pt x="457" y="900" on="1"/>
        <pt x="576" y="799" on="1"/>
      </contour>
    </TTGlyph>
    <TTGlyph name="K" xMin="108" yMin="0" xMax="644" yMax="700">
      <contour>
        <pt x="108" y="0" on="1"/>
        <pt x="108" y="700" on="1"/>
        <pt x="158" y="700" on="1"/>
        <pt x="158" y="0" on="1"/>
      </contour>
      <contour>
        <pt x="137" y="217" on="1"/>
        <pt x="137" y="284" on="1"/>
        <pt x="561" y="700" on="1"/>
        <pt x="631" y="700" on="1"/>
      </contour>
      <contour>
        <pt x="581" y="0" on="1"/>
        <pt x="288" y="388" on="1"/>
        <pt x="324" y="422" on="1"/>
        <pt x="644" y="0" on="1"/>
      </contour>
    </TTGlyph>
    <TTGlyph name="L" xMin="108" yMin="0" xMax="501" yMax="700">
      <contour>
        <pt x="132" y="50" on="1"/>
        <pt x="501" y="50" on="1"/>
        <pt x="501" y="0" on="1"/>
        <pt x="108" y="0" on="1"/>
        <pt x="108" y="700" on="1"/>
        <pt x="158" y="700" on="1"/>
        <pt x="158" y="28" on="1"/>
      </contour>
    </TTGlyph>
    <TTGlyph name="Lacute" xMin="76" yMin="0" xMax="501" yMax="912">
      <contour>
        <pt x="132" y="50" on="1"/>
        <pt x="501" y="50" on="1"/>
        <pt x="501" y="0" on="1"/>
        <pt x="108" y="0" on="1"/>
        <pt x="108" y="700" on="1"/>
        <pt x="158" y="700" on="1"/>
        <pt x="158" y="28" on="1"/>
      </contour>
      <contour>
        <pt x="257" y="863" on="1"/>
        <pt x="97" y="770" on="1"/>
        <pt x="76" y="801" on="1"/>
        <pt x="219" y="912" on="1"/>
      </contour>
    </TTGlyph>
    <TTGlyph name="Lcaron" xMin="108" yMin="0" xMax="501" yMax="716">
      <contour>
        <pt x="132" y="50" on="1"/>
        <pt x="501" y="50" on="1"/>
        <pt x="501" y="0" on="1"/>
        <pt x="108" y="0" on="1"/>
        <pt x="108" y="700" on="1"/>
        <pt x="158" y="700" on="1"/>
        <pt x="158" y="28" on="1"/>
      </contour>
      <contour>
        <pt x="414" y="716" on="1"/>
        <pt x="445" y="716" on="0"/>
        <pt x="478" y="673" on="0"/>
        <pt x="478" y="635" on="1"/>
        <pt x="478" y="588" on="0"/>
        <pt x="431" y="521" on="0"/>
        <pt x="378" y="490" on="1"/>
        <pt x="360" y="516" on="1"/>
        <pt x="388" y="533" on="0"/>
        <pt x="418" y="571" on="0"/>
        <pt x="418" y="592" on="1"/>
        <pt x="418" y="604" on="0"/>
        <pt x="412" y="624" on="0"/>
        <pt x="395" y="638" on="1"/>
        <pt x="386" y="645" on="0"/>
        <pt x="373" y="666" on="0"/>
        <pt x="373" y="678" on="1"/>
        <pt x="373" y="695" on="0"/>
        <pt x="395" y="716" on="0"/>
      </contour>
    </TTGlyph>
    <TTGlyph name="Ldot" xMin="108" yMin="0" xMax="501" yMax="700">
      <contour>
        <pt x="132" y="50" on="1"/>
        <pt x="501" y="50" on="1"/>
        <pt x="501" y="0" on="1"/>
        <pt x="108" y="0" on="1"/>
        <pt x="108" y="700" on="1"/>
        <pt x="158" y="700" on="1"/>
        <pt x="158" y="28" on="1"/>
      </contour>
      <contour>
        <pt x="431" y="345" on="1"/>
        <pt x="431" y="323" on="0"/>
        <pt x="407" y="295" on="0"/>
        <pt x="387" y="295" on="1"/>
        <pt x="366" y="295" on="0"/>
        <pt x="343" y="321" on="0"/>
        <pt x="343" y="345" on="1"/>
        <pt x="343" y="367" on="0"/>
        <pt x="367" y="395" on="0"/>
        <pt x="387" y="395" on="1"/>
        <pt x="408" y="395" on="0"/>
        <pt x="431" y="369" on="0"/>
      </contour>
    </TTGlyph>
    <TTGlyph name="Lslash" xMin="7" yMin="0" xMax="501" yMax="700">
      <contour>
        <pt x="132" y="50" on="1"/>
        <pt x="501" y="50" on="1"/>
        <pt x="501" y="0" on="1"/>
        <pt x="108" y="0" on="1"/>
        <pt x="108" y="700" on="1"/>
        <pt x="158" y="700" on="1"/>
        <pt x="158" y="28" on="1"/>
      </contour>
      <contour>
        <pt x="24" y="291" on="1"/>
        <pt x="7" y="332" on="1"/>
        <pt x="281" y="456" on="1"/>
        <pt x="298" y="414" on="1"/>
      </contour>
    </TTGlyph>
    <TTGlyph name="M" xMin="108" yMin="0" xMax="744" yMax="700">
      <contour>
        <pt x="108" y="700" on="1"/>
        <pt x="156" y="700" on="1"/>
        <pt x="437" y="243" on="1"/>
        <pt x="416" y="243" on="1"/>
        <pt x="701" y="700" on="1"/>
        <pt x="744" y="700" on="1"/>
        <pt x="744" y="0" on="1"/>
        <pt x="694" y="0" on="1"/>
        <pt x="694" y="351" on="1"/>
        <pt x="694" y="441" on="0"/>
        <pt x="697" y="585" on="0"/>
        <pt x="703" y="656" on="1"/>
        <pt x="718" y="637" on="1"/>
        <pt x="445" y="205" on="1"/>
        <pt x="403" y="205" on="1"/>
        <pt x="139" y="631" on="1"/>
        <pt x="149" y="656" on="1"/>
        <pt x="155" y="589" on="0"/>
        <pt x="158" y="448" on="0"/>
        <pt x="158" y="351" on="1"/>
        <pt x="158" y="0" on="1"/>
        <pt x="108" y="0" on="1"/>
      </contour>
    </TTGlyph>
    <TTGlyph name="N" xMin="108" yMin="0" xMax="673" yMax="700">
      <contour>
        <pt x="623" y="417" on="1"/>
        <pt x="623" y="700" on="1"/>
        <pt x="673" y="700" on="1"/>
        <pt x="673" y="0" on="1"/>
        <pt x="625" y="0" on="1"/>
        <pt x="136" y="641" on="1"/>
        <pt x="150" y="669" on="1"/>
        <pt x="152" y="620" on="0"/>
        <pt x="158" y="365" on="0"/>
        <pt x="158" y="344" on="1"/>
        <pt x="158" y="0" on="1"/>
        <pt x="108" y="0" on="1"/>
        <pt x="108" y="700" on="1"/>
        <pt x="154" y="700" on="1"/>
        <pt x="640" y="63" on="1"/>
        <pt x="628" y="37" on="1"/>
        <pt x="624" y="79" on="0"/>
        <pt x="624" y="301" on="0"/>
      </contour>
    </TTGlyph>
    <TTGlyph name="Nacute" xMin="108" yMin="0" xMax="673" yMax="912">
      <contour>
        <pt x="623" y="417" on="1"/>
        <pt x="623" y="700" on="1"/>
        <pt x="673" y="700" on="1"/>
        <pt x="673" y="0" on="1"/>
        <pt x="625" y="0" on="1"/>
        <pt x="136" y="641" on="1"/>
        <pt x="150" y="669" on="1"/>
        <pt x="152" y="620" on="0"/>
        <pt x="158" y="365" on="0"/>
        <pt x="158" y="344" on="1"/>
        <pt x="158" y="0" on="1"/>
        <pt x="108" y="0" on="1"/>
        <pt x="108" y="700" on="1"/>
        <pt x="154" y="700" on="1"/>
        <pt x="640" y="63" on="1"/>
        <pt x="628" y="37" on="1"/>
        <pt x="624" y="79" on="0"/>
        <pt x="624" y="301" on="0"/>
      </contour>
      <contour>
        <pt x="556" y="863" on="1"/>
        <pt x="396" y="770" on="1"/>
        <pt x="375" y="801" on="1"/>
        <pt x="518" y="912" on="1"/>
      </contour>
    </TTGlyph>
    <TTGlyph name="Ncaron" xMin="108" yMin="0" xMax="673" yMax="896">
      <contour>
        <pt x="623" y="417" on="1"/>
        <pt x="623" y="700" on="1"/>
        <pt x="673" y="700" on="1"/>
        <pt x="673" y="0" on="1"/>
        <pt x="625" y="0" on="1"/>
        <pt x="136" y="641" on="1"/>
        <pt x="150" y="669" on="1"/>
        <pt x="152" y="620" on="0"/>
        <pt x="158" y="365" on="0"/>
        <pt x="158" y="344" on="1"/>
        <pt x="158" y="0" on="1"/>
        <pt x="108" y="0" on="1"/>
        <pt x="108" y="700" on="1"/>
        <pt x="154" y="700" on="1"/>
        <pt x="640" y="63" on="1"/>
        <pt x="628" y="37" on="1"/>
        <pt x="624" y="79" on="0"/>
        <pt x="624" y="301" on="0"/>
      </contour>
      <contour>
        <pt x="502" y="896" on="1"/>
        <pt x="376" y="799" on="1"/>
        <pt x="406" y="799" on="1"/>
        <pt x="278" y="896" on="1"/>
        <pt x="250" y="871" on="1"/>
        <pt x="360" y="770" on="1"/>
        <pt x="422" y="770" on="1"/>
        <pt x="530" y="871" on="1"/>
      </contour>
    </TTGlyph>
    <TTGlyph name="Ntilde" xMin="108" yMin="0" xMax="673" yMax="860">
      <contour>
        <pt x="623" y="417" on="1"/>
        <pt x="623" y="700" on="1"/>
        <pt x="673" y="700" on="1"/>
        <pt x="673" y="0" on="1"/>
        <pt x="625" y="0" on="1"/>
        <pt x="136" y="641" on="1"/>
        <pt x="150" y="669" on="1"/>
        <pt x="152" y="620" on="0"/>
        <pt x="158" y="365" on="0"/>
        <pt x="158" y="344" on="1"/>
        <pt x="158" y="0" on="1"/>
        <pt x="108" y="0" on="1"/>
        <pt x="108" y="700" on="1"/>
        <pt x="154" y="700" on="1"/>
        <pt x="640" y="63" on="1"/>
        <pt x="628" y="37" on="1"/>
        <pt x="624" y="79" on="0"/>
        <pt x="624" y="301" on="0"/>
      </contour>
      <contour>
        <pt x="288" y="771" on="1"/>
        <pt x="242" y="771" on="1"/>
        <pt x="242" y="812" on="0"/>
        <pt x="288" y="860" on="0"/>
        <pt x="321" y="860" on="1"/>
        <pt x="343" y="860" on="0"/>
        <pt x="384" y="844" on="0"/>
        <pt x="408" y="833" on="1"/>
        <pt x="420" y="827" on="0"/>
        <pt x="445" y="816" on="0"/>
        <pt x="456" y="816" on="1"/>
        <pt x="471" y="816" on="0"/>
        <pt x="493" y="837" on="0"/>
        <pt x="493" y="859" on="1"/>
        <pt x="539" y="859" on="1"/>
        <pt x="539" y="818" on="0"/>
        <pt x="493" y="770" on="0"/>
        <pt x="460" y="770" on="1"/>
        <pt x="438" y="770" on="0"/>
        <pt x="397" y="786" on="0"/>
        <pt x="373" y="797" on="1"/>
        <pt x="361" y="803" on="0"/>
        <pt x="336" y="814" on="0"/>
        <pt x="325" y="814" on="1"/>
        <pt x="310" y="814" on="0"/>
        <pt x="288" y="792" on="0"/>
      </contour>
    </TTGlyph>
    <TTGlyph name="O" xMin="50" yMin="-10" xMax="737" yMax="705">
      <contour>
        <pt x="393" y="705" on="1"/>
        <pt x="543" y="705" on="0"/>
        <pt x="737" y="503" on="0"/>
        <pt x="737" y="347" on="1"/>
        <pt x="737" y="191" on="0"/>
        <pt x="543" y="-10" on="0"/>
        <pt x="393" y="-10" on="1"/>
        <pt x="243" y="-10" on="0"/>
        <pt x="50" y="191" on="0"/>
        <pt x="50" y="347" on="1"/>
        <pt x="50" y="503" on="0"/>
        <pt x="243" y="705" on="0"/>
      </contour>
      <contour>
        <pt x="393" y="40" on="1"/>
        <pt x="520" y="40" on="0"/>
        <pt x="684" y="213" on="0"/>
        <pt x="684" y="347" on="1"/>
        <pt x="684" y="481" on="0"/>
        <pt x="520" y="655" on="0"/>
        <pt x="393" y="655" on="1"/>
        <pt x="266" y="655" on="0"/>
        <pt x="103" y="481" on="0"/>
        <pt x="103" y="347" on="1"/>
        <pt x="103" y="213" on="0"/>
        <pt x="266" y="40" on="0"/>
      </contour>
    </TTGlyph>
    <TTGlyph name="OE" xMin="50" yMin="0" xMax="939" yMax="700">
      <contour>
        <pt x="50" y="350" on="1"/>
        <pt x="50" y="503" on="0"/>
        <pt x="241" y="700" on="0"/>
        <pt x="376" y="700" on="1"/>
        <pt x="939" y="700" on="1"/>
        <pt x="939" y="650" on="1"/>
        <pt x="552" y="650" on="1"/>
        <pt x="582" y="680" on="1"/>
        <pt x="582" y="356" on="1"/>
        <pt x="552" y="386" on="1"/>
        <pt x="882" y="386" on="1"/>
        <pt x="882" y="336" on="1"/>
        <pt x="552" y="336" on="1"/>
        <pt x="582" y="366" on="1"/>
        <pt x="582" y="20" on="1"/>
        <pt x="552" y="50" on="1"/>
        <pt x="935" y="50" on="1"/>
        <pt x="935" y="0" on="1"/>
        <pt x="376" y="0" on="1"/>
        <pt x="241" y="0" on="0"/>
        <pt x="50" y="197" on="0"/>
      </contour>
      <contour>
        <pt x="562" y="50" on="1"/>
        <pt x="532" y="20" on="1"/>
        <pt x="532" y="680" on="1"/>
        <pt x="562" y="650" on="1"/>
        <pt x="381" y="650" on="1"/>
        <pt x="267" y="650" on="0"/>
        <pt x="103" y="481" on="0"/>
        <pt x="103" y="350" on="1"/>
        <pt x="103" y="219" on="0"/>
        <pt x="267" y="50" on="0"/>
        <pt x="381" y="50" on="1"/>
      </contour>
    </TTGlyph>
    <TTGlyph name="Oacute" xMin="50" yMin="-10" xMax="737" yMax="912">
      <contour>
        <pt x="393" y="705" on="1"/>
        <pt x="543" y="705" on="0"/>
        <pt x="737" y="503" on="0"/>
        <pt x="737" y="347" on="1"/>
        <pt x="737" y="191" on="0"/>
        <pt x="543" y="-10" on="0"/>
        <pt x="393" y="-10" on="1"/>
        <pt x="243" y="-10" on="0"/>
        <pt x="50" y="191" on="0"/>
        <pt x="50" y="347" on="1"/>
        <pt x="50" y="503" on="0"/>
        <pt x="243" y="705" on="0"/>
      </contour>
      <contour>
        <pt x="393" y="40" on="1"/>
        <pt x="520" y="40" on="0"/>
        <pt x="684" y="213" on="0"/>
        <pt x="684" y="347" on="1"/>
        <pt x="684" y="481" on="0"/>
        <pt x="520" y="655" on="0"/>
        <pt x="393" y="655" on="1"/>
        <pt x="266" y="655" on="0"/>
        <pt x="103" y="481" on="0"/>
        <pt x="103" y="347" on="1"/>
        <pt x="103" y="213" on="0"/>
        <pt x="266" y="40" on="0"/>
      </contour>
      <contour>
        <pt x="510" y="863" on="1"/>
        <pt x="350" y="770" on="1"/>
        <pt x="329" y="801" on="1"/>
        <pt x="472" y="912" on="1"/>
      </contour>
    </TTGlyph>
    <TTGlyph name="Obreve" xMin="50" yMin="-10" xMax="737" yMax="907">
      <contour>
        <pt x="393" y="705" on="1"/>
        <pt x="543" y="705" on="0"/>
        <pt x="737" y="503" on="0"/>
        <pt x="737" y="347" on="1"/>
        <pt x="737" y="191" on="0"/>
        <pt x="543" y="-10" on="0"/>
        <pt x="393" y="-10" on="1"/>
        <pt x="243" y="-10" on="0"/>
        <pt x="50" y="191" on="0"/>
        <pt x="50" y="347" on="1"/>
        <pt x="50" y="503" on="0"/>
        <pt x="243" y="705" on="0"/>
      </contour>
      <contour>
        <pt x="393" y="40" on="1"/>
        <pt x="520" y="40" on="0"/>
        <pt x="684" y="213" on="0"/>
        <pt x="684" y="347" on="1"/>
        <pt x="684" y="481" on="0"/>
        <pt x="520" y="655" on="0"/>
        <pt x="393" y="655" on="1"/>
        <pt x="266" y="655" on="0"/>
        <pt x="103" y="481" on="0"/>
        <pt x="103" y="347" on="1"/>
        <pt x="103" y="213" on="0"/>
        <pt x="266" y="40" on="0"/>
      </contour>
      <contour>
        <pt x="394" y="770" on="1"/>
        <pt x="340" y="770" on="0"/>
        <pt x="264" y="841" on="0"/>
        <pt x="252" y="902" on="1"/>
        <pt x="295" y="907" on="1"/>
        <pt x="305" y="862" on="0"/>
        <pt x="360" y="811" on="0"/>
        <pt x="394" y="811" on="1"/>
        <pt x="428" y="811" on="0"/>
        <pt x="483" y="862" on="0"/>
        <pt x="493" y="907" on="1"/>
        <pt x="536" y="902" on="1"/>
        <pt x="524" y="841" on="0"/>
        <pt x="448" y="770" on="0"/>
      </contour>
    </TTGlyph>
    <TTGlyph name="Ocircumflex" xMin="50" yMin="-10" xMax="737" yMax="896">
      <contour>
        <pt x="393" y="705" on="1"/>
        <pt x="543" y="705" on="0"/>
        <pt x="737" y="503" on="0"/>
        <pt x="737" y="347" on="1"/>
        <pt x="737" y="191" on="0"/>
        <pt x="543" y="-10" on="0"/>
        <pt x="393" y="-10" on="1"/>
        <pt x="243" y="-10" on="0"/>
        <pt x="50" y="191" on="0"/>
        <pt x="50" y="347" on="1"/>
        <pt x="50" y="503" on="0"/>
        <pt x="243" y="705" on="0"/>
      </contour>
      <contour>
        <pt x="393" y="40" on="1"/>
        <pt x="520" y="40" on="0"/>
        <pt x="684" y="213" on="0"/>
        <pt x="684" y="347" on="1"/>
        <pt x="684" y="481" on="0"/>
        <pt x="520" y="655" on="0"/>
        <pt x="393" y="655" on="1"/>
        <pt x="266" y="655" on="0"/>
        <pt x="103" y="481" on="0"/>
        <pt x="103" y="347" on="1"/>
        <pt x="103" y="213" on="0"/>
        <pt x="266" y="40" on="0"/>
      </contour>
      <contour>
        <pt x="516" y="770" on="1"/>
        <pt x="379" y="865" on="1"/>
        <pt x="409" y="865" on="1"/>
        <pt x="272" y="770" on="1"/>
        <pt x="244" y="795" on="1"/>
        <pt x="363" y="896" on="1"/>
        <pt x="425" y="896" on="1"/>
        <pt x="544" y="795" on="1"/>
      </contour>
    </TTGlyph>
    <TTGlyph name="Odieresis" xMin="50" yMin="-10" xMax="737" yMax="860">
      <contour>
        <pt x="393" y="705" on="1"/>
        <pt x="543" y="705" on="0"/>
        <pt x="737" y="503" on="0"/>
        <pt x="737" y="347" on="1"/>
        <pt x="737" y="191" on="0"/>
        <pt x="543" y="-10" on="0"/>
        <pt x="393" y="-10" on="1"/>
        <pt x="243" y="-10" on="0"/>
        <pt x="50" y="191" on="0"/>
        <pt x="50" y="347" on="1"/>
        <pt x="50" y="503" on="0"/>
        <pt x="243" y="705" on="0"/>
      </contour>
      <contour>
        <pt x="393" y="40" on="1"/>
        <pt x="520" y="40" on="0"/>
        <pt x="684" y="213" on="0"/>
        <pt x="684" y="347" on="1"/>
        <pt x="684" y="481" on="0"/>
        <pt x="520" y="655" on="0"/>
        <pt x="393" y="655" on="1"/>
        <pt x="266" y="655" on="0"/>
        <pt x="103" y="481" on="0"/>
        <pt x="103" y="347" on="1"/>
        <pt x="103" y="213" on="0"/>
        <pt x="266" y="40" on="0"/>
      </contour>
      <contour>
        <pt x="340" y="815" on="1"/>
        <pt x="340" y="795" on="0"/>
        <pt x="316" y="770" on="0"/>
        <pt x="294" y="770" on="1"/>
        <pt x="272" y="770" on="0"/>
        <pt x="248" y="794" on="0"/>
        <pt x="248" y="815" on="1"/>
        <pt x="248" y="835" on="0"/>
        <pt x="272" y="860" on="0"/>
        <pt x="294" y="860" on="1"/>
        <pt x="316" y="860" on="0"/>
        <pt x="340" y="836" on="0"/>
      </contour>
      <contour>
        <pt x="540" y="815" on="1"/>
        <pt x="540" y="795" on="0"/>
        <pt x="516" y="770" on="0"/>
        <pt x="494" y="770" on="1"/>
        <pt x="472" y="770" on="0"/>
        <pt x="448" y="794" on="0"/>
        <pt x="448" y="815" on="1"/>
        <pt x="448" y="835" on="0"/>
        <pt x="472" y="860" on="0"/>
        <pt x="494" y="860" on="1"/>
        <pt x="516" y="860" on="0"/>
        <pt x="540" y="836" on="0"/>
      </contour>
    </TTGlyph>
    <TTGlyph name="Ograve" xMin="50" yMin="-10" xMax="737" yMax="912">
      <contour>
        <pt x="393" y="705" on="1"/>
        <pt x="543" y="705" on="0"/>
        <pt x="737" y="503" on="0"/>
        <pt x="737" y="347" on="1"/>
        <pt x="737" y="191" on="0"/>
        <pt x="543" y="-10" on="0"/>
        <pt x="393" y="-10" on="1"/>
        <pt x="243" y="-10" on="0"/>
        <pt x="50" y="191" on="0"/>
        <pt x="50" y="347" on="1"/>
        <pt x="50" y="503" on="0"/>
        <pt x="243" y="705" on="0"/>
      </contour>
      <contour>
        <pt x="393" y="40" on="1"/>
        <pt x="520" y="40" on="0"/>
        <pt x="684" y="213" on="0"/>
        <pt x="684" y="347" on="1"/>
        <pt x="684" y="481" on="0"/>
        <pt x="520" y="655" on="0"/>
        <pt x="393" y="655" on="1"/>
        <pt x="266" y="655" on="0"/>
        <pt x="103" y="481" on="0"/>
        <pt x="103" y="347" on="1"/>
        <pt x="103" y="213" on="0"/>
        <pt x="266" y="40" on="0"/>
      </contour>
      <contour>
        <pt x="458" y="801" on="1"/>
        <pt x="437" y="770" on="1"/>
        <pt x="277" y="863" on="1"/>
        <pt x="315" y="912" on="1"/>
      </contour>
    </TTGlyph>
    <TTGlyph name="Ohorn" xMin="50" yMin="-10" xMax="737" yMax="796">
      <contour>
        <pt x="393" y="705" on="1"/>
        <pt x="543" y="705" on="0"/>
        <pt x="737" y="503" on="0"/>
        <pt x="737" y="347" on="1"/>
        <pt x="737" y="191" on="0"/>
        <pt x="543" y="-10" on="0"/>
        <pt x="393" y="-10" on="1"/>
        <pt x="243" y="-10" on="0"/>
        <pt x="50" y="191" on="0"/>
        <pt x="50" y="347" on="1"/>
        <pt x="50" y="503" on="0"/>
        <pt x="243" y="705" on="0"/>
      </contour>
      <contour>
        <pt x="393" y="40" on="1"/>
        <pt x="520" y="40" on="0"/>
        <pt x="684" y="213" on="0"/>
        <pt x="684" y="347" on="1"/>
        <pt x="684" y="481" on="0"/>
        <pt x="520" y="655" on="0"/>
        <pt x="393" y="655" on="1"/>
        <pt x="266" y="655" on="0"/>
        <pt x="103" y="481" on="0"/>
        <pt x="103" y="347" on="1"/>
        <pt x="103" y="213" on="0"/>
        <pt x="266" y="40" on="0"/>
      </contour>
      <contour>
        <pt x="488" y="650" on="1"/>
        <pt x="488" y="687" on="1"/>
        <pt x="550" y="687" on="0"/>
        <pt x="611" y="742" on="0"/>
        <pt x="611" y="796" on="1"/>
        <pt x="659" y="796" on="1"/>
        <pt x="659" y="729" on="0"/>
        <pt x="569" y="650" on="0"/>
      </contour>
    </TTGlyph>
    <TTGlyph name="Ohungarumlaut" xMin="50" yMin="-10" xMax="737" yMax="915">
      <contour>
        <pt x="393" y="705" on="1"/>
        <pt x="543" y="705" on="0"/>
        <pt x="737" y="503" on="0"/>
        <pt x="737" y="347" on="1"/>
        <pt x="737" y="191" on="0"/>
        <pt x="543" y="-10" on="0"/>
        <pt x="393" y="-10" on="1"/>
        <pt x="243" y="-10" on="0"/>
        <pt x="50" y="191" on="0"/>
        <pt x="50" y="347" on="1"/>
        <pt x="50" y="503" on="0"/>
        <pt x="243" y="705" on="0"/>
      </contour>
      <contour>
        <pt x="393" y="40" on="1"/>
        <pt x="520" y="40" on="0"/>
        <pt x="684" y="213" on="0"/>
        <pt x="684" y="347" on="1"/>
        <pt x="684" y="481" on="0"/>
        <pt x="520" y="655" on="0"/>
        <pt x="393" y="655" on="1"/>
        <pt x="266" y="655" on="0"/>
        <pt x="103" y="481" on="0"/>
        <pt x="103" y="347" on="1"/>
        <pt x="103" y="213" on="0"/>
        <pt x="266" y="40" on="0"/>
      </contour>
      <contour>
        <pt x="448" y="870" on="1"/>
        <pt x="294" y="769" on="1"/>
        <pt x="273" y="800" on="1"/>
        <pt x="415" y="915" on="1"/>
      </contour>
      <contour>
        <pt x="598" y="870" on="1"/>
        <pt x="444" y="769" on="1"/>
        <pt x="423" y="800" on="1"/>
        <pt x="565" y="915" on="1"/>
      </contour>
    </TTGlyph>
    <TTGlyph name="Omacron" xMin="50" yMin="-10" xMax="737" yMax="816">
      <contour>
        <pt x="393" y="705" on="1"/>
        <pt x="543" y="705" on="0"/>
        <pt x="737" y="503" on="0"/>
        <pt x="737" y="347" on="1"/>
        <pt x="737" y="191" on="0"/>
        <pt x="543" y="-10" on="0"/>
        <pt x="393" y="-10" on="1"/>
        <pt x="243" y="-10" on="0"/>
        <pt x="50" y="191" on="0"/>
        <pt x="50" y="347" on="1"/>
        <pt x="50" y="503" on="0"/>
        <pt x="243" y="705" on="0"/>
      </contour>
      <contour>
        <pt x="393" y="40" on="1"/>
        <pt x="520" y="40" on="0"/>
        <pt x="684" y="213" on="0"/>
        <pt x="684" y="347" on="1"/>
        <pt x="684" y="481" on="0"/>
        <pt x="520" y="655" on="0"/>
        <pt x="393" y="655" on="1"/>
        <pt x="266" y="655" on="0"/>
        <pt x="103" y="481" on="0"/>
        <pt x="103" y="347" on="1"/>
        <pt x="103" y="213" on="0"/>
        <pt x="266" y="40" on="0"/>
      </contour>
      <contour>
        <pt x="536" y="770" on="1"/>
        <pt x="252" y="770" on="1"/>
        <pt x="252" y="816" on="1"/>
        <pt x="536" y="816" on="1"/>
      </contour>
    </TTGlyph>
    <TTGlyph name="Oslash" xMin="50" yMin="-30" xMax="737" yMax="725">
      <contour>
        <pt x="114" y="-30" on="1"/>
        <pt x="80" y="2" on="1"/>
        <pt x="671" y="725" on="1"/>
        <pt x="705" y="693" on="1"/>
      </contour>
      <contour>
        <pt x="393" y="705" on="1"/>
        <pt x="543" y="705" on="0"/>
        <pt x="737" y="503" on="0"/>
        <pt x="737" y="347" on="1"/>
        <pt x="737" y="191" on="0"/>
        <pt x="543" y="-10" on="0"/>
        <pt x="393" y="-10" on="1"/>
        <pt x="243" y="-10" on="0"/>
        <pt x="50" y="191" on="0"/>
        <pt x="50" y="347" on="1"/>
        <pt x="50" y="503" on="0"/>
        <pt x="243" y="705" on="0"/>
      </contour>
      <contour>
        <pt x="393" y="40" on="1"/>
        <pt x="520" y="40" on="0"/>
        <pt x="684" y="213" on="0"/>
        <pt x="684" y="347" on="1"/>
        <pt x="684" y="481" on="0"/>
        <pt x="520" y="655" on="0"/>
        <pt x="393" y="655" on="1"/>
        <pt x="266" y="655" on="0"/>
        <pt x="103" y="481" on="0"/>
        <pt x="103" y="347" on="1"/>
        <pt x="103" y="213" on="0"/>
        <pt x="266" y="40" on="0"/>
      </contour>
    </TTGlyph>
    <TTGlyph name="Oslashacute" xMin="50" yMin="-30" xMax="737" yMax="912">
      <contour>
        <pt x="114" y="-30" on="1"/>
        <pt x="80" y="2" on="1"/>
        <pt x="671" y="725" on="1"/>
        <pt x="705" y="693" on="1"/>
      </contour>
      <contour>
        <pt x="393" y="705" on="1"/>
        <pt x="543" y="705" on="0"/>
        <pt x="737" y="503" on="0"/>
        <pt x="737" y="347" on="1"/>
        <pt x="737" y="191" on="0"/>
        <pt x="543" y="-10" on="0"/>
        <pt x="393" y="-10" on="1"/>
        <pt x="243" y="-10" on="0"/>
        <pt x="50" y="191" on="0"/>
        <pt x="50" y="347" on="1"/>
        <pt x="50" y="503" on="0"/>
        <pt x="243" y="705" on="0"/>
      </contour>
      <contour>
        <pt x="393" y="40" on="1"/>
        <pt x="520" y="40" on="0"/>
        <pt x="684" y="213" on="0"/>
        <pt x="684" y="347" on="1"/>
        <pt x="684" y="481" on="0"/>
        <pt x="520" y="655" on="0"/>
        <pt x="393" y="655" on="1"/>
        <pt x="266" y="655" on="0"/>
        <pt x="103" y="481" on="0"/>
        <pt x="103" y="347" on="1"/>
        <pt x="103" y="213" on="0"/>
        <pt x="266" y="40" on="0"/>
      </contour>
      <contour>
        <pt x="510" y="863" on="1"/>
        <pt x="350" y="770" on="1"/>
        <pt x="329" y="801" on="1"/>
        <pt x="472" y="912" on="1"/>
      </contour>
    </TTGlyph>
    <TTGlyph name="Otilde" xMin="50" yMin="-10" xMax="737" yMax="860">
      <contour>
        <pt x="393" y="705" on="1"/>
        <pt x="543" y="705" on="0"/>
        <pt x="737" y="503" on="0"/>
        <pt x="737" y="347" on="1"/>
        <pt x="737" y="191" on="0"/>
        <pt x="543" y="-10" on="0"/>
        <pt x="393" y="-10" on="1"/>
        <pt x="243" y="-10" on="0"/>
        <pt x="50" y="191" on="0"/>
        <pt x="50" y="347" on="1"/>
        <pt x="50" y="503" on="0"/>
        <pt x="243" y="705" on="0"/>
      </contour>
      <contour>
        <pt x="393" y="40" on="1"/>
        <pt x="520" y="40" on="0"/>
        <pt x="684" y="213" on="0"/>
        <pt x="684" y="347" on="1"/>
        <pt x="684" y="481" on="0"/>
        <pt x="520" y="655" on="0"/>
        <pt x="393" y="655" on="1"/>
        <pt x="266" y="655" on="0"/>
        <pt x="103" y="481" on="0"/>
        <pt x="103" y="347" on="1"/>
        <pt x="103" y="213" on="0"/>
        <pt x="266" y="40" on="0"/>
      </contour>
      <contour>
        <pt x="292" y="771" on="1"/>
        <pt x="246" y="771" on="1"/>
        <pt x="246" y="812" on="0"/>
        <pt x="292" y="860" on="0"/>
        <pt x="324" y="860" on="1"/>
        <pt x="346" y="860" on="0"/>
        <pt x="388" y="844" on="0"/>
        <pt x="412" y="833" on="1"/>
        <pt x="423" y="827" on="0"/>
        <pt x="449" y="816" on="0"/>
        <pt x="460" y="816" on="1"/>
        <pt x="474" y="816" on="0"/>
        <pt x="496" y="837" on="0"/>
        <pt x="496" y="859" on="1"/>
        <pt x="542" y="859" on="1"/>
        <pt x="542" y="818" on="0"/>
        <pt x="496" y="770" on="0"/>
        <pt x="464" y="770" on="1"/>
        <pt x="442" y="770" on="0"/>
        <pt x="400" y="786" on="0"/>
        <pt x="376" y="797" on="1"/>
        <pt x="365" y="803" on="0"/>
        <pt x="339" y="814" on="0"/>
        <pt x="328" y="814" on="1"/>
        <pt x="314" y="814" on="0"/>
        <pt x="292" y="792" on="0"/>
      </contour>
    </TTGlyph>
    <TTGlyph name="P" xMin="108" yMin="0" xMax="561" yMax="700">
      <contour>
        <pt x="108" y="700" on="1"/>
        <pt x="377" y="700" on="1"/>
        <pt x="457" y="700" on="0"/>
        <pt x="561" y="586" on="0"/>
        <pt x="561" y="498" on="1"/>
        <pt x="561" y="404" on="0"/>
        <pt x="457" y="283" on="0"/>
        <pt x="377" y="283" on="1"/>
        <pt x="142" y="283" on="1"/>
        <pt x="158" y="305" on="1"/>
        <pt x="158" y="0" on="1"/>
        <pt x="108" y="0" on="1"/>
      </contour>
      <contour>
        <pt x="141" y="333" on="1"/>
        <pt x="386" y="333" on="1"/>
        <pt x="439" y="333" on="0"/>
        <pt x="508" y="427" on="0"/>
        <pt x="508" y="500" on="1"/>
        <pt x="508" y="565" on="0"/>
        <pt x="439" y="650" on="0"/>
        <pt x="386" y="650" on="1"/>
        <pt x="141" y="650" on="1"/>
        <pt x="158" y="671" on="1"/>
        <pt x="158" y="321" on="1"/>
      </contour>
    </TTGlyph>
    <TTGlyph name="Q" xMin="50" yMin="-96" xMax="737" yMax="705">
      <contour>
        <pt x="393" y="705" on="1"/>
        <pt x="543" y="705" on="0"/>
        <pt x="737" y="503" on="0"/>
        <pt x="737" y="347" on="1"/>
        <pt x="737" y="191" on="0"/>
        <pt x="543" y="-10" on="0"/>
        <pt x="393" y="-10" on="1"/>
        <pt x="243" y="-10" on="0"/>
        <pt x="50" y="191" on="0"/>
        <pt x="50" y="347" on="1"/>
        <pt x="50" y="503" on="0"/>
        <pt x="243" y="705" on="0"/>
      </contour>
      <contour>
        <pt x="393" y="40" on="1"/>
        <pt x="520" y="40" on="0"/>
        <pt x="684" y="213" on="0"/>
        <pt x="684" y="347" on="1"/>
        <pt x="684" y="481" on="0"/>
        <pt x="520" y="655" on="0"/>
        <pt x="393" y="655" on="1"/>
        <pt x="266" y="655" on="0"/>
        <pt x="103" y="481" on="0"/>
        <pt x="103" y="347" on="1"/>
        <pt x="103" y="213" on="0"/>
        <pt x="266" y="40" on="0"/>
      </contour>
      <contour>
        <pt x="450" y="258" on="1"/>
        <pt x="699" y="-67" on="1"/>
        <pt x="659" y="-96" on="1"/>
        <pt x="411" y="231" on="1"/>
      </contour>
    </TTGlyph>
    <TTGlyph name="R" xMin="108" yMin="0" xMax="602" yMax="700">
      <contour>
        <pt x="575" y="489" on="1"/>
        <pt x="575" y="399" on="0"/>
        <pt x="459" y="288" on="0"/>
        <pt x="370" y="288" on="1"/>
        <pt x="133" y="288" on="1"/>
        <pt x="133" y="338" on="1"/>
        <pt x="376" y="338" on="1"/>
        <pt x="440" y="338" on="0"/>
        <pt x="522" y="422" on="0"/>
        <pt x="522" y="487" on="1"/>
        <pt x="522" y="558" on="0"/>
        <pt x="429" y="650" on="0"/>
        <pt x="357" y="650" on="1"/>
        <pt x="133" y="650" on="1"/>
        <pt x="158" y="679" on="1"/>
        <pt x="158" y="0" on="1"/>
        <pt x="108" y="0" on="1"/>
        <pt x="108" y="700" on="1"/>
        <pt x="360" y="700" on="1"/>
        <pt x="453" y="700" on="0"/>
        <pt x="575" y="579" on="0"/>
      </contour>
      <contour>
        <pt x="370" y="301" on="1"/>
        <pt x="412" y="327" on="1"/>
        <pt x="602" y="0" on="1"/>
        <pt x="544" y="0" on="1"/>
      </contour>
    </TTGlyph>
    <TTGlyph name="Racute" xMin="108" yMin="0" xMax="602" yMax="912">
      <contour>
        <pt x="575" y="489" on="1"/>
        <pt x="575" y="399" on="0"/>
        <pt x="459" y="288" on="0"/>
        <pt x="370" y="288" on="1"/>
        <pt x="133" y="288" on="1"/>
        <pt x="133" y="338" on="1"/>
        <pt x="376" y="338" on="1"/>
        <pt x="440" y="338" on="0"/>
        <pt x="522" y="422" on="0"/>
        <pt x="522" y="487" on="1"/>
        <pt x="522" y="558" on="0"/>
        <pt x="429" y="650" on="0"/>
        <pt x="357" y="650" on="1"/>
        <pt x="133" y="650" on="1"/>
        <pt x="158" y="679" on="1"/>
        <pt x="158" y="0" on="1"/>
        <pt x="108" y="0" on="1"/>
        <pt x="108" y="700" on="1"/>
        <pt x="360" y="700" on="1"/>
        <pt x="453" y="700" on="0"/>
        <pt x="575" y="579" on="0"/>
      </contour>
      <contour>
        <pt x="370" y="301" on="1"/>
        <pt x="412" y="327" on="1"/>
        <pt x="602" y="0" on="1"/>
        <pt x="544" y="0" on="1"/>
      </contour>
      <contour>
        <pt x="446" y="863" on="1"/>
        <pt x="286" y="770" on="1"/>
        <pt x="264" y="801" on="1"/>
        <pt x="408" y="912" on="1"/>
      </contour>
    </TTGlyph>
    <TTGlyph name="Rcaron" xMin="108" yMin="0" xMax="602" yMax="896">
      <contour>
        <pt x="575" y="489" on="1"/>
        <pt x="575" y="399" on="0"/>
        <pt x="459" y="288" on="0"/>
        <pt x="370" y="288" on="1"/>
        <pt x="133" y="288" on="1"/>
        <pt x="133" y="338" on="1"/>
        <pt x="376" y="338" on="1"/>
        <pt x="440" y="338" on="0"/>
        <pt x="522" y="422" on="0"/>
        <pt x="522" y="487" on="1"/>
        <pt x="522" y="558" on="0"/>
        <pt x="429" y="650" on="0"/>
        <pt x="357" y="650" on="1"/>
        <pt x="133" y="650" on="1"/>
        <pt x="158" y="679" on="1"/>
        <pt x="158" y="0" on="1"/>
        <pt x="108" y="0" on="1"/>
        <pt x="108" y="700" on="1"/>
        <pt x="360" y="700" on="1"/>
        <pt x="453" y="700" on="0"/>
        <pt x="575" y="579" on="0"/>
      </contour>
      <contour>
        <pt x="370" y="301" on="1"/>
        <pt x="412" y="327" on="1"/>
        <pt x="602" y="0" on="1"/>
        <pt x="544" y="0" on="1"/>
      </contour>
      <contour>
        <pt x="452" y="896" on="1"/>
        <pt x="325" y="799" on="1"/>
        <pt x="355" y="799" on="1"/>
        <pt x="228" y="896" on="1"/>
        <pt x="200" y="871" on="1"/>
        <pt x="309" y="770" on="1"/>
        <pt x="371" y="770" on="1"/>
        <pt x="480" y="871" on="1"/>
      </contour>
    </TTGlyph>
    <TTGlyph name="S" xMin="54" yMin="-10" xMax="540" yMax="705">
      <contour>
        <pt x="54" y="122" on="1"/>
        <pt x="90" y="159" on="1"/>
        <pt x="134" y="95" on="0"/>
        <pt x="242" y="40" on="0"/>
        <pt x="303" y="40" on="1"/>
        <pt x="383" y="40" on="0"/>
        <pt x="489" y="121" on="0"/>
        <pt x="489" y="183" on="1"/>
        <pt x="489" y="252" on="0"/>
        <pt x="378" y="308" on="0"/>
        <pt x="290" y="333" on="1"/>
        <pt x="194" y="360" on="0"/>
        <pt x="87" y="436" on="0"/>
        <pt x="87" y="519" on="1"/>
        <pt x="87" y="600" on="0"/>
        <pt x="213" y="705" on="0"/>
        <pt x="305" y="705" on="1"/>
        <pt x="386" y="705" on="0"/>
        <pt x="490" y="637" on="0"/>
        <pt x="527" y="580" on="1"/>
        <pt x="490" y="544" on="1"/>
        <pt x="457" y="595" on="0"/>
        <pt x="368" y="655" on="0"/>
        <pt x="305" y="655" on="1"/>
        <pt x="233" y="655" on="0"/>
        <pt x="138" y="578" on="0"/>
        <pt x="138" y="518" on="1"/>
        <pt x="138" y="461" on="0"/>
        <pt x="225" y="404" on="0"/>
        <pt x="321" y="380" on="1"/>
        <pt x="419" y="355" on="0"/>
        <pt x="540" y="273" on="0"/>
        <pt x="540" y="186" on="1"/>
        <pt x="540" y="102" on="0"/>
        <pt x="405" y="-10" on="0"/>
        <pt x="301" y="-10" on="1"/>
        <pt x="226" y="-10" on="0"/>
        <pt x="98" y="58" on="0"/>
      </contour>
    </TTGlyph>
    <TTGlyph name="Sacute" xMin="54" yMin="-10" xMax="540" yMax="912">
      <contour>
        <pt x="54" y="122" on="1"/>
        <pt x="90" y="159" on="1"/>
        <pt x="134" y="95" on="0"/>
        <pt x="242" y="40" on="0"/>
        <pt x="303" y="40" on="1"/>
        <pt x="383" y="40" on="0"/>
        <pt x="489" y="121" on="0"/>
        <pt x="489" y="183" on="1"/>
        <pt x="489" y="252" on="0"/>
        <pt x="378" y="308" on="0"/>
        <pt x="290" y="333" on="1"/>
        <pt x="194" y="360" on="0"/>
        <pt x="87" y="436" on="0"/>
        <pt x="87" y="519" on="1"/>
        <pt x="87" y="600" on="0"/>
        <pt x="213" y="705" on="0"/>
        <pt x="305" y="705" on="1"/>
        <pt x="386" y="705" on="0"/>
        <pt x="490" y="637" on="0"/>
        <pt x="527" y="580" on="1"/>
        <pt x="490" y="544" on="1"/>
        <pt x="457" y="595" on="0"/>
        <pt x="368" y="655" on="0"/>
        <pt x="305" y="655" on="1"/>
        <pt x="233" y="655" on="0"/>
        <pt x="138" y="578" on="0"/>
        <pt x="138" y="518" on="1"/>
        <pt x="138" y="461" on="0"/>
        <pt x="225" y="404" on="0"/>
        <pt x="321" y="380" on="1"/>
        <pt x="419" y="355" on="0"/>
        <pt x="540" y="273" on="0"/>
        <pt x="540" y="186" on="1"/>
        <pt x="540" y="102" on="0"/>
        <pt x="405" y="-10" on="0"/>
        <pt x="301" y="-10" on="1"/>
        <pt x="226" y="-10" on="0"/>
        <pt x="98" y="58" on="0"/>
      </contour>
      <contour>
        <pt x="421" y="863" on="1"/>
        <pt x="261" y="770" on="1"/>
        <pt x="240" y="801" on="1"/>
        <pt x="383" y="912" on="1"/>
      </contour>
    </TTGlyph>
    <TTGlyph name="Scaron" xMin="54" yMin="-10" xMax="540" yMax="896">
      <contour>
        <pt x="54" y="122" on="1"/>
        <pt x="90" y="159" on="1"/>
        <pt x="134" y="95" on="0"/>
        <pt x="242" y="40" on="0"/>
        <pt x="303" y="40" on="1"/>
        <pt x="383" y="40" on="0"/>
        <pt x="489" y="121" on="0"/>
        <pt x="489" y="183" on="1"/>
        <pt x="489" y="252" on="0"/>
        <pt x="378" y="308" on="0"/>
        <pt x="290" y="333" on="1"/>
        <pt x="194" y="360" on="0"/>
        <pt x="87" y="436" on="0"/>
        <pt x="87" y="519" on="1"/>
        <pt x="87" y="600" on="0"/>
        <pt x="213" y="705" on="0"/>
        <pt x="305" y="705" on="1"/>
        <pt x="386" y="705" on="0"/>
        <pt x="490" y="637" on="0"/>
        <pt x="527" y="580" on="1"/>
        <pt x="490" y="544" on="1"/>
        <pt x="457" y="595" on="0"/>
        <pt x="368" y="655" on="0"/>
        <pt x="305" y="655" on="1"/>
        <pt x="233" y="655" on="0"/>
        <pt x="138" y="578" on="0"/>
        <pt x="138" y="518" on="1"/>
        <pt x="138" y="461" on="0"/>
        <pt x="225" y="404" on="0"/>
        <pt x="321" y="380" on="1"/>
        <pt x="419" y="355" on="0"/>
        <pt x="540" y="273" on="0"/>
        <pt x="540" y="186" on="1"/>
        <pt x="540" y="102" on="0"/>
        <pt x="405" y="-10" on="0"/>
        <pt x="301" y="-10" on="1"/>
        <pt x="226" y="-10" on="0"/>
        <pt x="98" y="58" on="0"/>
      </contour>
      <contour>
        <pt x="424" y="896" on="1"/>
        <pt x="297" y="799" on="1"/>
        <pt x="327" y="799" on="1"/>
        <pt x="200" y="896" on="1"/>
        <pt x="172" y="871" on="1"/>
        <pt x="281" y="770" on="1"/>
        <pt x="343" y="770" on="1"/>
        <pt x="452" y="871" on="1"/>
      </contour>
    </TTGlyph>
    <TTGlyph name="Scedilla" xMin="54" yMin="-230" xMax="540" yMax="705">
      <contour>
        <pt x="54" y="122" on="1"/>
        <pt x="90" y="159" on="1"/>
        <pt x="134" y="95" on="0"/>
        <pt x="242" y="40" on="0"/>
        <pt x="303" y="40" on="1"/>
        <pt x="383" y="40" on="0"/>
        <pt x="489" y="121" on="0"/>
        <pt x="489" y="183" on="1"/>
        <pt x="489" y="252" on="0"/>
        <pt x="378" y="308" on="0"/>
        <pt x="290" y="333" on="1"/>
        <pt x="194" y="360" on="0"/>
        <pt x="87" y="436" on="0"/>
        <pt x="87" y="519" on="1"/>
        <pt x="87" y="600" on="0"/>
        <pt x="213" y="705" on="0"/>
        <pt x="305" y="705" on="1"/>
        <pt x="386" y="705" on="0"/>
        <pt x="490" y="637" on="0"/>
        <pt x="527" y="580" on="1"/>
        <pt x="490" y="544" on="1"/>
        <pt x="457" y="595" on="0"/>
        <pt x="368" y="655" on="0"/>
        <pt x="305" y="655" on="1"/>
        <pt x="233" y="655" on="0"/>
        <pt x="138" y="578" on="0"/>
        <pt x="138" y="518" on="1"/>
        <pt x="138" y="461" on="0"/>
        <pt x="225" y="404" on="0"/>
        <pt x="321" y="380" on="1"/>
        <pt x="419" y="355" on="0"/>
        <pt x="540" y="273" on="0"/>
        <pt x="540" y="186" on="1"/>
        <pt x="540" y="102" on="0"/>
        <pt x="405" y="-10" on="0"/>
        <pt x="301" y="-10" on="1"/>
        <pt x="226" y="-10" on="0"/>
        <pt x="98" y="58" on="0"/>
      </contour>
      <contour>
        <pt x="292" y="-93" on="1"/>
        <pt x="252" y="-86" on="1"/>
        <pt x="312" y="6" on="1"/>
        <pt x="356" y="6" on="1"/>
      </contour>
      <contour>
        <pt x="406" y="-135" on="1"/>
        <pt x="406" y="-157" on="0"/>
        <pt x="377" y="-200" on="0"/>
        <pt x="352" y="-211" on="1"/>
        <pt x="328" y="-221" on="0"/>
        <pt x="279" y="-230" on="0"/>
        <pt x="246" y="-230" on="1"/>
        <pt x="239" y="-197" on="1"/>
        <pt x="284" y="-195" on="0"/>
        <pt x="358" y="-168" on="0"/>
        <pt x="358" y="-140" on="1"/>
        <pt x="358" y="-122" on="0"/>
        <pt x="313" y="-96" on="0"/>
        <pt x="265" y="-96" on="1"/>
        <pt x="252" y="-88" on="1"/>
        <pt x="252" y="-86" on="1"/>
        <pt x="291" y="-57" on="1"/>
        <pt x="348" y="-63" on="0"/>
        <pt x="406" y="-103" on="0"/>
      </contour>
    </TTGlyph>
    <TTGlyph name="Scircumflex" xMin="54" yMin="-10" xMax="540" yMax="896">
      <contour>
        <pt x="54" y="122" on="1"/>
        <pt x="90" y="159" on="1"/>
        <pt x="134" y="95" on="0"/>
        <pt x="242" y="40" on="0"/>
        <pt x="303" y="40" on="1"/>
        <pt x="383" y="40" on="0"/>
        <pt x="489" y="121" on="0"/>
        <pt x="489" y="183" on="1"/>
        <pt x="489" y="252" on="0"/>
        <pt x="378" y="308" on="0"/>
        <pt x="290" y="333" on="1"/>
        <pt x="194" y="360" on="0"/>
        <pt x="87" y="436" on="0"/>
        <pt x="87" y="519" on="1"/>
        <pt x="87" y="600" on="0"/>
        <pt x="213" y="705" on="0"/>
        <pt x="305" y="705" on="1"/>
        <pt x="386" y="705" on="0"/>
        <pt x="490" y="637" on="0"/>
        <pt x="527" y="580" on="1"/>
        <pt x="490" y="544" on="1"/>
        <pt x="457" y="595" on="0"/>
        <pt x="368" y="655" on="0"/>
        <pt x="305" y="655" on="1"/>
        <pt x="233" y="655" on="0"/>
        <pt x="138" y="578" on="0"/>
        <pt x="138" y="518" on="1"/>
        <pt x="138" y="461" on="0"/>
        <pt x="225" y="404" on="0"/>
        <pt x="321" y="380" on="1"/>
        <pt x="419" y="355" on="0"/>
        <pt x="540" y="273" on="0"/>
        <pt x="540" y="186" on="1"/>
        <pt x="540" y="102" on="0"/>
        <pt x="405" y="-10" on="0"/>
        <pt x="301" y="-10" on="1"/>
        <pt x="226" y="-10" on="0"/>
        <pt x="98" y="58" on="0"/>
      </contour>
      <contour>
        <pt x="435" y="770" on="1"/>
        <pt x="298" y="865" on="1"/>
        <pt x="328" y="865" on="1"/>
        <pt x="191" y="770" on="1"/>
        <pt x="163" y="795" on="1"/>
        <pt x="282" y="896" on="1"/>
        <pt x="344" y="896" on="1"/>
        <pt x="463" y="795" on="1"/>
      </contour>
    </TTGlyph>
    <TTGlyph name="T" xMin="25" yMin="0" xMax="492" yMax="700">
      <contour>
        <pt x="280" y="0" on="1"/>
        <pt x="230" y="0" on="1"/>
        <pt x="230" y="676" on="1"/>
        <pt x="280" y="676" on="1"/>
      </contour>
      <contour>
        <pt x="492" y="650" on="1"/>
        <pt x="25" y="650" on="1"/>
        <pt x="25" y="700" on="1"/>
        <pt x="492" y="700" on="1"/>
      </contour>
    </TTGlyph>
    <TTGlyph name="Tbar" xMin="25" yMin="0" xMax="492" yMax="700">
      <contour>
        <pt x="280" y="0" on="1"/>
        <pt x="230" y="0" on="1"/>
        <pt x="230" y="676" on="1"/>
        <pt x="280" y="676" on="1"/>
      </contour>
      <contour>
        <pt x="492" y="650" on="1"/>
        <pt x="25" y="650" on="1"/>
        <pt x="25" y="700" on="1"/>
        <pt x="492" y="700" on="1"/>
      </contour>
      <contour>
        <pt x="392" y="328" on="1"/>
        <pt x="124" y="328" on="1"/>
        <pt x="124" y="372" on="1"/>
        <pt x="392" y="372" on="1"/>
      </contour>
    </TTGlyph>
    <TTGlyph name="Tcaron" xMin="25" yMin="0" xMax="492" yMax="896">
      <contour>
        <pt x="280" y="0" on="1"/>
        <pt x="230" y="0" on="1"/>
        <pt x="230" y="676" on="1"/>
        <pt x="280" y="676" on="1"/>
      </contour>
      <contour>
        <pt x="492" y="650" on="1"/>
        <pt x="25" y="650" on="1"/>
        <pt x="25" y="700" on="1"/>
        <pt x="492" y="700" on="1"/>
      </contour>
      <contour>
        <pt x="371" y="896" on="1"/>
        <pt x="244" y="799" on="1"/>
        <pt x="274" y="799" on="1"/>
        <pt x="147" y="896" on="1"/>
        <pt x="119" y="871" on="1"/>
        <pt x="228" y="770" on="1"/>
        <pt x="290" y="770" on="1"/>
        <pt x="399" y="871" on="1"/>
      </contour>
    </TTGlyph>
    <TTGlyph name="Thorn" xMin="108" yMin="0" xMax="539" yMax="700">
      <contour>
        <pt x="108" y="700" on="1"/>
        <pt x="158" y="700" on="1"/>
        <pt x="158" y="0" on="1"/>
        <pt x="108" y="0" on="1"/>
      </contour>
      <contour>
        <pt x="136" y="161" on="1"/>
        <pt x="135" y="215" on="1"/>
        <pt x="347" y="215" on="1"/>
        <pt x="413" y="215" on="0"/>
        <pt x="486" y="300" on="0"/>
        <pt x="486" y="358" on="1"/>
        <pt x="486" y="417" on="0"/>
        <pt x="411" y="499" on="0"/>
        <pt x="347" y="499" on="1"/>
        <pt x="137" y="499" on="1"/>
        <pt x="137" y="553" on="1"/>
        <pt x="349" y="553" on="1"/>
        <pt x="430" y="553" on="0"/>
        <pt x="539" y="440" on="0"/>
        <pt x="539" y="358" on="1"/>
        <pt x="539" y="276" on="0"/>
        <pt x="430" y="161" on="0"/>
        <pt x="348" y="161" on="1"/>
      </contour>
    </TTGlyph>
    <TTGlyph name="U" xMin="108" yMin="-6" xMax="645" yMax="701">
      <contour>
        <pt x="596" y="701" on="1"/>
        <pt x="645" y="701" on="1"/>
        <pt x="645" y="269" on="1"/>
        <pt x="645" y="149" on="0"/>
        <pt x="492" y="-6" on="0"/>
        <pt x="374" y="-6" on="1"/>
        <pt x="258" y="-6" on="0"/>
        <pt x="108" y="149" on="0"/>
        <pt x="108" y="269" on="1"/>
        <pt x="108" y="701" on="1"/>
        <pt x="158" y="701" on="1"/>
        <pt x="158" y="278" on="1"/>
        <pt x="158" y="176" on="0"/>
        <pt x="280" y="44" on="0"/>
        <pt x="374" y="44" on="1"/>
        <pt x="471" y="44" on="0"/>
        <pt x="596" y="176" on="0"/>
        <pt x="596" y="278" on="1"/>
      </contour>
    </TTGlyph>
    <TTGlyph name="Uacute" xMin="108" yMin="-6" xMax="645" yMax="912">
      <contour>
        <pt x="596" y="701" on="1"/>
        <pt x="645" y="701" on="1"/>
        <pt x="645" y="269" on="1"/>
        <pt x="645" y="149" on="0"/>
        <pt x="492" y="-6" on="0"/>
        <pt x="374" y="-6" on="1"/>
        <pt x="258" y="-6" on="0"/>
        <pt x="108" y="149" on="0"/>
        <pt x="108" y="269" on="1"/>
        <pt x="108" y="701" on="1"/>
        <pt x="158" y="701" on="1"/>
        <pt x="158" y="278" on="1"/>
        <pt x="158" y="176" on="0"/>
        <pt x="280" y="44" on="0"/>
        <pt x="374" y="44" on="1"/>
        <pt x="471" y="44" on="0"/>
        <pt x="596" y="176" on="0"/>
        <pt x="596" y="278" on="1"/>
      </contour>
      <contour>
        <pt x="503" y="863" on="1"/>
        <pt x="343" y="770" on="1"/>
        <pt x="322" y="801" on="1"/>
        <pt x="465" y="912" on="1"/>
      </contour>
    </TTGlyph>
    <TTGlyph name="Ubreve" xMin="108" yMin="-6" xMax="645" yMax="907">
      <contour>
        <pt x="596" y="701" on="1"/>
        <pt x="645" y="701" on="1"/>
        <pt x="645" y="269" on="1"/>
        <pt x="645" y="149" on="0"/>
        <pt x="492" y="-6" on="0"/>
        <pt x="374" y="-6" on="1"/>
        <pt x="258" y="-6" on="0"/>
        <pt x="108" y="149" on="0"/>
        <pt x="108" y="269" on="1"/>
        <pt x="108" y="701" on="1"/>
        <pt x="158" y="701" on="1"/>
        <pt x="158" y="278" on="1"/>
        <pt x="158" y="176" on="0"/>
        <pt x="280" y="44" on="0"/>
        <pt x="374" y="44" on="1"/>
        <pt x="471" y="44" on="0"/>
        <pt x="596" y="176" on="0"/>
        <pt x="596" y="278" on="1"/>
      </contour>
      <contour>
        <pt x="376" y="770" on="1"/>
        <pt x="322" y="770" on="0"/>
        <pt x="246" y="841" on="0"/>
        <pt x="234" y="902" on="1"/>
        <pt x="278" y="907" on="1"/>
        <pt x="288" y="862" on="0"/>
        <pt x="342" y="811" on="0"/>
        <pt x="376" y="811" on="1"/>
        <pt x="410" y="811" on="0"/>
        <pt x="466" y="862" on="0"/>
        <pt x="476" y="907" on="1"/>
        <pt x="518" y="902" on="1"/>
        <pt x="506" y="841" on="0"/>
        <pt x="430" y="770" on="0"/>
      </contour>
    </TTGlyph>
    <TTGlyph name="Ucircumflex" xMin="108" yMin="-6" xMax="645" yMax="896">
      <contour>
        <pt x="596" y="701" on="1"/>
        <pt x="645" y="701" on="1"/>
        <pt x="645" y="269" on="1"/>
        <pt x="645" y="149" on="0"/>
        <pt x="492" y="-6" on="0"/>
        <pt x="374" y="-6" on="1"/>
        <pt x="258" y="-6" on="0"/>
        <pt x="108" y="149" on="0"/>
        <pt x="108" y="269" on="1"/>
        <pt x="108" y="701" on="1"/>
        <pt x="158" y="701" on="1"/>
        <pt x="158" y="278" on="1"/>
        <pt x="158" y="176" on="0"/>
        <pt x="280" y="44" on="0"/>
        <pt x="374" y="44" on="1"/>
        <pt x="471" y="44" on="0"/>
        <pt x="596" y="176" on="0"/>
        <pt x="596" y="278" on="1"/>
      </contour>
      <contour>
        <pt x="498" y="770" on="1"/>
        <pt x="362" y="865" on="1"/>
        <pt x="392" y="865" on="1"/>
        <pt x="254" y="770" on="1"/>
        <pt x="226" y="795" on="1"/>
        <pt x="346" y="896" on="1"/>
        <pt x="408" y="896" on="1"/>
        <pt x="526" y="795" on="1"/>
      </contour>
    </TTGlyph>
    <TTGlyph name="Udieresis" xMin="108" yMin="-6" xMax="645" yMax="860">
      <contour>
        <pt x="596" y="701" on="1"/>
        <pt x="645" y="701" on="1"/>
        <pt x="645" y="269" on="1"/>
        <pt x="645" y="149" on="0"/>
        <pt x="492" y="-6" on="0"/>
        <pt x="374" y="-6" on="1"/>
        <pt x="258" y="-6" on="0"/>
        <pt x="108" y="149" on="0"/>
        <pt x="108" y="269" on="1"/>
        <pt x="108" y="701" on="1"/>
        <pt x="158" y="701" on="1"/>
        <pt x="158" y="278" on="1"/>
        <pt x="158" y="176" on="0"/>
        <pt x="280" y="44" on="0"/>
        <pt x="374" y="44" on="1"/>
        <pt x="471" y="44" on="0"/>
        <pt x="596" y="176" on="0"/>
        <pt x="596" y="278" on="1"/>
      </contour>
      <contour>
        <pt x="322" y="815" on="1"/>
        <pt x="322" y="795" on="0"/>
        <pt x="298" y="770" on="0"/>
        <pt x="276" y="770" on="1"/>
        <pt x="254" y="770" on="0"/>
        <pt x="230" y="794" on="0"/>
        <pt x="230" y="815" on="1"/>
        <pt x="230" y="835" on="0"/>
        <pt x="254" y="860" on="0"/>
        <pt x="276" y="860" on="1"/>
        <pt x="298" y="860" on="0"/>
        <pt x="322" y="836" on="0"/>
      </contour>
      <contour>
        <pt x="522" y="815" on="1"/>
        <pt x="522" y="795" on="0"/>
        <pt x="498" y="770" on="0"/>
        <pt x="476" y="770" on="1"/>
        <pt x="454" y="770" on="0"/>
        <pt x="430" y="794" on="0"/>
        <pt x="430" y="815" on="1"/>
        <pt x="430" y="835" on="0"/>
        <pt x="454" y="860" on="0"/>
        <pt x="476" y="860" on="1"/>
        <pt x="498" y="860" on="0"/>
        <pt x="522" y="836" on="0"/>
      </contour>
    </TTGlyph>
    <TTGlyph name="Ugrave" xMin="108" yMin="-6" xMax="645" yMax="912">
      <contour>
        <pt x="596" y="701" on="1"/>
        <pt x="645" y="701" on="1"/>
        <pt x="645" y="269" on="1"/>
        <pt x="645" y="149" on="0"/>
        <pt x="492" y="-6" on="0"/>
        <pt x="374" y="-6" on="1"/>
        <pt x="258" y="-6" on="0"/>
        <pt x="108" y="149" on="0"/>
        <pt x="108" y="269" on="1"/>
        <pt x="108" y="701" on="1"/>
        <pt x="158" y="701" on="1"/>
        <pt x="158" y="278" on="1"/>
        <pt x="158" y="176" on="0"/>
        <pt x="280" y="44" on="0"/>
        <pt x="374" y="44" on="1"/>
        <pt x="471" y="44" on="0"/>
        <pt x="596" y="176" on="0"/>
        <pt x="596" y="278" on="1"/>
      </contour>
      <contour>
        <pt x="445" y="801" on="1"/>
        <pt x="424" y="770" on="1"/>
        <pt x="264" y="863" on="1"/>
        <pt x="302" y="912" on="1"/>
      </contour>
    </TTGlyph>
    <TTGlyph name="Uhorn" xMin="108" yMin="-7" xMax="767" yMax="810">
      <contour>
        <pt x="596" y="700" on="1"/>
        <pt x="645" y="700" on="1"/>
        <pt x="645" y="268" on="1"/>
        <pt x="645" y="148" on="0"/>
        <pt x="492" y="-7" on="0"/>
        <pt x="374" y="-7" on="1"/>
        <pt x="258" y="-7" on="0"/>
        <pt x="108" y="148" on="0"/>
        <pt x="108" y="268" on="1"/>
        <pt x="108" y="700" on="1"/>
        <pt x="158" y="700" on="1"/>
        <pt x="158" y="277" on="1"/>
        <pt x="158" y="175" on="0"/>
        <pt x="280" y="43" on="0"/>
        <pt x="374" y="43" on="1"/>
        <pt x="471" y="43" on="0"/>
        <pt x="596" y="175" on="0"/>
        <pt x="596" y="277" on="1"/>
      </contour>
      <contour>
        <pt x="596" y="664" on="1"/>
        <pt x="596" y="701" on="1"/>
        <pt x="658" y="701" on="0"/>
        <pt x="719" y="756" on="0"/>
        <pt x="719" y="810" on="1"/>
        <pt x="767" y="810" on="1"/>
        <pt x="767" y="743" on="0"/>
        <pt x="677" y="664" on="0"/>
      </contour>
    </TTGlyph>
    <TTGlyph name="Uhungarumlaut" xMin="108" yMin="-6" xMax="645" yMax="915">
      <contour>
        <pt x="596" y="701" on="1"/>
        <pt x="645" y="701" on="1"/>
        <pt x="645" y="269" on="1"/>
        <pt x="645" y="149" on="0"/>
        <pt x="492" y="-6" on="0"/>
        <pt x="374" y="-6" on="1"/>
        <pt x="258" y="-6" on="0"/>
        <pt x="108" y="149" on="0"/>
        <pt x="108" y="269" on="1"/>
        <pt x="108" y="701" on="1"/>
        <pt x="158" y="701" on="1"/>
        <pt x="158" y="278" on="1"/>
        <pt x="158" y="176" on="0"/>
        <pt x="280" y="44" on="0"/>
        <pt x="374" y="44" on="1"/>
        <pt x="471" y="44" on="0"/>
        <pt x="596" y="176" on="0"/>
        <pt x="596" y="278" on="1"/>
      </contour>
      <contour>
        <pt x="472" y="870" on="1"/>
        <pt x="318" y="769" on="1"/>
        <pt x="297" y="800" on="1"/>
        <pt x="439" y="915" on="1"/>
      </contour>
      <contour>
        <pt x="622" y="870" on="1"/>
        <pt x="468" y="769" on="1"/>
        <pt x="447" y="800" on="1"/>
        <pt x="589" y="915" on="1"/>
      </contour>
    </TTGlyph>
    <TTGlyph name="Umacron" xMin="108" yMin="-6" xMax="645" yMax="816">
      <contour>
        <pt x="596" y="701" on="1"/>
        <pt x="645" y="701" on="1"/>
        <pt x="645" y="269" on="1"/>
        <pt x="645" y="149" on="0"/>
        <pt x="492" y="-6" on="0"/>
        <pt x="374" y="-6" on="1"/>
        <pt x="258" y="-6" on="0"/>
        <pt x="108" y="149" on="0"/>
        <pt x="108" y="269" on="1"/>
        <pt x="108" y="701" on="1"/>
        <pt x="158" y="701" on="1"/>
        <pt x="158" y="278" on="1"/>
        <pt x="158" y="176" on="0"/>
        <pt x="280" y="44" on="0"/>
        <pt x="374" y="44" on="1"/>
        <pt x="471" y="44" on="0"/>
        <pt x="596" y="176" on="0"/>
        <pt x="596" y="278" on="1"/>
      </contour>
      <contour>
        <pt x="518" y="770" on="1"/>
        <pt x="234" y="770" on="1"/>
        <pt x="234" y="816" on="1"/>
        <pt x="518" y="816" on="1"/>
      </contour>
    </TTGlyph>
    <TTGlyph name="Uogonek" xMin="108" yMin="-221" xMax="645" yMax="701">
      <contour>
        <pt x="374" y="-6" on="1"/>
        <pt x="258" y="-6" on="0"/>
        <pt x="108" y="149" on="0"/>
        <pt x="108" y="269" on="1"/>
        <pt x="108" y="701" on="1"/>
        <pt x="158" y="701" on="1"/>
        <pt x="158" y="278" on="1"/>
        <pt x="158" y="176" on="0"/>
        <pt x="280" y="44" on="0"/>
        <pt x="374" y="44" on="1"/>
        <pt x="471" y="44" on="0"/>
        <pt x="596" y="176" on="0"/>
        <pt x="596" y="278" on="1"/>
        <pt x="596" y="701" on="1"/>
        <pt x="645" y="701" on="1"/>
        <pt x="645" y="269" on="1"/>
        <pt x="645" y="183" on="0"/>
        <pt x="550" y="26" on="0"/>
        <pt x="443" y="-2" on="1"/>
        <pt x="416" y="-9" on="0"/>
        <pt x="348" y="-82" on="0"/>
        <pt x="348" y="-119" on="1"/>
        <pt x="348" y="-144" on="0"/>
        <pt x="388" y="-178" on="0"/>
        <pt x="417" y="-178" on="1"/>
        <pt x="439" y="-178" on="0"/>
        <pt x="474" y="-160" on="0"/>
        <pt x="486" y="-146" on="1"/>
        <pt x="519" y="-170" on="1"/>
        <pt x="500" y="-195" on="0"/>
        <pt x="449" y="-221" on="0"/>
        <pt x="415" y="-221" on="1"/>
        <pt x="367" y="-221" on="0"/>
        <pt x="300" y="-163" on="0"/>
        <pt x="300" y="-121" on="1"/>
        <pt x="300" y="-70" on="0"/>
        <pt x="382" y="5" on="0"/>
        <pt x="437" y="30" on="1"/>
        <pt x="418" y="-6" on="1"/>
        <pt x="385" y="-6" on="0"/>
        <pt x="378" y="-6" on="0"/>
      </contour>
    </TTGlyph>
    <TTGlyph name="Uring" xMin="108" yMin="-6" xMax="645" yMax="981">
      <contour>
        <pt x="596" y="701" on="1"/>
        <pt x="645" y="701" on="1"/>
        <pt x="645" y="269" on="1"/>
        <pt x="645" y="149" on="0"/>
        <pt x="492" y="-6" on="0"/>
        <pt x="374" y="-6" on="1"/>
        <pt x="258" y="-6" on="0"/>
        <pt x="108" y="149" on="0"/>
        <pt x="108" y="269" on="1"/>
        <pt x="108" y="701" on="1"/>
        <pt x="158" y="701" on="1"/>
        <pt x="158" y="278" on="1"/>
        <pt x="158" y="176" on="0"/>
        <pt x="280" y="44" on="0"/>
        <pt x="374" y="44" on="1"/>
        <pt x="471" y="44" on="0"/>
        <pt x="596" y="176" on="0"/>
        <pt x="596" y="278" on="1"/>
      </contour>
      <contour>
        <pt x="486" y="875" on="1"/>
        <pt x="486" y="833" on="0"/>
        <pt x="420" y="770" on="0"/>
        <pt x="376" y="770" on="1"/>
        <pt x="333" y="770" on="0"/>
        <pt x="267" y="833" on="0"/>
        <pt x="267" y="875" on="1"/>
        <pt x="267" y="918" on="0"/>
        <pt x="332" y="981" on="0"/>
        <pt x="376" y="981" on="1"/>
        <pt x="420" y="981" on="0"/>
        <pt x="486" y="918" on="0"/>
      </contour>
      <contour>
        <pt x="307" y="875" on="1"/>
        <pt x="307" y="848" on="0"/>
        <pt x="348" y="809" on="0"/>
        <pt x="376" y="809" on="1"/>
        <pt x="405" y="809" on="0"/>
        <pt x="446" y="848" on="0"/>
        <pt x="446" y="875" on="1"/>
        <pt x="446" y="905" on="0"/>
        <pt x="405" y="942" on="0"/>
        <pt x="376" y="942" on="1"/>
        <pt x="346" y="942" on="0"/>
        <pt x="307" y="904" on="0"/>
      </contour>
    </TTGlyph>
    <TTGlyph name="Utilde" xMin="108" yMin="-6" xMax="645" yMax="860">
      <contour>
        <pt x="596" y="701" on="1"/>
        <pt x="645" y="701" on="1"/>
        <pt x="645" y="269" on="1"/>
        <pt x="645" y="149" on="0"/>
        <pt x="492" y="-6" on="0"/>
        <pt x="374" y="-6" on="1"/>
        <pt x="258" y="-6" on="0"/>
        <pt x="108" y="149" on="0"/>
        <pt x="108" y="269" on="1"/>
        <pt x="108" y="701" on="1"/>
        <pt x="158" y="701" on="1"/>
        <pt x="158" y="278" on="1"/>
        <pt x="158" y="176" on="0"/>
        <pt x="280" y="44" on="0"/>
        <pt x="374" y="44" on="1"/>
        <pt x="471" y="44" on="0"/>
        <pt x="596" y="176" on="0"/>
        <pt x="596" y="278" on="1"/>
      </contour>
      <contour>
        <pt x="274" y="771" on="1"/>
        <pt x="228" y="771" on="1"/>
        <pt x="228" y="812" on="0"/>
        <pt x="274" y="860" on="0"/>
        <pt x="307" y="860" on="1"/>
        <pt x="329" y="860" on="0"/>
        <pt x="370" y="844" on="0"/>
        <pt x="394" y="833" on="1"/>
        <pt x="406" y="827" on="0"/>
        <pt x="431" y="816" on="0"/>
        <pt x="442" y="816" on="1"/>
        <pt x="457" y="816" on="0"/>
        <pt x="479" y="837" on="0"/>
        <pt x="479" y="859" on="1"/>
        <pt x="525" y="859" on="1"/>
        <pt x="525" y="818" on="0"/>
        <pt x="479" y="770" on="0"/>
        <pt x="446" y="770" on="1"/>
        <pt x="424" y="770" on="0"/>
        <pt x="383" y="786" on="0"/>
        <pt x="359" y="797" on="1"/>
        <pt x="347" y="803" on="0"/>
        <pt x="322" y="814" on="0"/>
        <pt x="311" y="814" on="1"/>
        <pt x="296" y="814" on="0"/>
        <pt x="274" y="792" on="0"/>
      </contour>
    </TTGlyph>
    <TTGlyph name="V" xMin="25" yMin="0" xMax="622" yMax="700">
      <contour>
        <pt x="288" y="0" on="1"/>
        <pt x="25" y="700" on="1"/>
        <pt x="81" y="700" on="1"/>
        <pt x="262" y="216" on="1"/>
        <pt x="285" y="154" on="0"/>
        <pt x="313" y="76" on="0"/>
        <pt x="333" y="13" on="1"/>
        <pt x="306" y="13" on="1"/>
        <pt x="327" y="78" on="0"/>
        <pt x="355" y="159" on="0"/>
        <pt x="380" y="222" on="1"/>
        <pt x="568" y="700" on="1"/>
        <pt x="622" y="700" on="1"/>
        <pt x="346" y="0" on="1"/>
      </contour>
    </TTGlyph>
    <TTGlyph name="W" xMin="25" yMin="0" xMax="892" yMax="700">
      <contour>
        <pt x="226" y="0" on="1"/>
        <pt x="25" y="700" on="1"/>
        <pt x="81" y="700" on="1"/>
        <pt x="216" y="216" on="1"/>
        <pt x="234" y="153" on="0"/>
        <pt x="249" y="96" on="0"/>
        <pt x="260" y="38" on="1"/>
        <pt x="254" y="38" on="1"/>
        <pt x="271" y="96" on="0"/>
        <pt x="295" y="160" on="0"/>
        <pt x="319" y="222" on="1"/>
        <pt x="429" y="502" on="1"/>
        <pt x="480" y="502" on="1"/>
        <pt x="597" y="216" on="1"/>
        <pt x="624" y="151" on="0"/>
        <pt x="649" y="96" on="0"/>
        <pt x="662" y="38" on="1"/>
        <pt x="656" y="38" on="1"/>
        <pt x="668" y="96" on="0"/>
        <pt x="681" y="152" on="0"/>
        <pt x="701" y="222" on="1"/>
        <pt x="838" y="700" on="1"/>
        <pt x="892" y="700" on="1"/>
        <pt x="689" y="0" on="1"/>
        <pt x="634" y="0" on="1"/>
        <pt x="441" y="461" on="1"/>
        <pt x="467" y="460" on="1"/>
        <pt x="281" y="0" on="1"/>
      </contour>
    </TTGlyph>
    <TTGlyph name="Wacute" xMin="25" yMin="0" xMax="892" yMax="912">
      <contour>
        <pt x="226" y="0" on="1"/>
        <pt x="25" y="700" on="1"/>
        <pt x="81" y="700" on="1"/>
        <pt x="216" y="216" on="1"/>
        <pt x="234" y="153" on="0"/>
        <pt x="249" y="96" on="0"/>
        <pt x="260" y="38" on="1"/>
        <pt x="254" y="38" on="1"/>
        <pt x="271" y="96" on="0"/>
        <pt x="295" y="160" on="0"/>
        <pt x="319" y="222" on="1"/>
        <pt x="429" y="502" on="1"/>
        <pt x="480" y="502" on="1"/>
        <pt x="597" y="216" on="1"/>
        <pt x="624" y="151" on="0"/>
        <pt x="649" y="96" on="0"/>
        <pt x="662" y="38" on="1"/>
        <pt x="656" y="38" on="1"/>
        <pt x="668" y="96" on="0"/>
        <pt x="681" y="152" on="0"/>
        <pt x="701" y="222" on="1"/>
        <pt x="838" y="700" on="1"/>
        <pt x="892" y="700" on="1"/>
        <pt x="689" y="0" on="1"/>
        <pt x="634" y="0" on="1"/>
        <pt x="441" y="461" on="1"/>
        <pt x="467" y="460" on="1"/>
        <pt x="281" y="0" on="1"/>
      </contour>
      <contour>
        <pt x="549" y="863" on="1"/>
        <pt x="389" y="770" on="1"/>
        <pt x="368" y="801" on="1"/>
        <pt x="511" y="912" on="1"/>
      </contour>
    </TTGlyph>
    <TTGlyph name="Wcircumflex" xMin="25" yMin="0" xMax="892" yMax="896">
      <contour>
        <pt x="226" y="0" on="1"/>
        <pt x="25" y="700" on="1"/>
        <pt x="81" y="700" on="1"/>
        <pt x="216" y="216" on="1"/>
        <pt x="234" y="153" on="0"/>
        <pt x="249" y="96" on="0"/>
        <pt x="260" y="38" on="1"/>
        <pt x="254" y="38" on="1"/>
        <pt x="271" y="96" on="0"/>
        <pt x="295" y="160" on="0"/>
        <pt x="319" y="222" on="1"/>
        <pt x="429" y="502" on="1"/>
        <pt x="480" y="502" on="1"/>
        <pt x="597" y="216" on="1"/>
        <pt x="624" y="151" on="0"/>
        <pt x="649" y="96" on="0"/>
        <pt x="662" y="38" on="1"/>
        <pt x="656" y="38" on="1"/>
        <pt x="668" y="96" on="0"/>
        <pt x="681" y="152" on="0"/>
        <pt x="701" y="222" on="1"/>
        <pt x="838" y="700" on="1"/>
        <pt x="892" y="700" on="1"/>
        <pt x="689" y="0" on="1"/>
        <pt x="634" y="0" on="1"/>
        <pt x="441" y="461" on="1"/>
        <pt x="467" y="460" on="1"/>
        <pt x="281" y="0" on="1"/>
      </contour>
      <contour>
        <pt x="580" y="770" on="1"/>
        <pt x="444" y="865" on="1"/>
        <pt x="474" y="865" on="1"/>
        <pt x="336" y="770" on="1"/>
        <pt x="308" y="795" on="1"/>
        <pt x="428" y="896" on="1"/>
        <pt x="490" y="896" on="1"/>
        <pt x="608" y="795" on="1"/>
      </contour>
    </TTGlyph>
    <TTGlyph name="Wdieresis" xMin="25" yMin="0" xMax="892" yMax="860">
      <contour>
        <pt x="226" y="0" on="1"/>
        <pt x="25" y="700" on="1"/>
        <pt x="81" y="700" on="1"/>
        <pt x="216" y="216" on="1"/>
        <pt x="234" y="153" on="0"/>
        <pt x="249" y="96" on="0"/>
        <pt x="260" y="38" on="1"/>
        <pt x="254" y="38" on="1"/>
        <pt x="271" y="96" on="0"/>
        <pt x="295" y="160" on="0"/>
        <pt x="319" y="222" on="1"/>
        <pt x="429" y="502" on="1"/>
        <pt x="480" y="502" on="1"/>
        <pt x="597" y="216" on="1"/>
        <pt x="624" y="151" on="0"/>
        <pt x="649" y="96" on="0"/>
        <pt x="662" y="38" on="1"/>
        <pt x="656" y="38" on="1"/>
        <pt x="668" y="96" on="0"/>
        <pt x="681" y="152" on="0"/>
        <pt x="701" y="222" on="1"/>
        <pt x="838" y="700" on="1"/>
        <pt x="892" y="700" on="1"/>
        <pt x="689" y="0" on="1"/>
        <pt x="634" y="0" on="1"/>
        <pt x="441" y="461" on="1"/>
        <pt x="467" y="460" on="1"/>
        <pt x="281" y="0" on="1"/>
      </contour>
      <contour>
        <pt x="404" y="815" on="1"/>
        <pt x="404" y="795" on="0"/>
        <pt x="380" y="770" on="0"/>
        <pt x="358" y="770" on="1"/>
        <pt x="336" y="770" on="0"/>
        <pt x="312" y="794" on="0"/>
        <pt x="312" y="815" on="1"/>
        <pt x="312" y="835" on="0"/>
        <pt x="336" y="860" on="0"/>
        <pt x="358" y="860" on="1"/>
        <pt x="380" y="860" on="0"/>
        <pt x="404" y="836" on="0"/>
      </contour>
      <contour>
        <pt x="604" y="815" on="1"/>
        <pt x="604" y="795" on="0"/>
        <pt x="580" y="770" on="0"/>
        <pt x="558" y="770" on="1"/>
        <pt x="536" y="770" on="0"/>
        <pt x="512" y="794" on="0"/>
        <pt x="512" y="815" on="1"/>
        <pt x="512" y="835" on="0"/>
        <pt x="536" y="860" on="0"/>
        <pt x="558" y="860" on="1"/>
        <pt x="580" y="860" on="0"/>
        <pt x="604" y="836" on="0"/>
      </contour>
    </TTGlyph>
    <TTGlyph name="Wgrave" xMin="25" yMin="0" xMax="892" yMax="912">
      <contour>
        <pt x="226" y="0" on="1"/>
        <pt x="25" y="700" on="1"/>
        <pt x="81" y="700" on="1"/>
        <pt x="216" y="216" on="1"/>
        <pt x="234" y="153" on="0"/>
        <pt x="249" y="96" on="0"/>
        <pt x="260" y="38" on="1"/>
        <pt x="254" y="38" on="1"/>
        <pt x="271" y="96" on="0"/>
        <pt x="295" y="160" on="0"/>
        <pt x="319" y="222" on="1"/>
        <pt x="429" y="502" on="1"/>
        <pt x="480" y="502" on="1"/>
        <pt x="597" y="216" on="1"/>
        <pt x="624" y="151" on="0"/>
        <pt x="649" y="96" on="0"/>
        <pt x="662" y="38" on="1"/>
        <pt x="656" y="38" on="1"/>
        <pt x="668" y="96" on="0"/>
        <pt x="681" y="152" on="0"/>
        <pt x="701" y="222" on="1"/>
        <pt x="838" y="700" on="1"/>
        <pt x="892" y="700" on="1"/>
        <pt x="689" y="0" on="1"/>
        <pt x="634" y="0" on="1"/>
        <pt x="441" y="461" on="1"/>
        <pt x="467" y="460" on="1"/>
        <pt x="281" y="0" on="1"/>
      </contour>
      <contour>
        <pt x="549" y="801" on="1"/>
        <pt x="528" y="770" on="1"/>
        <pt x="368" y="863" on="1"/>
        <pt x="406" y="912" on="1"/>
      </contour>
    </TTGlyph>
    <TTGlyph name="X" xMin="25" yMin="0" xMax="597" yMax="700">
      <contour>
        <pt x="530" y="700" on="1"/>
        <pt x="587" y="700" on="1"/>
        <pt x="329" y="338" on="1"/>
        <pt x="301" y="374" on="1"/>
      </contour>
      <contour>
        <pt x="30" y="700" on="1"/>
        <pt x="92" y="700" on="1"/>
        <pt x="314" y="390" on="1"/>
        <pt x="597" y="0" on="1"/>
        <pt x="535" y="0" on="1"/>
        <pt x="308" y="314" on="1"/>
      </contour>
      <contour>
        <pt x="82" y="0" on="1"/>
        <pt x="25" y="0" on="1"/>
        <pt x="287" y="374" on="1"/>
        <pt x="319" y="338" on="1"/>
      </contour>
    </TTGlyph>
    <TTGlyph name="Y" xMin="25" yMin="0" xMax="606" yMax="700">
      <contour>
        <pt x="548" y="700" on="1"/>
        <pt x="606" y="700" on="1"/>
        <pt x="335" y="289" on="1"/>
        <pt x="350" y="357" on="1"/>
        <pt x="350" y="0" on="1"/>
        <pt x="301" y="0" on="1"/>
        <pt x="301" y="349" on="1"/>
        <pt x="308" y="300" on="1"/>
        <pt x="25" y="700" on="1"/>
        <pt x="87" y="700" on="1"/>
        <pt x="335" y="348" on="1"/>
        <pt x="318" y="348" on="1"/>
      </contour>
    </TTGlyph>
    <TTGlyph name="Yacute" xMin="25" yMin="0" xMax="606" yMax="912">
      <contour>
        <pt x="548" y="700" on="1"/>
        <pt x="606" y="700" on="1"/>
        <pt x="335" y="289" on="1"/>
        <pt x="350" y="357" on="1"/>
        <pt x="350" y="0" on="1"/>
        <pt x="301" y="0" on="1"/>
        <pt x="301" y="349" on="1"/>
        <pt x="308" y="300" on="1"/>
        <pt x="25" y="700" on="1"/>
        <pt x="87" y="700" on="1"/>
        <pt x="335" y="348" on="1"/>
        <pt x="318" y="348" on="1"/>
      </contour>
      <contour>
        <pt x="444" y="863" on="1"/>
        <pt x="284" y="770" on="1"/>
        <pt x="263" y="801" on="1"/>
        <pt x="406" y="912" on="1"/>
      </contour>
    </TTGlyph>
    <TTGlyph name="Ycircumflex" xMin="25" yMin="0" xMax="606" yMax="896">
      <contour>
        <pt x="548" y="700" on="1"/>
        <pt x="606" y="700" on="1"/>
        <pt x="335" y="289" on="1"/>
        <pt x="350" y="357" on="1"/>
        <pt x="350" y="0" on="1"/>
        <pt x="301" y="0" on="1"/>
        <pt x="301" y="349" on="1"/>
        <pt x="308" y="300" on="1"/>
        <pt x="25" y="700" on="1"/>
        <pt x="87" y="700" on="1"/>
        <pt x="335" y="348" on="1"/>
        <pt x="318" y="348" on="1"/>
      </contour>
      <contour>
        <pt x="438" y="770" on="1"/>
        <pt x="300" y="865" on="1"/>
        <pt x="330" y="865" on="1"/>
        <pt x="194" y="770" on="1"/>
        <pt x="166" y="795" on="1"/>
        <pt x="284" y="896" on="1"/>
        <pt x="346" y="896" on="1"/>
        <pt x="466" y="795" on="1"/>
      </contour>
    </TTGlyph>
    <TTGlyph name="Ydieresis" xMin="25" yMin="0" xMax="606" yMax="860">
      <contour>
        <pt x="548" y="700" on="1"/>
        <pt x="606" y="700" on="1"/>
        <pt x="335" y="289" on="1"/>
        <pt x="350" y="357" on="1"/>
        <pt x="350" y="0" on="1"/>
        <pt x="301" y="0" on="1"/>
        <pt x="301" y="349" on="1"/>
        <pt x="308" y="300" on="1"/>
        <pt x="25" y="700" on="1"/>
        <pt x="87" y="700" on="1"/>
        <pt x="335" y="348" on="1"/>
        <pt x="318" y="348" on="1"/>
      </contour>
      <contour>
        <pt x="262" y="815" on="1"/>
        <pt x="262" y="795" on="0"/>
        <pt x="238" y="770" on="0"/>
        <pt x="216" y="770" on="1"/>
        <pt x="194" y="770" on="0"/>
        <pt x="170" y="794" on="0"/>
        <pt x="170" y="815" on="1"/>
        <pt x="170" y="835" on="0"/>
        <pt x="194" y="860" on="0"/>
        <pt x="216" y="860" on="1"/>
        <pt x="238" y="860" on="0"/>
        <pt x="262" y="836" on="0"/>
      </contour>
      <contour>
        <pt x="462" y="815" on="1"/>
        <pt x="462" y="795" on="0"/>
        <pt x="438" y="770" on="0"/>
        <pt x="416" y="770" on="1"/>
        <pt x="394" y="770" on="0"/>
        <pt x="370" y="794" on="0"/>
        <pt x="370" y="815" on="1"/>
        <pt x="370" y="835" on="0"/>
        <pt x="394" y="860" on="0"/>
        <pt x="416" y="860" on="1"/>
        <pt x="438" y="860" on="0"/>
        <pt x="462" y="836" on="0"/>
      </contour>
    </TTGlyph>
    <TTGlyph name="Ygrave" xMin="25" yMin="0" xMax="606" yMax="912">
      <contour>
        <pt x="548" y="700" on="1"/>
        <pt x="606" y="700" on="1"/>
        <pt x="335" y="289" on="1"/>
        <pt x="350" y="357" on="1"/>
        <pt x="350" y="0" on="1"/>
        <pt x="301" y="0" on="1"/>
        <pt x="301" y="349" on="1"/>
        <pt x="308" y="300" on="1"/>
        <pt x="25" y="700" on="1"/>
        <pt x="87" y="700" on="1"/>
        <pt x="335" y="348" on="1"/>
        <pt x="318" y="348" on="1"/>
      </contour>
      <contour>
        <pt x="368" y="801" on="1"/>
        <pt x="347" y="770" on="1"/>
        <pt x="187" y="863" on="1"/>
        <pt x="225" y="912" on="1"/>
      </contour>
    </TTGlyph>
    <TTGlyph name="Z" xMin="60" yMin="0" xMax="584" yMax="700">
      <contour>
        <pt x="86" y="700" on="1"/>
        <pt x="573" y="700" on="1"/>
        <pt x="573" y="659" on="1"/>
        <pt x="110" y="26" on="1"/>
        <pt x="96" y="50" on="1"/>
        <pt x="584" y="50" on="1"/>
        <pt x="584" y="0" on="1"/>
        <pt x="60" y="0" on="1"/>
        <pt x="60" y="42" on="1"/>
        <pt x="525" y="674" on="1"/>
        <pt x="540" y="650" on="1"/>
        <pt x="86" y="650" on="1"/>
      </contour>
    </TTGlyph>
    <TTGlyph name="Zacute" xMin="60" yMin="0" xMax="584" yMax="912">
      <contour>
        <pt x="86" y="700" on="1"/>
        <pt x="573" y="700" on="1"/>
        <pt x="573" y="659" on="1"/>
        <pt x="110" y="26" on="1"/>
        <pt x="96" y="50" on="1"/>
        <pt x="584" y="50" on="1"/>
        <pt x="584" y="0" on="1"/>
        <pt x="60" y="0" on="1"/>
        <pt x="60" y="42" on="1"/>
        <pt x="525" y="674" on="1"/>
        <pt x="540" y="650" on="1"/>
        <pt x="86" y="650" on="1"/>
      </contour>
      <contour>
        <pt x="448" y="863" on="1"/>
        <pt x="288" y="770" on="1"/>
        <pt x="267" y="801" on="1"/>
        <pt x="410" y="912" on="1"/>
      </contour>
    </TTGlyph>
    <TTGlyph name="Zcaron" xMin="60" yMin="0" xMax="584" yMax="896">
      <contour>
        <pt x="86" y="700" on="1"/>
        <pt x="573" y="700" on="1"/>
        <pt x="573" y="659" on="1"/>
        <pt x="110" y="26" on="1"/>
        <pt x="96" y="50" on="1"/>
        <pt x="584" y="50" on="1"/>
        <pt x="584" y="0" on="1"/>
        <pt x="60" y="0" on="1"/>
        <pt x="60" y="42" on="1"/>
        <pt x="525" y="674" on="1"/>
        <pt x="540" y="650" on="1"/>
        <pt x="86" y="650" on="1"/>
      </contour>
      <contour>
        <pt x="434" y="896" on="1"/>
        <pt x="307" y="799" on="1"/>
        <pt x="337" y="799" on="1"/>
        <pt x="210" y="896" on="1"/>
        <pt x="182" y="871" on="1"/>
        <pt x="291" y="770" on="1"/>
        <pt x="353" y="770" on="1"/>
        <pt x="462" y="871" on="1"/>
      </contour>
    </TTGlyph>
    <TTGlyph name="Zdotaccent" xMin="60" yMin="0" xMax="584" yMax="860">
      <contour>
        <pt x="86" y="700" on="1"/>
        <pt x="573" y="700" on="1"/>
        <pt x="573" y="659" on="1"/>
        <pt x="110" y="26" on="1"/>
        <pt x="96" y="50" on="1"/>
        <pt x="584" y="50" on="1"/>
        <pt x="584" y="0" on="1"/>
        <pt x="60" y="0" on="1"/>
        <pt x="60" y="42" on="1"/>
        <pt x="525" y="674" on="1"/>
        <pt x="540" y="650" on="1"/>
        <pt x="86" y="650" on="1"/>
      </contour>
      <contour>
        <pt x="368" y="815" on="1"/>
        <pt x="368" y="795" on="0"/>
        <pt x="344" y="770" on="0"/>
        <pt x="322" y="770" on="1"/>
        <pt x="300" y="770" on="0"/>
        <pt x="276" y="794" on="0"/>
        <pt x="276" y="815" on="1"/>
        <pt x="276" y="835" on="0"/>
        <pt x="300" y="860" on="0"/>
        <pt x="322" y="860" on="1"/>
        <pt x="344" y="860" on="0"/>
        <pt x="368" y="836" on="0"/>
      </contour>
    </TTGlyph>
    <TTGlyph name="_connection" xMin="-30" yMin="0" xMax="90" yMax="102">
      <contour>
        <pt x="-30" y="0" on="1"/>
        <pt x="-30" y="102" on="1"/>
        <pt x="90" y="102" on="1"/>
        <pt x="90" y="0" on="1"/>
      </contour>
    </TTGlyph>
    <TTGlyph name="_connection.round" xMin="-79" yMin="0" xMax="120" yMax="149">
      <contour>
        <pt x="-79" y="102" on="1"/>
        <pt x="-31" y="149" on="1"/>
        <pt x="-5" y="124" on="0"/>
        <pt x="65" y="102" on="0"/>
        <pt x="120" y="102" on="1"/>
        <pt x="120" y="0" on="1"/>
        <pt x="54" y="0" on="0"/>
        <pt x="-49" y="52" on="0"/>
      </contour>
    </TTGlyph>
    <TTGlyph name="_guide" xMin="72" yMin="0" xMax="1213" yMax="536">
      <contour>
        <pt x="963" y="536" on="1"/>
        <pt x="1078" y="536" on="0"/>
        <pt x="1213" y="412" on="0"/>
        <pt x="1213" y="310" on="1"/>
        <pt x="1213" y="0" on="1"/>
        <pt x="1110" y="0" on="1"/>
        <pt x="1110" y="293" on="1"/>
        <pt x="1110" y="356" on="0"/>
        <pt x="1012" y="440" on="0"/>
        <pt x="939" y="440" on="1"/>
        <pt x="861" y="440" on="0"/>
        <pt x="741" y="336" on="0"/>
        <pt x="741" y="278" on="1"/>
        <pt x="741" y="0" on="1"/>
        <pt x="715" y="0" on="0"/>
        <pt x="664" y="0" on="0"/>
        <pt x="638" y="0" on="1"/>
        <pt x="638" y="525" on="1"/>
        <pt x="741" y="525" on="1"/>
        <pt x="741" y="377" on="1"/>
        <pt x="703" y="375" on="1"/>
        <pt x="748" y="450" on="0"/>
        <pt x="884" y="536" on="0"/>
      </contour>
      <contour>
        <pt x="347" y="536" on="1"/>
        <pt x="437" y="536" on="0"/>
        <pt x="527" y="429" on="0"/>
        <pt x="527" y="320" on="1"/>
        <pt x="527" y="0" on="1"/>
        <pt x="424" y="0" on="1"/>
        <pt x="424" y="313" on="1"/>
        <pt x="424" y="381" on="0"/>
        <pt x="369" y="445" on="0"/>
        <pt x="313" y="442" on="1"/>
        <pt x="254" y="442" on="0"/>
        <pt x="175" y="370" on="0"/>
        <pt x="175" y="318" on="1"/>
        <pt x="175" y="0" on="1"/>
        <pt x="149" y="0" on="0"/>
        <pt x="98" y="0" on="0"/>
        <pt x="72" y="0" on="1"/>
        <pt x="72" y="525" on="1"/>
        <pt x="175" y="525" on="1"/>
        <pt x="175" y="417" on="1"/>
        <pt x="157" y="405" on="1"/>
        <pt x="172" y="457" on="0"/>
        <pt x="284" y="536" on="0"/>
      </contour>
    </TTGlyph>
    <TTGlyph name="_spacingBehDotless" xMin="0" yMin="0" xMax="161" yMax="221">
      <contour>
        <pt x="0" y="0" on="1"/>
        <pt x="0" y="221" on="1"/>
        <pt x="161" y="221" on="1"/>
        <pt x="161" y="0" on="1"/>
      </contour>
    </TTGlyph>
    <TTGlyph name="_spacingDal" xMin="0" yMin="0" xMax="161" yMax="221">
      <contour>
        <pt x="0" y="0" on="1"/>
        <pt x="0" y="221" on="1"/>
        <pt x="161" y="221" on="1"/>
        <pt x="161" y="0" on="1"/>
      </contour>
    </TTGlyph>
    <TTGlyph name="a" xMin="32" yMin="-10" xMax="534" yMax="531">
      <contour>
        <pt x="486" y="520" on="1"/>
        <pt x="534" y="520" on="1"/>
        <pt x="534" y="0" on="1"/>
        <pt x="484" y="0" on="1"/>
        <pt x="484" y="130" on="1"/>
        <pt x="501" y="149" on="1"/>
        <pt x="482" y="82" on="0"/>
        <pt x="360" y="-10" on="0"/>
        <pt x="280" y="-10" on="1"/>
        <pt x="174" y="-10" on="0"/>
        <pt x="32" y="143" on="0"/>
        <pt x="32" y="260" on="1"/>
        <pt x="32" y="378" on="0"/>
        <pt x="177" y="531" on="0"/>
        <pt x="280" y="531" on="1"/>
        <pt x="360" y="531" on="0"/>
        <pt x="482" y="440" on="0"/>
        <pt x="501" y="372" on="1"/>
        <pt x="481" y="385" on="1"/>
      </contour>
      <contour>
        <pt x="85" y="261" on="1"/>
        <pt x="85" y="166" on="0"/>
        <pt x="197" y="40" on="0"/>
        <pt x="287" y="40" on="1"/>
        <pt x="373" y="40" on="0"/>
        <pt x="488" y="164" on="0"/>
        <pt x="488" y="261" on="1"/>
        <pt x="488" y="357" on="0"/>
        <pt x="374" y="481" on="0"/>
        <pt x="287" y="481" on="1"/>
        <pt x="198" y="481" on="0"/>
        <pt x="85" y="357" on="0"/>
      </contour>
    </TTGlyph>
    <TTGlyph name="a.ss01" xMin="38" yMin="-10" xMax="466" yMax="531">
      <contour>
        <pt x="270" y="531" on="1"/>
        <pt x="360" y="531" on="0"/>
        <pt x="466" y="444" on="0"/>
        <pt x="466" y="364" on="1"/>
        <pt x="466" y="0" on="1"/>
        <pt x="416" y="0" on="1"/>
        <pt x="416" y="364" on="1"/>
        <pt x="416" y="416" on="0"/>
        <pt x="345" y="481" on="0"/>
        <pt x="268" y="481" on="1"/>
        <pt x="214" y="481" on="0"/>
        <pt x="129" y="437" on="0"/>
        <pt x="92" y="395" on="1"/>
        <pt x="56" y="430" on="1"/>
        <pt x="103" y="481" on="0"/>
        <pt x="208" y="531" on="0"/>
      </contour>
      <contour>
        <pt x="274" y="319" on="1"/>
        <pt x="439" y="319" on="1"/>
        <pt x="430" y="270" on="1"/>
        <pt x="261" y="270" on="1"/>
        <pt x="179" y="270" on="0"/>
        <pt x="91" y="208" on="0"/>
        <pt x="91" y="151" on="1"/>
        <pt x="91" y="101" on="0"/>
        <pt x="164" y="40" on="0"/>
        <pt x="220" y="40" on="1"/>
        <pt x="287" y="40" on="0"/>
        <pt x="398" y="109" on="0"/>
        <pt x="426" y="164" on="1"/>
        <pt x="447" y="130" on="1"/>
        <pt x="411" y="67" on="0"/>
        <pt x="285" y="-10" on="0"/>
        <pt x="216" y="-10" on="1"/>
        <pt x="140" y="-10" on="0"/>
        <pt x="38" y="77" on="0"/>
        <pt x="38" y="149" on="1"/>
        <pt x="38" y="233" on="0"/>
        <pt x="157" y="319" on="0"/>
      </contour>
    </TTGlyph>
    <TTGlyph name="aabreve.ss01" xMin="38" yMin="-10" xMax="466" yMax="747">
      <contour>
        <pt x="270" y="531" on="1"/>
        <pt x="360" y="531" on="0"/>
        <pt x="466" y="444" on="0"/>
        <pt x="466" y="364" on="1"/>
        <pt x="466" y="0" on="1"/>
        <pt x="416" y="0" on="1"/>
        <pt x="416" y="364" on="1"/>
        <pt x="416" y="416" on="0"/>
        <pt x="345" y="481" on="0"/>
        <pt x="268" y="481" on="1"/>
        <pt x="214" y="481" on="0"/>
        <pt x="129" y="437" on="0"/>
        <pt x="92" y="395" on="1"/>
        <pt x="56" y="430" on="1"/>
        <pt x="103" y="481" on="0"/>
        <pt x="208" y="531" on="0"/>
      </contour>
      <contour>
        <pt x="274" y="319" on="1"/>
        <pt x="439" y="319" on="1"/>
        <pt x="430" y="270" on="1"/>
        <pt x="261" y="270" on="1"/>
        <pt x="179" y="270" on="0"/>
        <pt x="91" y="208" on="0"/>
        <pt x="91" y="151" on="1"/>
        <pt x="91" y="101" on="0"/>
        <pt x="164" y="40" on="0"/>
        <pt x="220" y="40" on="1"/>
        <pt x="287" y="40" on="0"/>
        <pt x="398" y="109" on="0"/>
        <pt x="426" y="164" on="1"/>
        <pt x="447" y="130" on="1"/>
        <pt x="411" y="67" on="0"/>
        <pt x="285" y="-10" on="0"/>
        <pt x="216" y="-10" on="1"/>
        <pt x="140" y="-10" on="0"/>
        <pt x="38" y="77" on="0"/>
        <pt x="38" y="149" on="1"/>
        <pt x="38" y="233" on="0"/>
        <pt x="157" y="319" on="0"/>
      </contour>
      <contour>
        <pt x="266" y="610" on="1"/>
        <pt x="212" y="610" on="0"/>
        <pt x="136" y="681" on="0"/>
        <pt x="124" y="742" on="1"/>
        <pt x="167" y="747" on="1"/>
        <pt x="177" y="702" on="0"/>
        <pt x="232" y="651" on="0"/>
        <pt x="266" y="651" on="1"/>
        <pt x="300" y="651" on="0"/>
        <pt x="355" y="702" on="0"/>
        <pt x="365" y="747" on="1"/>
        <pt x="408" y="742" on="1"/>
        <pt x="396" y="681" on="0"/>
        <pt x="320" y="610" on="0"/>
      </contour>
    </TTGlyph>
    <TTGlyph name="aacute" xMin="32" yMin="-10" xMax="534" yMax="741">
      <contour>
        <pt x="486" y="520" on="1"/>
        <pt x="534" y="520" on="1"/>
        <pt x="534" y="0" on="1"/>
        <pt x="484" y="0" on="1"/>
        <pt x="484" y="130" on="1"/>
        <pt x="501" y="149" on="1"/>
        <pt x="482" y="82" on="0"/>
        <pt x="360" y="-10" on="0"/>
        <pt x="280" y="-10" on="1"/>
        <pt x="174" y="-10" on="0"/>
        <pt x="32" y="143" on="0"/>
        <pt x="32" y="260" on="1"/>
        <pt x="32" y="378" on="0"/>
        <pt x="177" y="531" on="0"/>
        <pt x="280" y="531" on="1"/>
        <pt x="360" y="531" on="0"/>
        <pt x="482" y="440" on="0"/>
        <pt x="501" y="372" on="1"/>
        <pt x="481" y="385" on="1"/>
      </contour>
      <contour>
        <pt x="85" y="261" on="1"/>
        <pt x="85" y="166" on="0"/>
        <pt x="197" y="40" on="0"/>
        <pt x="287" y="40" on="1"/>
        <pt x="373" y="40" on="0"/>
        <pt x="488" y="164" on="0"/>
        <pt x="488" y="261" on="1"/>
        <pt x="488" y="357" on="0"/>
        <pt x="374" y="481" on="0"/>
        <pt x="287" y="481" on="1"/>
        <pt x="198" y="481" on="0"/>
        <pt x="85" y="357" on="0"/>
      </contour>
      <contour>
        <pt x="404" y="696" on="1"/>
        <pt x="250" y="595" on="1"/>
        <pt x="229" y="626" on="1"/>
        <pt x="371" y="741" on="1"/>
      </contour>
    </TTGlyph>
    <TTGlyph name="aacute.ss01" xMin="38" yMin="-10" xMax="466" yMax="741">
      <contour>
        <pt x="270" y="531" on="1"/>
        <pt x="360" y="531" on="0"/>
        <pt x="466" y="444" on="0"/>
        <pt x="466" y="364" on="1"/>
        <pt x="466" y="0" on="1"/>
        <pt x="416" y="0" on="1"/>
        <pt x="416" y="364" on="1"/>
        <pt x="416" y="416" on="0"/>
        <pt x="345" y="481" on="0"/>
        <pt x="268" y="481" on="1"/>
        <pt x="214" y="481" on="0"/>
        <pt x="129" y="437" on="0"/>
        <pt x="92" y="395" on="1"/>
        <pt x="56" y="430" on="1"/>
        <pt x="103" y="481" on="0"/>
        <pt x="208" y="531" on="0"/>
      </contour>
      <contour>
        <pt x="274" y="319" on="1"/>
        <pt x="439" y="319" on="1"/>
        <pt x="430" y="270" on="1"/>
        <pt x="261" y="270" on="1"/>
        <pt x="179" y="270" on="0"/>
        <pt x="91" y="208" on="0"/>
        <pt x="91" y="151" on="1"/>
        <pt x="91" y="101" on="0"/>
        <pt x="164" y="40" on="0"/>
        <pt x="220" y="40" on="1"/>
        <pt x="287" y="40" on="0"/>
        <pt x="398" y="109" on="0"/>
        <pt x="426" y="164" on="1"/>
        <pt x="447" y="130" on="1"/>
        <pt x="411" y="67" on="0"/>
        <pt x="285" y="-10" on="0"/>
        <pt x="216" y="-10" on="1"/>
        <pt x="140" y="-10" on="0"/>
        <pt x="38" y="77" on="0"/>
        <pt x="38" y="149" on="1"/>
        <pt x="38" y="233" on="0"/>
        <pt x="157" y="319" on="0"/>
      </contour>
      <contour>
        <pt x="358" y="696" on="1"/>
        <pt x="204" y="595" on="1"/>
        <pt x="183" y="626" on="1"/>
        <pt x="325" y="741" on="1"/>
      </contour>
    </TTGlyph>
    <TTGlyph name="abreve" xMin="32" yMin="-10" xMax="534" yMax="732">
      <contour>
        <pt x="486" y="520" on="1"/>
        <pt x="534" y="520" on="1"/>
        <pt x="534" y="0" on="1"/>
        <pt x="484" y="0" on="1"/>
        <pt x="484" y="130" on="1"/>
        <pt x="501" y="149" on="1"/>
        <pt x="482" y="82" on="0"/>
        <pt x="360" y="-10" on="0"/>
        <pt x="280" y="-10" on="1"/>
        <pt x="174" y="-10" on="0"/>
        <pt x="32" y="143" on="0"/>
        <pt x="32" y="260" on="1"/>
        <pt x="32" y="378" on="0"/>
        <pt x="177" y="531" on="0"/>
        <pt x="280" y="531" on="1"/>
        <pt x="360" y="531" on="0"/>
        <pt x="482" y="440" on="0"/>
        <pt x="501" y="372" on="1"/>
        <pt x="481" y="385" on="1"/>
      </contour>
      <contour>
        <pt x="85" y="261" on="1"/>
        <pt x="85" y="166" on="0"/>
        <pt x="197" y="40" on="0"/>
        <pt x="287" y="40" on="1"/>
        <pt x="373" y="40" on="0"/>
        <pt x="488" y="164" on="0"/>
        <pt x="488" y="261" on="1"/>
        <pt x="488" y="357" on="0"/>
        <pt x="374" y="481" on="0"/>
        <pt x="287" y="481" on="1"/>
        <pt x="198" y="481" on="0"/>
        <pt x="85" y="357" on="0"/>
      </contour>
      <contour>
        <pt x="299" y="595" on="1"/>
        <pt x="245" y="595" on="0"/>
        <pt x="169" y="666" on="0"/>
        <pt x="157" y="727" on="1"/>
        <pt x="200" y="732" on="1"/>
        <pt x="210" y="687" on="0"/>
        <pt x="265" y="636" on="0"/>
        <pt x="299" y="636" on="1"/>
        <pt x="333" y="636" on="0"/>
        <pt x="388" y="687" on="0"/>
        <pt x="398" y="732" on="1"/>
        <pt x="441" y="727" on="1"/>
        <pt x="429" y="666" on="0"/>
        <pt x="353" y="595" on="0"/>
      </contour>
    </TTGlyph>
    <TTGlyph name="abreve.ss01" xMin="38" yMin="-10" xMax="466" yMax="732">
      <contour>
        <pt x="270" y="531" on="1"/>
        <pt x="360" y="531" on="0"/>
        <pt x="466" y="444" on="0"/>
        <pt x="466" y="364" on="1"/>
        <pt x="466" y="0" on="1"/>
        <pt x="416" y="0" on="1"/>
        <pt x="416" y="364" on="1"/>
        <pt x="416" y="416" on="0"/>
        <pt x="345" y="481" on="0"/>
        <pt x="268" y="481" on="1"/>
        <pt x="214" y="481" on="0"/>
        <pt x="129" y="437" on="0"/>
        <pt x="92" y="395" on="1"/>
        <pt x="56" y="430" on="1"/>
        <pt x="103" y="481" on="0"/>
        <pt x="208" y="531" on="0"/>
      </contour>
      <contour>
        <pt x="274" y="319" on="1"/>
        <pt x="439" y="319" on="1"/>
        <pt x="430" y="270" on="1"/>
        <pt x="261" y="270" on="1"/>
        <pt x="179" y="270" on="0"/>
        <pt x="91" y="208" on="0"/>
        <pt x="91" y="151" on="1"/>
        <pt x="91" y="101" on="0"/>
        <pt x="164" y="40" on="0"/>
        <pt x="220" y="40" on="1"/>
        <pt x="287" y="40" on="0"/>
        <pt x="398" y="109" on="0"/>
        <pt x="426" y="164" on="1"/>
        <pt x="447" y="130" on="1"/>
        <pt x="411" y="67" on="0"/>
        <pt x="285" y="-10" on="0"/>
        <pt x="216" y="-10" on="1"/>
        <pt x="140" y="-10" on="0"/>
        <pt x="38" y="77" on="0"/>
        <pt x="38" y="149" on="1"/>
        <pt x="38" y="233" on="0"/>
        <pt x="157" y="319" on="0"/>
      </contour>
      <contour>
        <pt x="266" y="595" on="1"/>
        <pt x="212" y="595" on="0"/>
        <pt x="136" y="666" on="0"/>
        <pt x="124" y="727" on="1"/>
        <pt x="167" y="732" on="1"/>
        <pt x="177" y="687" on="0"/>
        <pt x="232" y="636" on="0"/>
        <pt x="266" y="636" on="1"/>
        <pt x="300" y="636" on="0"/>
        <pt x="355" y="687" on="0"/>
        <pt x="365" y="732" on="1"/>
        <pt x="408" y="727" on="1"/>
        <pt x="396" y="666" on="0"/>
        <pt x="320" y="595" on="0"/>
      </contour>
    </TTGlyph>
    <TTGlyph name="acircumflex" xMin="32" yMin="-10" xMax="534" yMax="721">
      <contour>
        <pt x="486" y="520" on="1"/>
        <pt x="534" y="520" on="1"/>
        <pt x="534" y="0" on="1"/>
        <pt x="484" y="0" on="1"/>
        <pt x="484" y="130" on="1"/>
        <pt x="501" y="149" on="1"/>
        <pt x="482" y="82" on="0"/>
        <pt x="360" y="-10" on="0"/>
        <pt x="280" y="-10" on="1"/>
        <pt x="174" y="-10" on="0"/>
        <pt x="32" y="143" on="0"/>
        <pt x="32" y="260" on="1"/>
        <pt x="32" y="378" on="0"/>
        <pt x="177" y="531" on="0"/>
        <pt x="280" y="531" on="1"/>
        <pt x="360" y="531" on="0"/>
        <pt x="482" y="440" on="0"/>
        <pt x="501" y="372" on="1"/>
        <pt x="481" y="385" on="1"/>
      </contour>
      <contour>
        <pt x="85" y="261" on="1"/>
        <pt x="85" y="166" on="0"/>
        <pt x="197" y="40" on="0"/>
        <pt x="287" y="40" on="1"/>
        <pt x="373" y="40" on="0"/>
        <pt x="488" y="164" on="0"/>
        <pt x="488" y="261" on="1"/>
        <pt x="488" y="357" on="0"/>
        <pt x="374" y="481" on="0"/>
        <pt x="287" y="481" on="1"/>
        <pt x="198" y="481" on="0"/>
        <pt x="85" y="357" on="0"/>
      </contour>
      <contour>
        <pt x="412" y="595" on="1"/>
        <pt x="285" y="692" on="1"/>
        <pt x="315" y="692" on="1"/>
        <pt x="188" y="595" on="1"/>
        <pt x="160" y="620" on="1"/>
        <pt x="269" y="721" on="1"/>
        <pt x="331" y="721" on="1"/>
        <pt x="440" y="620" on="1"/>
      </contour>
    </TTGlyph>
    <TTGlyph name="acircumflex.ss01" xMin="38" yMin="-10" xMax="466" yMax="721">
      <contour>
        <pt x="270" y="531" on="1"/>
        <pt x="360" y="531" on="0"/>
        <pt x="466" y="444" on="0"/>
        <pt x="466" y="364" on="1"/>
        <pt x="466" y="0" on="1"/>
        <pt x="416" y="0" on="1"/>
        <pt x="416" y="364" on="1"/>
        <pt x="416" y="416" on="0"/>
        <pt x="345" y="481" on="0"/>
        <pt x="268" y="481" on="1"/>
        <pt x="214" y="481" on="0"/>
        <pt x="129" y="437" on="0"/>
        <pt x="92" y="395" on="1"/>
        <pt x="56" y="430" on="1"/>
        <pt x="103" y="481" on="0"/>
        <pt x="208" y="531" on="0"/>
      </contour>
      <contour>
        <pt x="274" y="319" on="1"/>
        <pt x="439" y="319" on="1"/>
        <pt x="430" y="270" on="1"/>
        <pt x="261" y="270" on="1"/>
        <pt x="179" y="270" on="0"/>
        <pt x="91" y="208" on="0"/>
        <pt x="91" y="151" on="1"/>
        <pt x="91" y="101" on="0"/>
        <pt x="164" y="40" on="0"/>
        <pt x="220" y="40" on="1"/>
        <pt x="287" y="40" on="0"/>
        <pt x="398" y="109" on="0"/>
        <pt x="426" y="164" on="1"/>
        <pt x="447" y="130" on="1"/>
        <pt x="411" y="67" on="0"/>
        <pt x="285" y="-10" on="0"/>
        <pt x="216" y="-10" on="1"/>
        <pt x="140" y="-10" on="0"/>
        <pt x="38" y="77" on="0"/>
        <pt x="38" y="149" on="1"/>
        <pt x="38" y="233" on="0"/>
        <pt x="157" y="319" on="0"/>
      </contour>
      <contour>
        <pt x="378" y="595" on="1"/>
        <pt x="251" y="692" on="1"/>
        <pt x="281" y="692" on="1"/>
        <pt x="154" y="595" on="1"/>
        <pt x="126" y="620" on="1"/>
        <pt x="235" y="721" on="1"/>
        <pt x="297" y="721" on="1"/>
        <pt x="406" y="620" on="1"/>
      </contour>
    </TTGlyph>
    <TTGlyph name="acute" xMin="46" yMin="589" xMax="221" yMax="735">
      <contour>
        <pt x="221" y="690" on="1"/>
        <pt x="67" y="589" on="1"/>
        <pt x="46" y="620" on="1"/>
        <pt x="188" y="735" on="1"/>
      </contour>
    </TTGlyph>
    <TTGlyph name="acute.case" xMin="39" yMin="590" xMax="220" yMax="732">
      <contour>
        <pt x="220" y="683" on="1"/>
        <pt x="60" y="590" on="1"/>
        <pt x="39" y="621" on="1"/>
        <pt x="182" y="732" on="1"/>
      </contour>
    </TTGlyph>
    <TTGlyph name="acutecomb" xMin="46" yMin="589" xMax="221" yMax="735">
      <contour>
        <pt x="221" y="690" on="1"/>
        <pt x="67" y="589" on="1"/>
        <pt x="46" y="620" on="1"/>
        <pt x="188" y="735" on="1"/>
      </contour>
    </TTGlyph>
    <TTGlyph name="acutecomb.case" xMin="39" yMin="590" xMax="220" yMax="732">
      <contour>
        <pt x="220" y="683" on="1"/>
        <pt x="60" y="590" on="1"/>
        <pt x="39" y="621" on="1"/>
        <pt x="182" y="732" on="1"/>
      </contour>
    </TTGlyph>
    <TTGlyph name="acutecomb_dotaccentcomb" xMin="1" yMin="599" xMax="176" yMax="870">
      <contour>
        <pt x="176" y="700" on="1"/>
        <pt x="22" y="599" on="1"/>
        <pt x="1" y="630" on="1"/>
        <pt x="143" y="745" on="1"/>
      </contour>
      <contour>
        <pt x="119" y="825" on="1"/>
        <pt x="119" y="805" on="0"/>
        <pt x="95" y="780" on="0"/>
        <pt x="73" y="780" on="1"/>
        <pt x="51" y="780" on="0"/>
        <pt x="27" y="804" on="0"/>
        <pt x="27" y="825" on="1"/>
        <pt x="27" y="845" on="0"/>
        <pt x="51" y="870" on="0"/>
        <pt x="73" y="870" on="1"/>
        <pt x="95" y="870" on="0"/>
        <pt x="119" y="846" on="0"/>
      </contour>
    </TTGlyph>
    <TTGlyph name="adieresis" xMin="32" yMin="-10" xMax="534" yMax="685">
      <contour>
        <pt x="486" y="520" on="1"/>
        <pt x="534" y="520" on="1"/>
        <pt x="534" y="0" on="1"/>
        <pt x="484" y="0" on="1"/>
        <pt x="484" y="130" on="1"/>
        <pt x="501" y="149" on="1"/>
        <pt x="482" y="82" on="0"/>
        <pt x="360" y="-10" on="0"/>
        <pt x="280" y="-10" on="1"/>
        <pt x="174" y="-10" on="0"/>
        <pt x="32" y="143" on="0"/>
        <pt x="32" y="260" on="1"/>
        <pt x="32" y="378" on="0"/>
        <pt x="177" y="531" on="0"/>
        <pt x="280" y="531" on="1"/>
        <pt x="360" y="531" on="0"/>
        <pt x="482" y="440" on="0"/>
        <pt x="501" y="372" on="1"/>
        <pt x="481" y="385" on="1"/>
      </contour>
      <contour>
        <pt x="85" y="261" on="1"/>
        <pt x="85" y="166" on="0"/>
        <pt x="197" y="40" on="0"/>
        <pt x="287" y="40" on="1"/>
        <pt x="373" y="40" on="0"/>
        <pt x="488" y="164" on="0"/>
        <pt x="488" y="261" on="1"/>
        <pt x="488" y="357" on="0"/>
        <pt x="374" y="481" on="0"/>
        <pt x="287" y="481" on="1"/>
        <pt x="198" y="481" on="0"/>
        <pt x="85" y="357" on="0"/>
      </contour>
      <contour>
        <pt x="234" y="640" on="1"/>
        <pt x="234" y="620" on="0"/>
        <pt x="210" y="595" on="0"/>
        <pt x="188" y="595" on="1"/>
        <pt x="166" y="595" on="0"/>
        <pt x="142" y="619" on="0"/>
        <pt x="142" y="640" on="1"/>
        <pt x="142" y="660" on="0"/>
        <pt x="166" y="685" on="0"/>
        <pt x="188" y="685" on="1"/>
        <pt x="210" y="685" on="0"/>
        <pt x="234" y="661" on="0"/>
      </contour>
      <contour>
        <pt x="424" y="640" on="1"/>
        <pt x="424" y="620" on="0"/>
        <pt x="400" y="595" on="0"/>
        <pt x="378" y="595" on="1"/>
        <pt x="356" y="595" on="0"/>
        <pt x="332" y="619" on="0"/>
        <pt x="332" y="640" on="1"/>
        <pt x="332" y="660" on="0"/>
        <pt x="356" y="685" on="0"/>
        <pt x="378" y="685" on="1"/>
        <pt x="400" y="685" on="0"/>
        <pt x="424" y="661" on="0"/>
      </contour>
    </TTGlyph>
    <TTGlyph name="adieresis.ss01" xMin="38" yMin="-10" xMax="466" yMax="718">
      <contour>
        <pt x="270" y="531" on="1"/>
        <pt x="360" y="531" on="0"/>
        <pt x="466" y="444" on="0"/>
        <pt x="466" y="364" on="1"/>
        <pt x="466" y="0" on="1"/>
        <pt x="416" y="0" on="1"/>
        <pt x="416" y="364" on="1"/>
        <pt x="416" y="416" on="0"/>
        <pt x="345" y="481" on="0"/>
        <pt x="268" y="481" on="1"/>
        <pt x="214" y="481" on="0"/>
        <pt x="129" y="437" on="0"/>
        <pt x="92" y="395" on="1"/>
        <pt x="56" y="430" on="1"/>
        <pt x="103" y="481" on="0"/>
        <pt x="208" y="531" on="0"/>
      </contour>
      <contour>
        <pt x="274" y="319" on="1"/>
        <pt x="439" y="319" on="1"/>
        <pt x="430" y="270" on="1"/>
        <pt x="261" y="270" on="1"/>
        <pt x="179" y="270" on="0"/>
        <pt x="91" y="208" on="0"/>
        <pt x="91" y="151" on="1"/>
        <pt x="91" y="101" on="0"/>
        <pt x="164" y="40" on="0"/>
        <pt x="220" y="40" on="1"/>
        <pt x="287" y="40" on="0"/>
        <pt x="398" y="109" on="0"/>
        <pt x="426" y="164" on="1"/>
        <pt x="447" y="130" on="1"/>
        <pt x="411" y="67" on="0"/>
        <pt x="285" y="-10" on="0"/>
        <pt x="216" y="-10" on="1"/>
        <pt x="140" y="-10" on="0"/>
        <pt x="38" y="77" on="0"/>
        <pt x="38" y="149" on="1"/>
        <pt x="38" y="233" on="0"/>
        <pt x="157" y="319" on="0"/>
      </contour>
      <contour>
        <pt x="203" y="673" on="1"/>
        <pt x="203" y="653" on="0"/>
        <pt x="179" y="628" on="0"/>
        <pt x="157" y="628" on="1"/>
        <pt x="135" y="628" on="0"/>
        <pt x="111" y="652" on="0"/>
        <pt x="111" y="673" on="1"/>
        <pt x="111" y="693" on="0"/>
        <pt x="135" y="718" on="0"/>
        <pt x="157" y="718" on="1"/>
        <pt x="179" y="718" on="0"/>
        <pt x="203" y="694" on="0"/>
      </contour>
      <contour>
        <pt x="393" y="673" on="1"/>
        <pt x="393" y="653" on="0"/>
        <pt x="369" y="628" on="0"/>
        <pt x="347" y="628" on="1"/>
        <pt x="325" y="628" on="0"/>
        <pt x="301" y="652" on="0"/>
        <pt x="301" y="673" on="1"/>
        <pt x="301" y="693" on="0"/>
        <pt x="325" y="718" on="0"/>
        <pt x="347" y="718" on="1"/>
        <pt x="369" y="718" on="0"/>
        <pt x="393" y="694" on="0"/>
      </contour>
    </TTGlyph>
    <TTGlyph name="ae" xMin="38" yMin="-10" xMax="860" yMax="531">
      <contour>
        <pt x="254" y="531" on="1"/>
        <pt x="341" y="531" on="0"/>
        <pt x="444" y="449" on="0"/>
        <pt x="444" y="374" on="1"/>
        <pt x="444" y="289" on="1"/>
        <pt x="400" y="289" on="1"/>
        <pt x="400" y="364" on="1"/>
        <pt x="400" y="416" on="0"/>
        <pt x="329" y="481" on="0"/>
        <pt x="252" y="481" on="1"/>
        <pt x="198" y="481" on="0"/>
        <pt x="113" y="437" on="0"/>
        <pt x="76" y="395" on="1"/>
        <pt x="40" y="430" on="1"/>
        <pt x="87" y="481" on="0"/>
        <pt x="192" y="531" on="0"/>
      </contour>
      <contour>
        <pt x="453" y="264" on="1"/>
        <pt x="453" y="162" on="0"/>
        <pt x="561" y="40" on="0"/>
        <pt x="662" y="40" on="1"/>
        <pt x="698" y="40" on="0"/>
        <pt x="773" y="65" on="0"/>
        <pt x="821" y="104" on="1"/>
        <pt x="847" y="67" on="1"/>
        <pt x="814" y="35" on="0"/>
        <pt x="716" y="-10" on="0"/>
        <pt x="653" y="-10" on="1"/>
        <pt x="542" y="-10" on="0"/>
        <pt x="400" y="140" on="0"/>
        <pt x="400" y="261" on="1"/>
        <pt x="400" y="389" on="0"/>
        <pt x="532" y="531" on="0"/>
        <pt x="641" y="531" on="1"/>
        <pt x="745" y="531" on="0"/>
        <pt x="860" y="393" on="0"/>
        <pt x="860" y="283" on="1"/>
        <pt x="859" y="257" on="1"/>
        <pt x="261" y="257" on="1"/>
        <pt x="179" y="257" on="0"/>
        <pt x="91" y="201" on="0"/>
        <pt x="91" y="151" on="1"/>
        <pt x="91" y="101" on="0"/>
        <pt x="164" y="40" on="0"/>
        <pt x="220" y="40" on="1"/>
        <pt x="285" y="40" on="0"/>
        <pt x="392" y="108" on="0"/>
        <pt x="420" y="161" on="1"/>
        <pt x="452" y="124" on="1"/>
        <pt x="417" y="63" on="0"/>
        <pt x="287" y="-10" on="0"/>
        <pt x="216" y="-10" on="1"/>
        <pt x="140" y="-10" on="0"/>
        <pt x="38" y="77" on="0"/>
        <pt x="38" y="149" on="1"/>
        <pt x="38" y="226" on="0"/>
        <pt x="157" y="304" on="0"/>
        <pt x="274" y="304" on="1"/>
        <pt x="832" y="304" on="1"/>
        <pt x="810" y="284" on="1"/>
        <pt x="810" y="307" on="1"/>
        <pt x="811" y="367" on="0"/>
        <pt x="727" y="481" on="0"/>
        <pt x="640" y="481" on="1"/>
        <pt x="559" y="481" on="0"/>
        <pt x="453" y="370" on="0"/>
      </contour>
    </TTGlyph>
</ttFont>
